SplineFontDB: 3.0
FontName: CrimsonText-Roman-bessst
FullName: Crimson Text bessst
FamilyName: Crimson Text bessst
Weight: Book
Copyright: Copyright (c) 2010, Sebastian Kosch (sebastian@aldusleaf.org),\nwith Reserved Font Name "Crimson Text".\nThis Font Software is licensed under the SIL Open Font License, Version 1.1.\nThis license is available with a FAQ at: http://scripts.sil.org/OFL
Version: 0.13
ItalicAngle: 0
UnderlinePosition: -112
UnderlineWidth: 47
Ascent: 717
Descent: 307
UFOAscent: 717
UFODescent: -307
LayerCount: 2
Layer: 0 1 "Back"  1
Layer: 1 1 "Fore"  0
OS2Version: 0
OS2_WeightWidthSlopeOnly: 0
OS2_UseTypoMetrics: 0
CreationTime: 1361273051
ModificationTime: 1361788933
PfmFamily: 0
TTFWeight: 400
TTFWidth: 5
LineGap: 92
VLineGap: 0
Panose: 2 0 5 3 0 0 0 0 0 0
OS2TypoAscent: 717
OS2TypoAOffset: 0
OS2TypoDescent: -307
OS2TypoDOffset: 0
OS2TypoLinegap: 307
OS2WinAscent: 1026
OS2WinAOffset: 0
OS2WinDescent: 297
OS2WinDOffset: 0
HheadAscent: 1026
HheadAOffset: 0
HheadDescent: -297
HheadDOffset: 0
OS2SubXSize: 666
OS2SubYSize: 716
OS2SubXOff: 0
OS2SubYOff: 143
OS2SupXSize: 666
OS2SupYSize: 716
OS2SupXOff: 0
OS2SupYOff: 490
OS2StrikeYSize: 50
OS2StrikeYPos: 264
OS2FamilyClass: 258
OS2Vendor: 'PfEd'
OS2CodePages: 20000001.00000000
OS2UnicodeRanges: 80000043.40000062.00000000.00000000
Lookup: 4 0 1 "ligaStandardLigatureslookup32"  {"ligaStandardLigatureslookup32 subtable"  } ['liga' ('latn' <'dflt' 'AZE ' 'CAT ' 'CRT ' 'DEU ' 'LAT ' 'PLK ' 'TRK ' > 'grek' <'dflt' > 'cyrl' <'dflt' 'BGR ' 'SRB ' > 'DFLT' <'dflt' > ) ]
Lookup: 4 0 1 "'liga' Standard Ligatures lookup 1"  {"'liga' Standard Ligatures lookup 1 subtable"  } ['liga' ('DFLT' <'dflt' > ) ]
Lookup: 258 0 0 "'kern' Horizontal Kerning in Latin lookup 0"  {"'kern' Horizontal Kerning in Latin lookup 0 subtable"  } ['kern' ('latn' <'dflt' > ) ]
Lookup: 258 0 0 "kernHorizontalKerninginLatinloo"  {"kernHorizontalKerninginLatinloo subtable"  } ['kern' ('latn' <'dflt' > ) ]
MarkAttachClasses: 1
DEI: 91125

StartChar: .notdef
Encoding: 65536 -1 0
Width: 374
VWidth: 0
Flags: W
LayerCount: 2
Fore
SplineSet
34 0 m 1,0,-1
 34 682 l 1,1,-1
 306 682 l 1,2,-1
 306 0 l 1,3,-1
 34 0 l 1,0,-1
68 34 m 1,4,-1
 272 34 l 1,5,-1
 272 648 l 1,6,-1
 68 648 l 1,7,-1
 68 34 l 1,4,-1
EndSplineSet
Validated: 1
EndChar

StartChar: exclam
Encoding: 33 33 4
Width: 280
VWidth: 0
GlyphClass: 2
Flags: W
LayerCount: 2
Fore
SplineSet
142 642 m 0,0,1
 164 642 164 642 175.5 623.5 c 128,-1,2
 187 605 187 605 187 579 c 0,3,4
 187 569 187 569 182.5 526 c 128,-1,5
 178 483 178 483 170.5 388.5 c 128,-1,6
 163 294 163 294 156 181 c 0,7,8
 155 166 155 166 151 160.5 c 128,-1,9
 147 155 147 155 132 148 c 0,10,11
 127 146 127 146 123.5 153 c 128,-1,12
 120 160 120 160 119 170 c 0,13,14
 111 300 111 300 103.5 395.5 c 128,-1,15
 96 491 96 491 93 524.5 c 128,-1,16
 90 558 90 558 90 579 c 0,17,18
 90 604 90 604 104.5 623 c 128,-1,19
 119 642 119 642 142 642 c 0,0,1
99 85.5 m 128,-1,21
 116 102 116 102 140 102 c 128,-1,22
 164 102 164 102 180.5 85.5 c 128,-1,23
 197 69 197 69 197 45 c 128,-1,24
 197 21 197 21 180.5 3.5 c 128,-1,25
 164 -14 164 -14 140 -14 c 128,-1,26
 116 -14 116 -14 99 3.5 c 128,-1,27
 82 21 82 21 82 45 c 128,-1,20
 82 69 82 69 99 85.5 c 128,-1,21
EndSplineSet
Validated: 1
EndChar

StartChar: quotedbl
Encoding: 34 34 5
Width: 348
VWidth: 0
GlyphClass: 2
Flags: W
LayerCount: 2
Fore
SplineSet
97 698 m 2,0,-1
 111 698 l 2,1,2
 126 698 126 698 133.5 685.5 c 128,-1,3
 141 673 141 673 141 633 c 0,4,5
 141 603 141 603 127 541 c 128,-1,6
 113 479 113 479 110 449 c 0,7,8
 108 434 108 434 94 434 c 0,9,10
 78 434 78 434 76 447 c 0,11,12
 71 494 71 494 56.5 555 c 128,-1,13
 42 616 42 616 42 635 c 0,14,15
 42 650 42 650 60.5 674 c 128,-1,16
 79 698 79 698 97 698 c 2,0,-1
260 698 m 2,17,-1
 275 698 l 2,18,19
 289 698 289 698 296.5 685.5 c 128,-1,20
 304 673 304 673 304 633 c 0,21,22
 304 603 304 603 289 541.5 c 128,-1,23
 274 480 274 480 271 449 c 0,24,25
 270 434 270 434 255 434 c 0,26,27
 242 434 242 434 240 447 c 0,28,29
 235 494 235 494 220.5 555 c 128,-1,30
 206 616 206 616 206 635 c 0,31,32
 206 651 206 651 224 674.5 c 128,-1,33
 242 698 242 698 260 698 c 2,17,-1
EndSplineSet
Validated: 1
EndChar

StartChar: numbersign
Encoding: 35 35 6
Width: 476
VWidth: 0
GlyphClass: 2
Flags: W
LayerCount: 2
Fore
SplineSet
301 24 m 1,0,-1
 298 20 l 1,1,2
 292 15 292 15 271 15 c 2,3,-1
 258 15 l 2,4,5
 252 15 252 15 248.5 17.5 c 128,-1,6
 245 20 245 20 245 22 c 2,7,-1
 245 24 l 1,8,-1
 267 175 l 1,9,-1
 173 175 l 1,10,-1
 151 24 l 2,11,12
 151 23 151 23 150 22 c 128,-1,13
 149 21 149 21 148.5 20 c 128,-1,14
 148 19 148 19 146.5 18.5 c 128,-1,15
 145 18 145 18 142.5 17.5 c 128,-1,16
 140 17 140 17 137 16.5 c 128,-1,17
 134 16 134 16 129.5 15.5 c 128,-1,18
 125 15 125 15 120 15 c 2,19,-1
 107 15 l 2,20,21
 101 15 101 15 97.5 17.5 c 128,-1,22
 94 20 94 20 94 22 c 2,23,-1
 93 24 l 1,24,-1
 116 175 l 1,25,-1
 30 175 l 2,26,27
 24 175 24 175 24 185 c 0,28,29
 24 199 24 199 32 226 c 0,30,31
 33 229 33 229 34.5 230 c 128,-1,32
 36 231 36 231 38 231 c 2,33,-1
 39 231 l 1,34,-1
 125 231 l 1,35,-1
 137 317 l 1,36,-1
 30 317 l 1,37,38
 24 318 24 318 24 328 c 0,39,40
 24 342 24 342 32 369 c 0,41,42
 33 372 33 372 34.5 373 c 128,-1,43
 36 374 36 374 38 374 c 2,44,-1
 39 374 l 1,45,-1
 146 374 l 1,46,-1
 170 530 l 1,47,48
 179 539 179 539 217 539 c 0,49,50
 223 539 223 539 225.5 536.5 c 128,-1,51
 228 534 228 534 228 532 c 2,52,-1
 227 530 l 1,53,-1
 204 374 l 1,54,-1
 298 374 l 1,55,-1
 322 530 l 1,56,57
 331 539 331 539 369 539 c 0,58,59
 375 539 375 539 377.5 536.5 c 128,-1,60
 380 534 380 534 380 532 c 2,61,-1
 379 530 l 1,62,-1
 355 374 l 1,63,-1
 437 374 l 2,64,65
 438 374 438 374 439 374.5 c 128,-1,66
 440 375 440 375 442 373 c 128,-1,67
 444 371 444 371 444 367 c 0,68,69
 444 353 444 353 435 324 c 1,70,-1
 429 317 l 1,71,-1
 346 317 l 1,72,-1
 333 231 l 1,73,-1
 437 231 l 2,74,75
 438 231 438 231 439 231.5 c 128,-1,76
 440 232 440 232 442 230 c 128,-1,77
 444 228 444 228 444 224 c 0,78,79
 444 210 444 210 435 181 c 0,80,81
 434 178 434 178 432.5 176.5 c 128,-1,82
 431 175 431 175 430 175 c 2,83,-1
 429 175 l 1,84,-1
 325 175 l 1,85,-1
 301 24 l 1,0,-1
277 231 m 1,86,-1
 289 317 l 1,87,-1
 195 317 l 1,88,-1
 182 231 l 1,89,-1
 277 231 l 1,86,-1
EndSplineSet
Validated: 1
EndChar

StartChar: dollar
Encoding: 36 36 7
Width: 491
VWidth: 0
GlyphClass: 2
Flags: W
LayerCount: 2
Fore
SplineSet
284 683 m 1,0,1
 319 683 319 683 319 676 c 1,2,-1
 199 -52 l 1,3,4
 164 -52 164 -52 164 -43 c 1,5,-1
 284 683 l 1,0,1
245 644 m 0,6,7
 268 644 268 644 297 639.5 c 128,-1,8
 326 635 326 635 355 628.5 c 128,-1,9
 384 622 384 622 390 621 c 1,10,11
 401 531 401 531 401 484 c 0,12,13
 401 476 401 476 394 476 c 0,14,15
 369 478 369 478 368 487 c 0,16,17
 363 522 363 522 328.5 562 c 128,-1,18
 294 602 294 602 240 602 c 0,19,20
 131 602 131 602 131 505 c 0,21,22
 131 459 131 459 160.5 430 c 128,-1,23
 190 401 190 401 252 366 c 0,24,25
 257 363 257 363 284.5 347.5 c 128,-1,26
 312 332 312 332 319.5 327.5 c 128,-1,27
 327 323 327 323 350.5 308 c 128,-1,28
 374 293 374 293 382 285 c 128,-1,29
 390 277 390 277 406 261.5 c 128,-1,30
 422 246 422 246 428 233.5 c 128,-1,31
 434 221 434 221 439.5 204.5 c 128,-1,32
 445 188 445 188 445 170 c 0,33,34
 445 93 445 93 384 42.5 c 128,-1,35
 323 -8 323 -8 241 -8 c 0,36,37
 201 -8 201 -8 73 15 c 1,38,39
 49 79 49 79 45 166 c 0,40,41
 45 174 45 174 63 174 c 0,42,43
 77 174 77 174 85 166 c 1,44,45
 121 31 121 31 243 31 c 0,46,47
 292 31 292 31 327 60 c 128,-1,48
 362 89 362 89 362 141 c 0,49,50
 362 162 362 162 354.5 180 c 128,-1,51
 347 198 347 198 341 208 c 128,-1,52
 335 218 335 218 315.5 232 c 128,-1,53
 296 246 296 246 291 249 c 128,-1,54
 286 252 286 252 262 264 c 0,55,56
 256 267 256 267 253 269 c 0,57,58
 151 322 151 322 103 365 c 128,-1,59
 55 408 55 408 55 473 c 0,60,61
 55 546 55 546 112 595 c 128,-1,62
 169 644 169 644 245 644 c 0,6,7
EndSplineSet
Validated: 5
EndChar

StartChar: percent
Encoding: 37 37 8
Width: 680
VWidth: 0
GlyphClass: 2
Flags: W
LayerCount: 2
Fore
SplineSet
195 621 m 0,0,1
 154 621 154 621 133.5 583.5 c 128,-1,2
 113 546 113 546 113 496 c 0,3,4
 113 442 113 442 141 396 c 128,-1,5
 169 350 169 350 205 350 c 0,6,7
 245 350 245 350 262.5 387 c 128,-1,8
 280 424 280 424 280 476 c 0,9,10
 280 531 280 531 256.5 576 c 128,-1,11
 233 621 233 621 195 621 c 0,0,1
199 645 m 0,12,13
 263 645 263 645 304.5 598 c 128,-1,14
 346 551 346 551 346 484 c 0,15,16
 346 421 346 421 305 373 c 128,-1,17
 264 325 264 325 199 325 c 0,18,19
 137 325 137 325 93 371.5 c 128,-1,20
 49 418 49 418 49 484 c 0,21,22
 49 552 49 552 91 598.5 c 128,-1,23
 133 645 133 645 199 645 c 0,12,13
484 289 m 0,24,25
 443 289 443 289 422 251.5 c 128,-1,26
 401 214 401 214 401 164 c 0,27,28
 401 111 401 111 429 64.5 c 128,-1,29
 457 18 457 18 494 18 c 0,30,31
 534 18 534 18 551 55 c 128,-1,32
 568 92 568 92 568 144 c 0,33,34
 568 199 568 199 544.5 244 c 128,-1,35
 521 289 521 289 484 289 c 0,24,25
488 313 m 0,36,37
 552 313 552 313 593 266 c 128,-1,38
 634 219 634 219 634 152 c 0,39,40
 634 88 634 88 593.5 40.5 c 128,-1,41
 553 -7 553 -7 487 -7 c 0,42,43
 425 -7 425 -7 381 39.5 c 128,-1,44
 337 86 337 86 337 152 c 0,45,46
 337 220 337 220 379.5 266.5 c 128,-1,47
 422 313 422 313 488 313 c 0,36,37
607 624 m 1,48,-1
 124 0 l 2,49,50
 114 -12 114 -12 91 -12 c 0,51,52
 78 -12 78 -12 73 -1 c 1,53,-1
 555 624 l 2,54,55
 565 636 565 636 575 636 c 0,56,57
 586 636 586 636 591.5 635 c 128,-1,58
 597 634 597 634 598.5 633.5 c 128,-1,59
 600 633 600 633 602.5 629.5 c 128,-1,60
 605 626 605 626 607 624 c 1,48,-1
EndSplineSet
Validated: 1
EndChar

StartChar: ampersand
Encoding: 38 38 9
Width: 671
VWidth: 0
GlyphClass: 2
Flags: W
LayerCount: 2
Fore
SplineSet
407 95 m 1,0,1
 378 124 378 124 337 179 c 128,-1,2
 296 234 296 234 270 274 c 2,3,-1
 243 314 l 1,4,5
 207 289 207 289 190 275.5 c 128,-1,6
 173 262 173 262 156.5 234 c 128,-1,7
 140 206 140 206 140 172 c 0,8,9
 140 106 140 106 181 73 c 128,-1,10
 222 40 222 40 282 40 c 0,11,12
 313 40 313 40 348.5 55 c 128,-1,13
 384 70 384 70 407 95 c 1,0,1
314 620 m 0,14,15
 281 620 281 620 258 598.5 c 128,-1,16
 235 577 235 577 235 543 c 0,17,18
 235 479 235 479 287 385 c 1,19,20
 339 415 339 415 362.5 445.5 c 128,-1,21
 386 476 386 476 386 530 c 0,22,23
 386 566 386 566 366 593 c 128,-1,24
 346 620 346 620 314 620 c 0,14,15
309 656 m 0,25,26
 376 656 376 656 415 626.5 c 128,-1,27
 454 597 454 597 454 544 c 0,28,29
 454 483 454 483 415 440 c 128,-1,30
 376 397 376 397 305 353 c 1,31,32
 363 255 363 255 453 154 c 1,33,34
 478 192 478 192 494 227 c 128,-1,35
 510 262 510 262 510 271 c 128,-1,36
 510 280 510 280 500.5 283.5 c 128,-1,37
 491 287 491 287 479 287.5 c 128,-1,38
 467 288 467 288 465 289 c 1,39,40
 463 293 463 293 463 301 c 128,-1,41
 463 309 463 309 466 312 c 1,42,-1
 545 312 l 2,43,44
 560 312 560 312 576.5 313 c 128,-1,45
 593 314 593 314 615.5 315 c 128,-1,46
 638 316 638 316 655 317 c 1,47,48
 660 314 660 314 660 304 c 0,49,50
 660 289 660 289 654 289 c 0,51,52
 641 289 641 289 617 283 c 128,-1,53
 593 277 593 277 585 272 c 0,54,55
 584 271 584 271 571 249.5 c 128,-1,56
 558 228 558 228 533 191 c 128,-1,57
 508 154 508 154 481 123 c 1,58,59
 504 99 504 99 513 90 c 128,-1,60
 522 81 522 81 537 67.5 c 128,-1,61
 552 54 552 54 561 49.5 c 128,-1,62
 570 45 570 45 579 45 c 0,63,64
 593 45 593 45 609.5 62 c 128,-1,65
 626 79 626 79 631 91 c 1,66,67
 639 91 639 91 646.5 85 c 128,-1,68
 654 79 654 79 654 73 c 1,69,70
 650 65 650 65 645 57 c 128,-1,71
 640 49 640 49 627.5 34 c 128,-1,72
 615 19 615 19 593.5 9.5 c 128,-1,73
 572 0 572 0 545 0 c 0,74,75
 519 0 519 0 490 18 c 128,-1,76
 461 36 461 36 446 54 c 2,77,-1
 430 72 l 1,78,79
 344 -3 344 -3 248 -3 c 0,80,81
 159 -3 159 -3 106.5 40 c 128,-1,82
 54 83 54 83 54 158 c 0,83,84
 54 223 54 223 98 266.5 c 128,-1,85
 142 310 142 310 220 350 c 1,86,87
 201 382 201 382 191.5 401.5 c 128,-1,88
 182 421 182 421 172 454 c 128,-1,89
 162 487 162 487 162 519 c 0,90,91
 162 576 162 576 204 616 c 128,-1,92
 246 656 246 656 309 656 c 0,25,26
EndSplineSet
Validated: 1
EndChar

StartChar: quotesingle
Encoding: 39 39 10
Width: 186
VWidth: 0
GlyphClass: 2
Flags: W
LayerCount: 2
Fore
SplineSet
96 698 m 2,0,-1
 111 698 l 2,1,2
 126 698 126 698 133.5 685.5 c 128,-1,3
 141 673 141 673 141 633 c 0,4,5
 141 603 141 603 125.5 541.5 c 128,-1,6
 110 480 110 480 107 449 c 0,7,8
 106 434 106 434 91 434 c 0,9,10
 78 434 78 434 76 447 c 0,11,12
 71 494 71 494 56.5 555 c 128,-1,13
 42 616 42 616 42 635 c 0,14,15
 42 651 42 651 60 674.5 c 128,-1,16
 78 698 78 698 96 698 c 2,0,-1
EndSplineSet
Validated: 1
EndChar

StartChar: parenleft
Encoding: 40 40 11
Width: 323
VWidth: 0
GlyphClass: 2
Flags: W
LayerCount: 2
Fore
SplineSet
136 305 m 0,0,1
 136 164 136 164 186.5 44 c 128,-1,2
 237 -76 237 -76 275 -95 c 0,3,4
 277 -96 277 -96 277 -100 c 0,5,6
 277 -106 277 -106 272.5 -113.5 c 128,-1,7
 268 -121 268 -121 263 -121 c 0,8,9
 242 -121 242 -121 210 -87 c 128,-1,10
 178 -53 178 -53 146.5 1.5 c 128,-1,11
 115 56 115 56 93 138.5 c 128,-1,12
 71 221 71 221 71 305 c 0,13,14
 71 394 71 394 91.5 479 c 128,-1,15
 112 564 112 564 141.5 621 c 128,-1,16
 171 678 171 678 204 713 c 128,-1,17
 237 748 237 748 263 748 c 0,18,19
 268 748 268 748 272 739 c 128,-1,20
 276 730 276 730 276 724 c 0,21,22
 276 721 276 721 275 721 c 0,23,24
 225 697 225 697 180.5 573.5 c 128,-1,25
 136 450 136 450 136 305 c 0,0,1
EndSplineSet
Validated: 1
EndChar

StartChar: parenright
Encoding: 41 41 12
Width: 322
VWidth: 0
GlyphClass: 2
Flags: W
LayerCount: 2
Fore
SplineSet
186 305 m 0,0,1
 186 450 186 450 141.5 573.5 c 128,-1,2
 97 697 97 697 47 721 c 0,3,4
 46 721 46 721 46 724 c 0,5,6
 46 730 46 730 50 739 c 128,-1,7
 54 748 54 748 59 748 c 0,8,9
 85 748 85 748 118 713 c 128,-1,10
 151 678 151 678 180.5 621 c 128,-1,11
 210 564 210 564 230.5 479 c 128,-1,12
 251 394 251 394 251 305 c 0,13,14
 251 221 251 221 229 138.5 c 128,-1,15
 207 56 207 56 175.5 1.5 c 128,-1,16
 144 -53 144 -53 112 -87 c 128,-1,17
 80 -121 80 -121 59 -121 c 0,18,19
 54 -121 54 -121 49.5 -113.5 c 128,-1,20
 45 -106 45 -106 45 -100 c 0,21,22
 45 -96 45 -96 47 -95 c 0,23,24
 85 -76 85 -76 135.5 44 c 128,-1,25
 186 164 186 164 186 305 c 0,0,1
EndSplineSet
Validated: 1
EndChar

StartChar: asterisk
Encoding: 42 42 13
Width: 444
VWidth: 0
GlyphClass: 2
Flags: W
LayerCount: 2
Fore
SplineSet
307 613 m 0,0,1
 320 628 320 628 335.5 632 c 128,-1,2
 351 636 351 636 363 625 c 0,3,4
 375 613 375 613 373 597.5 c 128,-1,5
 371 582 371 582 357 569 c 0,6,7
 339 553 339 553 306.5 535.5 c 128,-1,8
 274 518 274 518 260 505 c 1,9,-1
 255 491 l 1,10,11
 256 484 256 484 265 481 c 1,12,13
 281 473 281 473 315 467 c 128,-1,14
 349 461 349 461 372 451 c 0,15,16
 390 443 390 443 399 429.5 c 128,-1,17
 408 416 408 416 401 402 c 0,18,19
 394 387 394 387 378 384 c 128,-1,20
 362 381 362 381 346 390 c 0,21,22
 324 402 324 402 297.5 427.5 c 128,-1,23
 271 453 271 453 255 462 c 1,24,-1
 241 465 l 1,25,26
 237 463 237 463 235 452 c 0,27,28
 233 434 233 434 237.5 400 c 128,-1,29
 242 366 242 366 239 341 c 0,30,31
 237 321 237 321 226.5 309 c 128,-1,32
 216 297 216 297 201 299 c 0,33,34
 185 301 185 301 177 314.5 c 128,-1,35
 169 328 169 328 173 347 c 0,36,37
 178 372 178 372 194.5 405.5 c 128,-1,38
 211 439 211 439 214 457 c 0,39,40
 215 466 215 466 211 470 c 0,41,42
 207 475 207 475 198 473 c 0,43,44
 181 469 181 469 150 454 c 128,-1,45
 119 439 119 439 93 434 c 0,46,47
 74 430 74 430 58.5 436 c 128,-1,48
 43 442 43 442 41 457 c 0,49,50
 38 473 38 473 49 485 c 128,-1,51
 60 497 60 497 79 499 c 0,52,53
 104 502 104 502 140.5 497 c 128,-1,54
 177 492 177 492 195 494 c 1,55,56
 204 497 204 497 206 502 c 0,57,58
 209 508 209 508 204 516 c 0,59,60
 195 531 195 531 171.5 556.5 c 128,-1,61
 148 582 148 582 135 604 c 0,62,63
 113 644 113 644 141 660 c 1,64,65
 173 676 173 676 192 637 c 1,66,67
 202 614 202 614 208.5 578 c 128,-1,68
 215 542 215 542 223 525 c 0,69,70
 228 515 228 515 233 514 c 0,71,72
 239 513 239 513 246 520 c 0,73,74
 258 533 258 533 274 563.5 c 128,-1,75
 290 594 290 594 307 613 c 0,0,1
EndSplineSet
Validated: 33
EndChar

StartChar: plus
Encoding: 43 43 14
Width: 582
VWidth: 0
GlyphClass: 2
Flags: W
LayerCount: 2
Fore
SplineSet
319 215 m 2,0,-1
 319 23 l 2,1,2
 319 13 319 13 274 7 c 0,3,4
 272 7 272 7 270.5 6.5 c 128,-1,5
 269 6 269 6 268 6 c 0,6,7
 263 6 263 6 263 14 c 2,8,-1
 263 213 l 2,9,10
 263 218 263 218 257 218 c 2,11,-1
 58 218 l 2,12,13
 52 218 52 218 52 228 c 0,14,15
 52 242 52 242 60 269 c 0,16,17
 61 272 61 272 62.5 273 c 128,-1,18
 64 274 64 274 66 274 c 2,19,-1
 67 274 l 1,20,-1
 258 274 l 2,21,22
 263 274 263 274 263 280 c 2,23,-1
 263 470 l 1,24,25
 262 475 262 475 268 477 c 0,26,27
 295 485 295 485 309 485 c 1,28,-1
 319 479 l 1,29,-1
 319 279 l 2,30,31
 319 274 319 274 323 274 c 2,32,-1
 523 274 l 2,33,34
 531 274 531 274 531 269 c 0,35,36
 531 261 531 261 521 224 c 0,37,38
 520 221 520 221 518.5 219.5 c 128,-1,39
 517 218 517 218 516 218 c 2,40,-1
 514 218 l 1,41,-1
 323 218 l 2,42,43
 319 218 319 218 319 215 c 2,0,-1
EndSplineSet
Validated: 1
EndChar

StartChar: comma
Encoding: 44 44 15
Width: 239
VWidth: 0
GlyphClass: 2
Flags: W
LayerCount: 2
Fore
SplineSet
118 -14 m 0,0,1
 118 4 118 4 103 35 c 128,-1,2
 88 66 88 66 88 76 c 0,3,4
 88 98 88 98 110 113.5 c 128,-1,5
 132 129 132 129 160 129 c 0,6,7
 173 129 173 129 184 125 c 1,8,9
 197 106 197 106 197 61 c 0,10,11
 197 42 197 42 195 35 c 0,12,13
 181 -30 181 -30 156 -70.5 c 128,-1,14
 131 -111 131 -111 68 -163 c 1,15,-1
 67 -163 l 2,16,17
 63 -163 63 -163 53.5 -155 c 128,-1,18
 44 -147 44 -147 44 -141 c 0,19,20
 44 -139 44 -139 55.5 -128.5 c 128,-1,21
 67 -118 67 -118 81 -104 c 128,-1,22
 95 -90 95 -90 106.5 -65 c 128,-1,23
 118 -40 118 -40 118 -14 c 0,0,1
EndSplineSet
Validated: 1
EndChar

StartChar: hyphen
Encoding: 45 45 16
Width: 375
VWidth: 0
GlyphClass: 2
Flags: W
LayerCount: 2
Fore
SplineSet
58 210 m 0,0,1
 58 261 58 261 70 261 c 2,2,-1
 71 261 l 1,3,-1
 312 273 l 1,4,-1
 313 273 l 2,5,6
 319 273 319 273 319 264 c 0,7,8
 319 242 319 242 315.5 228.5 c 128,-1,9
 312 215 312 215 309 212 c 2,10,-1
 306 210 l 1,11,-1
 65 199 l 2,12,13
 62 199 62 199 60 202 c 128,-1,14
 58 205 58 205 58 210 c 0,0,1
EndSplineSet
Validated: 1
EndChar

StartChar: period
Encoding: 46 46 17
Width: 233
VWidth: 0
GlyphClass: 2
Flags: W
LayerCount: 2
Fore
SplineSet
76.5 85.5 m 128,-1,1
 94 102 94 102 118 102 c 128,-1,2
 142 102 142 102 158.5 85.5 c 128,-1,3
 175 69 175 69 175 45 c 128,-1,4
 175 21 175 21 158.5 3.5 c 128,-1,5
 142 -14 142 -14 118 -14 c 128,-1,6
 94 -14 94 -14 76.5 3.5 c 128,-1,7
 59 21 59 21 59 45 c 128,-1,0
 59 69 59 69 76.5 85.5 c 128,-1,1
EndSplineSet
Validated: 1
EndChar

StartChar: slash
Encoding: 47 47 18
Width: 424
VWidth: 0
GlyphClass: 2
Flags: W
LayerCount: 2
Fore
SplineSet
391 755 m 1,0,-1
 95 -12 l 2,1,2
 93 -19 93 -19 79.5 -27 c 128,-1,3
 66 -35 66 -35 43 -35 c 0,4,5
 36 -35 36 -35 31.5 -33.5 c 128,-1,6
 27 -32 27 -32 26 -30 c 2,7,-1
 25 -28 l 1,8,-1
 321 739 l 1,9,10
 331 761 331 761 370 761 c 0,11,12
 379 761 379 761 391 755 c 1,0,-1
EndSplineSet
Validated: 1
EndChar

StartChar: zero
Encoding: 48 48 19
Width: 484
VWidth: 0
GlyphClass: 2
Flags: W
LayerCount: 2
Fore
SplineSet
112 320 m 0,0,1
 112 200 112 200 147 117.5 c 128,-1,2
 182 35 182 35 237 35 c 0,3,4
 301 35 301 35 336.5 118 c 128,-1,5
 372 201 372 201 372 325 c 0,6,7
 372 444 372 444 337 523.5 c 128,-1,8
 302 603 302 603 247 603 c 0,9,10
 186 603 186 603 149 522 c 128,-1,11
 112 441 112 441 112 320 c 0,0,1
24 319 m 0,12,13
 24 455 24 455 83 548 c 128,-1,14
 142 641 142 641 242 641 c 0,15,16
 343 641 343 641 401.5 548.5 c 128,-1,17
 460 456 460 456 460 319 c 0,18,19
 460 183 460 183 401 90 c 128,-1,20
 342 -3 342 -3 242 -3 c 0,21,22
 143 -3 143 -3 83.5 90.5 c 128,-1,23
 24 184 24 184 24 319 c 0,12,13
EndSplineSet
Validated: 1
EndChar

StartChar: one
Encoding: 49 49 20
Width: 484
VWidth: 0
GlyphClass: 2
Flags: W
LayerCount: 2
Fore
SplineSet
131 496 m 1,0,1
 125 499 125 499 119 507.5 c 128,-1,2
 113 516 113 516 113 521 c 0,3,4
 113 525 113 525 115 527 c 0,5,6
 284 642 284 642 288 642 c 2,7,-1
 290 642 l 2,8,9
 298 642 298 642 302 623 c 1,10,11
 292 590 292 590 292 529 c 2,12,-1
 292 135 l 2,13,14
 292 77 292 77 300 46 c 0,15,16
 302 39 302 39 329.5 32.5 c 128,-1,17
 357 26 357 26 367 26 c 0,18,19
 371 26 371 26 371 8 c 0,20,21
 371 -1 371 -1 370 -3 c 1,22,23
 270 2 270 2 249 2 c 0,24,25
 233 2 233 2 133 -3 c 1,26,27
 129 1 129 1 129 13.5 c 128,-1,28
 129 26 129 26 133 26 c 0,29,30
 146 26 146 26 173.5 32.5 c 128,-1,31
 201 39 201 39 203 46 c 0,32,33
 209 70 209 70 209 103 c 2,34,-1
 209 463 l 2,35,36
 209 492 209 492 207 507 c 128,-1,37
 205 522 205 522 202.5 525.5 c 128,-1,38
 200 529 200 529 195 529 c 0,39,40
 189 529 189 529 177.5 523 c 128,-1,41
 166 517 166 517 131 496 c 1,0,1
EndSplineSet
Validated: 1
EndChar

StartChar: two
Encoding: 50 50 21
Width: 484
VWidth: 0
GlyphClass: 2
Flags: W
LayerCount: 2
Fore
SplineSet
256 642 m 0,0,1
 323 642 323 642 361.5 592 c 128,-1,2
 400 542 400 542 400 479 c 0,3,4
 400 442 400 442 387.5 402.5 c 128,-1,5
 375 363 375 363 348.5 322 c 128,-1,6
 322 281 322 281 300.5 250.5 c 128,-1,7
 279 220 279 220 241 180 c 128,-1,8
 203 140 203 140 188.5 125 c 128,-1,9
 174 110 174 110 142 79 c 1,10,11
 139 74 139 74 144 72 c 1,12,-1
 337 72 l 2,13,14
 365 72 365 72 377.5 88 c 128,-1,15
 390 104 390 104 403 149 c 0,16,17
 407 160 407 160 417 160 c 0,18,19
 430 160 430 160 435 156 c 1,20,21
 411 36 411 36 408 16 c 0,22,23
 406 0 406 0 388 0 c 2,24,-1
 60 0 l 2,25,26
 56 0 56 0 52.5 11.5 c 128,-1,27
 49 23 49 23 49 30 c 1,28,29
 158 140 158 140 236 258.5 c 128,-1,30
 314 377 314 377 314 459 c 0,31,32
 314 513 314 513 287 542.5 c 128,-1,33
 260 572 260 572 216 572 c 0,34,35
 133 572 133 572 83 489 c 1,36,37
 77 489 77 489 70.5 495.5 c 128,-1,38
 64 502 64 502 64 505 c 0,39,40
 67 517 67 517 80.5 537.5 c 128,-1,41
 94 558 94 558 116.5 582.5 c 128,-1,42
 139 607 139 607 176.5 624.5 c 128,-1,43
 214 642 214 642 256 642 c 0,0,1
EndSplineSet
Validated: 1
EndChar

StartChar: three
Encoding: 51 51 22
Width: 485
VWidth: 0
GlyphClass: 2
Flags: W
LayerCount: 2
Fore
SplineSet
250 642 m 0,0,1
 293 642 293 642 332.5 606.5 c 128,-1,2
 372 571 372 571 372 514 c 0,3,4
 372 470 372 470 350.5 439.5 c 128,-1,5
 329 409 329 409 289 379 c 1,6,7
 342 360 342 360 385.5 316 c 128,-1,8
 429 272 429 272 429 206 c 0,9,10
 429 111 429 111 362 53 c 128,-1,11
 295 -5 295 -5 196 -5 c 0,12,13
 111 -5 111 -5 66 25 c 0,14,15
 56 32 56 32 56 54 c 0,16,17
 56 101 56 101 93 101 c 0,18,19
 102 101 102 101 111.5 93.5 c 128,-1,20
 121 86 121 86 132.5 74 c 128,-1,21
 144 62 144 62 152 56 c 0,22,23
 181 35 181 35 228 35 c 0,24,25
 272 35 272 35 307.5 69.5 c 128,-1,26
 343 104 343 104 343 180 c 0,27,28
 343 239 343 239 305 280 c 128,-1,29
 267 321 267 321 216 321 c 0,30,31
 179 321 179 321 151 314 c 1,32,33
 144 323 144 323 144 340 c 0,34,35
 144 347 144 347 146 350 c 1,36,37
 215 362 215 362 256 398 c 128,-1,38
 297 434 297 434 297 496 c 0,39,40
 297 530 297 530 270.5 556.5 c 128,-1,41
 244 583 244 583 210 583 c 0,42,43
 188 583 188 583 169.5 575.5 c 128,-1,44
 151 568 151 568 141.5 560 c 128,-1,45
 132 552 132 552 123 542.5 c 128,-1,46
 114 533 114 533 113 532 c 1,47,48
 109 532 109 532 105 541.5 c 128,-1,49
 101 551 101 551 101 558 c 1,50,51
 128 598 128 598 162 620 c 128,-1,52
 196 642 196 642 250 642 c 0,0,1
EndSplineSet
Validated: 1
EndChar

StartChar: four
Encoding: 52 52 23
Width: 482
VWidth: 0
GlyphClass: 2
Flags: W
LayerCount: 2
Fore
SplineSet
359 645 m 0,0,1
 372 645 372 645 372 635 c 2,2,-1
 372 232 l 1,3,-1
 434 232 l 2,4,5
 450 232 450 232 450 184 c 0,6,7
 450 178 450 178 444 174 c 1,8,-1
 372 174 l 1,9,-1
 372 -1 l 1,10,11
 369 -6 369 -6 330 -6 c 0,12,13
 293 -6 293 -6 293 2 c 2,14,-1
 293 174 l 1,15,-1
 40 174 l 1,16,17
 33 183 33 183 33 205 c 1,18,-1
 336 633 l 2,19,20
 345 645 345 645 359 645 c 0,0,1
293 232 m 1,21,-1
 293 498 l 2,22,23
 293 507 293 507 288 507 c 1,24,25
 288 506 288 506 287 505 c 2,26,-1
 105 244 l 2,27,28
 104 243 104 243 104 241 c 0,29,30
 104 232 104 232 111 232 c 2,31,-1
 293 232 l 1,21,-1
EndSplineSet
Validated: 1
EndChar

StartChar: five
Encoding: 53 53 24
Width: 485
VWidth: 0
GlyphClass: 2
Flags: W
LayerCount: 2
Fore
SplineSet
139 623 m 1,0,1
 336 629 336 629 374 637 c 1,2,3
 379 630 379 630 379 616 c 0,4,5
 379 591 379 591 373 561 c 1,6,7
 347 553 347 553 260 550 c 2,8,-1
 173 546 l 2,9,10
 168 545 168 545 166 538 c 0,11,12
 155 483 155 483 137 378 c 1,13,14
 170 391 170 391 231 391 c 0,15,16
 311 391 311 391 369.5 336 c 128,-1,17
 428 281 428 281 428 206 c 0,18,19
 428 114 428 114 363.5 54.5 c 128,-1,20
 299 -5 299 -5 201 -5 c 0,21,22
 112 -5 112 -5 67 25 c 0,23,24
 57 32 57 32 57 54 c 0,25,26
 57 101 57 101 94 101 c 0,27,28
 103 101 103 101 112.5 93.5 c 128,-1,29
 122 86 122 86 133.5 74 c 128,-1,30
 145 62 145 62 153 56 c 0,31,32
 182 35 182 35 233 35 c 0,33,34
 275 35 275 35 308.5 70.5 c 128,-1,35
 342 106 342 106 342 180 c 0,36,37
 342 206 342 206 335 229 c 128,-1,38
 328 252 328 252 312.5 274.5 c 128,-1,39
 297 297 297 297 267 310 c 128,-1,40
 237 323 237 323 196 323 c 0,41,42
 144 323 144 323 109 312 c 1,43,44
 101 316 101 316 91 326 c 1,45,-1
 139 623 l 1,0,1
EndSplineSet
Validated: 1
EndChar

StartChar: six
Encoding: 54 54 25
Width: 484
VWidth: 0
GlyphClass: 2
Flags: W
LayerCount: 2
Fore
SplineSet
130 210 m 1,0,1
 130 140 130 140 163.5 86.5 c 128,-1,2
 197 33 197 33 247 33 c 0,3,4
 291 33 291 33 324 71.5 c 128,-1,5
 357 110 357 110 357 174 c 0,6,7
 357 242 357 242 324.5 286 c 128,-1,8
 292 330 292 330 229 330 c 0,9,10
 202 330 202 330 177 315.5 c 128,-1,11
 152 301 152 301 145 285 c 0,12,13
 131 253 131 253 130 210 c 1,0,1
235 -6 m 0,14,15
 152 -6 152 -6 98 58.5 c 128,-1,16
 44 123 44 123 44 208 c 0,17,18
 44 286 44 286 75 358 c 128,-1,19
 106 430 106 430 158.5 484.5 c 128,-1,20
 211 539 211 539 271.5 579.5 c 128,-1,21
 332 620 332 620 400 647 c 1,22,23
 406 647 406 647 414.5 636 c 128,-1,24
 423 625 423 625 423 620 c 1,25,26
 322 576 322 576 251.5 513.5 c 128,-1,27
 181 451 181 451 154 352 c 0,28,29
 152 342 152 342 155 342 c 1,30,31
 157 343 157 343 158 344 c 0,32,33
 172 355 172 355 208.5 368 c 128,-1,34
 245 381 245 381 275 381 c 0,35,36
 345 381 345 381 392.5 322.5 c 128,-1,37
 440 264 440 264 440 195 c 0,38,39
 440 112 440 112 378 53 c 128,-1,40
 316 -6 316 -6 235 -6 c 0,14,15
EndSplineSet
Validated: 1
EndChar

StartChar: seven
Encoding: 55 55 26
Width: 483
VWidth: 0
GlyphClass: 2
Flags: W
LayerCount: 2
Fore
SplineSet
133 553 m 2,0,1
 116 553 116 553 102.5 539 c 128,-1,2
 89 525 89 525 83 511 c 128,-1,3
 77 497 77 497 70 474 c 0,4,5
 69 470 69 470 56 469 c 128,-1,6
 43 468 43 468 36 471 c 1,7,8
 38 480 38 480 50.5 537.5 c 128,-1,9
 63 595 63 595 67 621 c 0,10,11
 68 633 68 633 83 633 c 2,12,-1
 372 633 l 2,13,14
 388 633 388 633 413 634.5 c 128,-1,15
 438 636 438 636 439 636 c 0,16,17
 446 636 446 636 446 627 c 0,18,19
 446 621 446 621 442 611.5 c 2,20,-1
 417 560 l 1,21,-1
 154 -3 l 1,22,23
 151 -6 151 -6 143 -6 c 0,24,25
 132 -6 132 -6 120 4.5 c 128,-1,26
 108 15 108 15 108 22 c 1,27,-1
 374 553 l 1,28,-1
 133 553 l 2,0,1
EndSplineSet
Validated: 1
EndChar

StartChar: eight
Encoding: 56 56 27
Width: 484
VWidth: 0
GlyphClass: 2
Flags: W
LayerCount: 2
Fore
SplineSet
241 27 m 0,0,1
 291 27 291 27 320 57 c 128,-1,2
 349 87 349 87 349 138 c 0,3,4
 349 167 349 167 332 195.5 c 128,-1,5
 315 224 315 224 289 246 c 128,-1,6
 263 268 263 268 248.5 278 c 128,-1,7
 234 288 234 288 221 295 c 0,8,9
 217 297 217 297 215 297 c 0,10,11
 212 297 212 297 211 296 c 0,12,13
 169 270 169 270 150.5 237.5 c 128,-1,14
 132 205 132 205 132 157 c 0,15,16
 132 99 132 99 165 63 c 128,-1,17
 198 27 198 27 241 27 c 0,0,1
241 608 m 0,18,19
 204 608 204 608 179.5 576 c 128,-1,20
 155 544 155 544 155 492 c 0,21,22
 155 424 155 424 259 364 c 0,23,24
 263 362 263 362 265 362 c 0,25,26
 268 362 268 362 271 364 c 0,27,28
 339 409 339 409 339 486 c 0,29,30
 339 533 339 533 311.5 570.5 c 128,-1,31
 284 608 284 608 241 608 c 0,18,19
247 643 m 0,32,33
 316 643 316 643 363.5 601.5 c 128,-1,34
 411 560 411 560 411 491 c 0,35,36
 411 415 411 415 299 344 c 1,37,38
 292 342 292 342 299 338 c 0,39,40
 351 308 351 308 390.5 262.5 c 128,-1,41
 430 217 430 217 430 167 c 0,42,43
 430 93 430 93 372.5 42 c 128,-1,44
 315 -9 315 -9 239 -9 c 0,45,46
 156 -9 156 -9 104.5 36 c 128,-1,47
 53 81 53 81 53 154 c 0,48,49
 53 167 53 167 56 179.5 c 128,-1,50
 59 192 59 192 62.5 202 c 128,-1,51
 66 212 66 212 74 223.5 c 128,-1,52
 82 235 82 235 87.5 242.5 c 128,-1,53
 93 250 93 250 104 260 c 128,-1,54
 115 270 115 270 120 274.5 c 128,-1,55
 125 279 125 279 138 288 c 128,-1,56
 151 297 151 297 154.5 299.5 c 128,-1,57
 158 302 158 302 170 310 c 2,58,-1
 183 318 l 2,59,60
 188 321 188 321 183 324 c 0,61,62
 144 347 144 347 112.5 388.5 c 128,-1,63
 81 430 81 430 81 480 c 0,64,65
 81 544 81 544 131 593.5 c 128,-1,66
 181 643 181 643 247 643 c 0,32,33
EndSplineSet
Validated: 1
EndChar

StartChar: nine
Encoding: 57 57 28
Width: 484
VWidth: 0
GlyphClass: 2
Flags: W
LayerCount: 2
Fore
SplineSet
353 431 m 1,0,1
 353 502 353 502 319.5 555 c 128,-1,2
 286 608 286 608 233 608 c 0,3,4
 190 608 190 608 159 568 c 128,-1,5
 128 528 128 528 128 463 c 128,-1,6
 128 398 128 398 161 354.5 c 128,-1,7
 194 311 194 311 255 311 c 0,8,9
 282 311 282 311 307 325.5 c 128,-1,10
 332 340 332 340 339 356 c 0,11,12
 352 386 352 386 353 431 c 1,0,1
249 647 m 0,13,14
 331 647 331 647 385 582.5 c 128,-1,15
 439 518 439 518 439 433 c 0,16,17
 439 355 439 355 407 280.5 c 128,-1,18
 375 206 375 206 324.5 150.5 c 128,-1,19
 274 95 274 95 217.5 54.5 c 128,-1,20
 161 14 161 14 105 -6 c 1,21,22
 99 -6 99 -6 91 6 c 128,-1,23
 83 18 83 18 83 23 c 1,24,25
 160 53 160 53 231 121.5 c 128,-1,26
 302 190 302 190 329 289 c 0,27,28
 331 299 331 299 328 299 c 1,29,30
 326 298 326 298 325 297 c 0,31,32
 314 284 314 284 279 273 c 128,-1,33
 244 262 244 262 217 262 c 0,34,35
 145 262 145 262 95 316 c 128,-1,36
 45 370 45 370 45 445 c 0,37,38
 45 528 45 528 106.5 587.5 c 128,-1,39
 168 647 168 647 249 647 c 0,13,14
EndSplineSet
Validated: 1
EndChar

StartChar: colon
Encoding: 58 58 29
Width: 236
VWidth: 0
GlyphClass: 2
Flags: W
LayerCount: 2
Fore
SplineSet
162 328 m 128,-1,1
 145 310 145 310 120 310 c 128,-1,2
 95 310 95 310 77.5 328 c 128,-1,3
 60 346 60 346 60 371 c 128,-1,4
 60 396 60 396 77.5 413 c 128,-1,5
 95 430 95 430 120 430 c 128,-1,6
 145 430 145 430 162 413 c 128,-1,7
 179 396 179 396 179 371 c 128,-1,0
 179 346 179 346 162 328 c 128,-1,1
162 3.5 m 128,-1,9
 145 -14 145 -14 120 -14 c 128,-1,10
 95 -14 95 -14 77.5 3.5 c 128,-1,11
 60 21 60 21 60 46 c 128,-1,12
 60 71 60 71 77.5 88.5 c 128,-1,13
 95 106 95 106 120 106 c 128,-1,14
 145 106 145 106 162 88.5 c 128,-1,15
 179 71 179 71 179 46 c 128,-1,8
 179 21 179 21 162 3.5 c 128,-1,9
EndSplineSet
Validated: 1
EndChar

StartChar: semicolon
Encoding: 59 59 30
Width: 244
VWidth: 0
GlyphClass: 2
Flags: W
LayerCount: 2
Fore
SplineSet
196 39 m 0,0,1
 196 -3 196 -3 186 -33 c 0,2,3
 175 -66 175 -66 149.5 -94 c 128,-1,4
 124 -122 124 -122 73 -165 c 1,5,6
 69 -167 69 -167 66 -167 c 0,7,8
 59 -167 59 -167 52 -156 c 128,-1,9
 45 -145 45 -145 45 -140 c 0,10,11
 45 -138 45 -138 63.5 -123 c 128,-1,12
 82 -108 82 -108 100 -79 c 128,-1,13
 118 -50 118 -50 118 -14 c 0,14,15
 118 15 118 15 104.5 39.5 c 128,-1,16
 91 64 91 64 91 68 c 0,17,18
 91 88 91 88 112.5 106 c 128,-1,19
 134 124 134 124 161 124 c 0,20,21
 170 124 170 124 179 117 c 1,22,23
 196 101 196 101 196 39 c 0,0,1
100 413 m 128,-1,25
 118 430 118 430 143 430 c 128,-1,26
 168 430 168 430 185 413 c 128,-1,27
 202 396 202 396 202 371 c 128,-1,28
 202 346 202 346 185 328 c 128,-1,29
 168 310 168 310 143 310 c 128,-1,30
 118 310 118 310 100 328 c 128,-1,31
 82 346 82 346 82 371 c 128,-1,24
 82 396 82 396 100 413 c 128,-1,25
EndSplineSet
Validated: 1
EndChar

StartChar: less
Encoding: 60 60 31
Width: 535
VWidth: 0
GlyphClass: 2
Flags: W
LayerCount: 2
Fore
SplineSet
475 35 m 0,0,1
 475 28 475 28 469 6.5 c 128,-1,2
 463 -15 463 -15 459 -15 c 0,3,4
 458 -15 458 -15 454 -13 c 2,5,-1
 79 177 l 2,6,7
 61 187 61 187 61 217 c 0,8,9
 61 232 61 232 79 241 c 2,10,-1
 448 428 l 2,11,12
 452 430 452 430 453 430 c 0,13,14
 461 430 461 430 470 383 c 1,15,-1
 467 374 l 1,16,-1
 141 209 l 1,17,-1
 472 41 l 2,18,19
 475 40 475 40 475 35 c 0,0,1
EndSplineSet
Validated: 1
EndChar

StartChar: equal
Encoding: 61 61 32
Width: 571
VWidth: 0
GlyphClass: 2
Flags: W
LayerCount: 2
Fore
SplineSet
520 168 m 0,0,1
 520 160 520 160 510 123 c 0,2,3
 509 120 509 120 507.5 118.5 c 128,-1,4
 506 117 506 117 505 117 c 2,5,-1
 504 117 l 1,6,-1
 59 117 l 2,7,8
 52 117 52 117 52 127 c 128,-1,9
 52 137 52 137 61 168 c 0,10,11
 62 171 62 171 63.5 172 c 128,-1,12
 65 173 65 173 66 173 c 2,13,-1
 68 173 l 1,14,-1
 512 173 l 2,15,16
 520 173 520 173 520 168 c 0,0,1
52 269 m 1,17,18
 57 315 57 315 67 315 c 2,19,-1
 516 315 l 2,20,21
 520 315 520 315 520 310 c 0,22,23
 520 302 520 302 510 265 c 0,24,25
 509 262 509 262 507.5 260.5 c 128,-1,26
 506 259 506 259 505 259 c 2,27,-1
 504 259 l 1,28,-1
 59 259 l 2,29,30
 52 259 52 259 52 269 c 1,17,18
EndSplineSet
Validated: 1
EndChar

StartChar: greater
Encoding: 62 62 33
Width: 535
VWidth: 0
GlyphClass: 2
Flags: W
LayerCount: 2
Fore
SplineSet
67 382 m 0,0,1
 67 395 67 395 73.5 412.5 c 128,-1,2
 80 430 80 430 83 430 c 0,3,4
 84 430 84 430 88 428 c 2,5,-1
 458 241 l 2,6,7
 475 232 475 232 475 217 c 0,8,9
 475 186 475 186 458 177 c 2,10,-1
 83 -13 l 2,11,12
 79 -15 79 -15 78 -15 c 0,13,14
 74 -15 74 -15 67.5 6.5 c 128,-1,15
 61 28 61 28 61 35 c 1,16,-1
 64 41 l 1,17,-1
 395 209 l 1,18,-1
 70 374 l 2,19,20
 67 375 67 375 67 382 c 0,0,1
EndSplineSet
Validated: 1
EndChar

StartChar: question
Encoding: 63 63 34
Width: 366
VWidth: 0
GlyphClass: 2
Flags: W
LayerCount: 2
Fore
SplineSet
112 558 m 0,0,1
 96 558 96 558 80.5 567 c 128,-1,2
 65 576 65 576 65 598 c 0,3,4
 65 621 65 621 72 632 c 1,5,6
 92 642 92 642 122 642 c 0,7,8
 182 642 182 642 250.5 589 c 128,-1,9
 319 536 319 536 319 457 c 0,10,11
 319 405 319 405 296.5 370.5 c 128,-1,12
 274 336 274 336 218 304 c 0,13,14
 197 292 197 292 170.5 271 c 128,-1,15
 144 250 144 250 140 242 c 0,16,17
 130 224 130 224 130 173 c 0,18,19
 130 160 130 160 110 160 c 0,20,21
 97 160 97 160 97 168 c 0,22,23
 97 181 97 181 96.5 214.5 c 128,-1,24
 96 248 96 248 96 262 c 0,25,26
 96 274 96 274 97.5 284.5 c 128,-1,27
 99 295 99 295 103 304.5 c 128,-1,28
 107 314 107 314 109.5 321 c 128,-1,29
 112 328 112 328 120 336 c 128,-1,30
 128 344 128 344 130.5 348 c 128,-1,31
 133 352 133 352 143.5 359 c 128,-1,32
 154 366 154 366 156 368 c 128,-1,33
 158 370 158 370 169.5 377.5 c 128,-1,34
 181 385 181 385 182 385 c 0,35,36
 207 401 207 401 217.5 408 c 128,-1,37
 228 415 228 415 243 427.5 c 128,-1,38
 258 440 258 440 263.5 451.5 c 128,-1,39
 269 463 269 463 269 476 c 0,40,41
 269 519 269 519 244.5 542 c 128,-1,42
 220 565 220 565 188 565 c 0,43,44
 158 565 158 565 140 561.5 c 128,-1,45
 122 558 122 558 112 558 c 0,0,1
76 85.5 m 128,-1,47
 93 102 93 102 117 102 c 128,-1,48
 141 102 141 102 158 85.5 c 128,-1,49
 175 69 175 69 175 45 c 128,-1,50
 175 21 175 21 158 3.5 c 128,-1,51
 141 -14 141 -14 117 -14 c 128,-1,52
 93 -14 93 -14 76 3.5 c 128,-1,53
 59 21 59 21 59 45 c 128,-1,46
 59 69 59 69 76 85.5 c 128,-1,47
EndSplineSet
Validated: 1
EndChar

StartChar: at
Encoding: 64 64 35
Width: 819
VWidth: 0
GlyphClass: 2
Flags: W
LayerCount: 2
Fore
SplineSet
730 214 m 0,0,1
 730 343 730 343 650.5 435.5 c 128,-1,2
 571 528 571 528 446 528 c 0,3,4
 308 528 308 528 209.5 440.5 c 128,-1,5
 111 353 111 353 111 223 c 0,6,7
 111 66 111 66 200 -30 c 128,-1,8
 289 -126 289 -126 469 -126 c 0,9,10
 477 -126 477 -126 486.5 -124 c 128,-1,11
 496 -122 496 -122 505 -118.5 c 128,-1,12
 514 -115 514 -115 521.5 -112 c 128,-1,13
 529 -109 529 -109 534 -106 c 1,14,-1
 540 -104 l 1,15,16
 542 -113 542 -113 542 -114 c 0,17,18
 542 -134 542 -134 507.5 -152.5 c 128,-1,19
 473 -171 473 -171 414 -171 c 0,20,21
 336 -171 336 -171 267 -138 c 128,-1,22
 198 -105 198 -105 151.5 -53.5 c 128,-1,23
 105 -2 105 -2 78.5 61 c 128,-1,24
 52 124 52 124 52 185 c 0,25,26
 52 365 52 365 168 471 c 128,-1,27
 284 577 284 577 457 577 c 0,28,29
 529 577 529 577 591 545.5 c 128,-1,30
 653 514 653 514 693.5 464 c 128,-1,31
 734 414 734 414 756.5 353.5 c 128,-1,32
 779 293 779 293 779 233 c 0,33,34
 779 164 779 164 762 113.5 c 128,-1,35
 745 63 745 63 717 37 c 128,-1,36
 689 11 689 11 659 -1 c 128,-1,37
 629 -13 629 -13 597 -13 c 0,38,39
 549 -13 549 -13 517 22 c 128,-1,40
 485 57 485 57 485 92 c 0,41,42
 485 93 485 93 483 92 c 128,-1,43
 481 91 481 91 480 90 c 0,44,45
 464 63 464 63 417 28 c 128,-1,46
 370 -7 370 -7 335 -7 c 0,47,48
 283 -7 283 -7 254.5 38.5 c 128,-1,49
 226 84 226 84 226 141 c 0,50,51
 226 248 226 248 300 329 c 128,-1,52
 374 410 374 410 501 410 c 1,53,-1
 590 401 l 1,54,-1
 583 348 l 1,55,-1
 558 125 l 2,56,57
 556 105 556 105 556 97 c 0,58,59
 556 27 556 27 606 27 c 0,60,61
 641 27 641 27 667 48 c 128,-1,62
 693 69 693 69 706 101 c 128,-1,63
 719 133 719 133 724.5 161.5 c 128,-1,64
 730 190 730 190 730 214 c 0,0,1
506 334 m 0,65,66
 506 342 506 342 504 346.5 c 128,-1,67
 502 351 502 351 490 355 c 128,-1,68
 478 359 478 359 455 359 c 0,69,70
 391 359 391 359 347.5 301.5 c 128,-1,71
 304 244 304 244 304 143 c 0,72,73
 304 96 304 96 322 74.5 c 128,-1,74
 340 53 340 53 363 53 c 0,75,76
 402 53 402 53 445 99.5 c 128,-1,77
 488 146 488 146 490 170 c 2,78,-1
 505 322 l 2,79,80
 506 328 506 328 506 334 c 0,65,66
EndSplineSet
Validated: 1
EndChar

StartChar: A
Encoding: 65 65 36
Width: 684
VWidth: 0
GlyphClass: 2
Flags: W
LayerCount: 2
Fore
SplineSet
365 660 m 1,0,-1
 565 132 l 2,1,2
 583 85 583 85 594 60 c 0,3,4
 600 45 600 45 625 35.5 c 128,-1,5
 650 26 650 26 662 26 c 0,6,7
 666 26 666 26 666 7 c 0,8,9
 666 3 666 3 664 -3 c 1,10,11
 564 2 564 2 554 2 c 0,12,13
 553 2 553 2 438 -3 c 1,14,15
 434 1 434 1 434.5 13.5 c 128,-1,16
 435 26 435 26 439 26 c 0,17,18
 451 26 451 26 469 31 c 128,-1,19
 487 36 487 36 490 44 c 0,20,21
 492 52 492 52 492 60 c 0,22,23
 492 73 492 73 488.5 90.5 c 128,-1,24
 485 108 485 108 482 118 c 2,25,-1
 478 129 l 1,26,-1
 437 242 l 1,27,28
 434 246 434 246 431 246 c 0,29,30
 392 249 392 249 355 249 c 0,31,32
 303 249 303 249 228 244 c 1,33,-1
 223 241 l 1,34,-1
 180 131 l 1,35,36
 163 81 163 81 163 62 c 0,37,38
 163 48 163 48 171 42 c 0,39,40
 180 35 180 35 200 30.5 c 128,-1,41
 220 26 220 26 229 26 c 0,42,43
 232 26 232 26 232.5 14 c 128,-1,44
 233 2 233 2 231 -3 c 1,45,46
 131 2 131 2 128 2 c 0,47,48
 108 2 108 2 93 1 c 128,-1,49
 78 0 78 0 59.5 -1 c 128,-1,50
 41 -2 41 -2 24 -3 c 1,51,52
 20 1 20 1 20 12 c 0,53,54
 20 26 20 26 24 26 c 0,55,56
 36 26 36 26 55 31 c 128,-1,57
 74 36 74 36 81 45 c 0,58,59
 102 72 102 72 128 139 c 2,60,-1
 302 586 l 2,61,62
 304 591 304 591 307.5 602 c 128,-1,63
 311 613 311 613 313 618.5 c 128,-1,64
 315 624 315 624 319 632.5 c 128,-1,65
 323 641 323 641 326 645 c 128,-1,66
 329 649 329 649 333.5 654 c 128,-1,67
 338 659 338 659 343.5 661 c 128,-1,68
 349 663 349 663 356 663 c 1,69,-1
 365 660 l 1,0,-1
249 299 m 0,70,71
 301 297 301 297 320 297 c 0,72,73
 364 297 364 297 411 300 c 1,74,-1
 414 305 l 1,75,-1
 333 526 l 1,76,-1
 247 303 l 1,77,78
 247 299 247 299 249 299 c 0,70,71
EndSplineSet
Validated: 1
EndChar

StartChar: B
Encoding: 66 66 37
Width: 592
VWidth: 0
GlyphClass: 2
Flags: W
LayerCount: 2
Fore
SplineSet
457 176 m 0,0,1
 457 240 457 240 414 285.5 c 128,-1,2
 371 331 371 331 279 331 c 0,3,4
 257 331 257 331 207 327 c 1,5,6
 203 315 203 315 203 294 c 2,7,-1
 203 148 l 2,8,9
 203 72 203 72 219 59 c 1,10,11
 234 45 234 45 273 45 c 0,12,13
 298 45 298 45 322.5 49 c 128,-1,14
 347 53 347 53 381 64.5 c 128,-1,15
 415 76 415 76 436 104.5 c 128,-1,16
 457 133 457 133 457 176 c 0,0,1
116 143 m 2,17,-1
 116 521 l 2,18,19
 116 580 116 580 109 607 c 0,20,21
 106 615 106 615 79.5 622 c 128,-1,22
 53 629 53 629 40 629 c 0,23,24
 36 629 36 629 36 641 c 0,25,26
 36 654 36 654 40 658 c 1,27,28
 92 656 92 656 159 656 c 0,29,30
 210 656 210 656 242.5 656.5 c 128,-1,31
 275 657 275 657 300 657 c 0,32,33
 326 657 326 657 353 652.5 c 128,-1,34
 380 648 380 648 408.5 636 c 128,-1,35
 437 624 437 624 459 606 c 128,-1,36
 481 588 481 588 495 558.5 c 128,-1,37
 509 529 509 529 509 493 c 128,-1,38
 509 457 509 457 486 426 c 128,-1,39
 463 395 463 395 443.5 383 c 128,-1,40
 424 371 424 371 410 366 c 0,41,42
 402 363 402 363 405 360 c 1,43,44
 444 353 444 353 498 303.5 c 128,-1,45
 552 254 552 254 552 187 c 0,46,47
 552 101 552 101 482.5 50.5 c 128,-1,48
 413 0 413 0 298 0 c 2,49,-1
 161 0 l 1,50,-1
 40 -3 l 1,51,52
 37 0 37 0 37 13 c 128,-1,53
 37 26 37 26 40 26 c 0,54,55
 53 26 53 26 78.5 33 c 128,-1,56
 104 40 104 40 109 49 c 0,57,58
 116 61 116 61 116 143 c 2,17,-1
325 376 m 0,59,60
 366 380 366 380 393.5 404.5 c 128,-1,61
 421 429 421 429 421 470 c 0,62,63
 421 539 421 539 386.5 577.5 c 128,-1,64
 352 616 352 616 284 616 c 0,65,66
 238 616 238 616 213 609 c 0,67,68
 207 608 207 608 207 600 c 2,69,-1
 203 499 l 1,70,-1
 203 380 l 2,71,72
 203 373 203 373 269 373 c 0,73,74
 301 373 301 373 325 376 c 0,59,60
EndSplineSet
Validated: 1
EndChar

StartChar: C
Encoding: 67 67 38
Width: 656
VWidth: 0
GlyphClass: 2
Flags: W
LayerCount: 2
Fore
SplineSet
634 183 m 1,0,1
 634 172 634 172 620 106.5 c 128,-1,2
 606 41 606 41 600 38 c 0,3,4
 527 -6 527 -6 361 -6 c 0,5,6
 229 -6 229 -6 136.5 91 c 128,-1,7
 44 188 44 188 44 322 c 0,8,9
 44 464 44 464 139 565.5 c 128,-1,10
 234 667 234 667 372 667 c 0,11,12
 490 667 490 667 615 642 c 1,13,14
 613 508 613 508 613 498 c 0,15,16
 613 483 613 483 592 483 c 0,17,18
 582 483 582 483 579 488 c 1,19,20
 576 501 576 501 571.5 514.5 c 128,-1,21
 567 528 567 528 552.5 549.5 c 128,-1,22
 538 571 538 571 517.5 586.5 c 128,-1,23
 497 602 497 602 459.5 613.5 c 128,-1,24
 422 625 422 625 375 625 c 0,25,26
 277 625 277 625 208 538.5 c 128,-1,27
 139 452 139 452 139 343 c 0,28,29
 139 262 139 262 167 194 c 128,-1,30
 195 126 195 126 255.5 81.5 c 128,-1,31
 316 37 316 37 399 37 c 0,32,33
 498 37 498 37 552 95 c 0,34,35
 566 110 566 110 576.5 134.5 c 128,-1,36
 587 159 587 159 592.5 175.5 c 128,-1,37
 598 192 598 192 601 192 c 0,38,39
 607 192 607 192 615.5 190 c 128,-1,40
 624 188 624 188 629 186 c 2,41,-1
 634 183 l 1,0,1
EndSplineSet
Validated: 1
EndChar

StartChar: D
Encoding: 68 68 39
Width: 722
VWidth: 0
GlyphClass: 2
Flags: W
LayerCount: 2
Fore
SplineSet
157 656 m 0,0,1
 195 656 195 656 253.5 657 c 128,-1,2
 312 658 312 658 331 658 c 0,3,4
 494 658 494 658 585 562 c 128,-1,5
 676 466 676 466 676 336 c 0,6,7
 676 191 676 191 584 94 c 128,-1,8
 492 -3 492 -3 330 -3 c 0,9,10
 318 -3 318 -3 258.5 -1 c 128,-1,11
 199 1 199 1 159 0 c 2,12,-1
 38 -3 l 1,13,14
 35 0 35 0 35 12 c 0,15,16
 35 26 35 26 38 26 c 0,17,18
 51 26 51 26 76.5 33 c 128,-1,19
 102 40 102 40 107 49 c 0,20,21
 114 61 114 61 114 143 c 2,22,-1
 114 521 l 2,23,24
 114 580 114 580 107 607 c 0,25,26
 104 615 104 615 77.5 622 c 128,-1,27
 51 629 51 629 38 629 c 0,28,29
 34 629 34 629 34 641 c 0,30,31
 34 654 34 654 38 658 c 1,32,33
 90 656 90 656 157 656 c 0,0,1
201 535 m 2,34,-1
 201 139 l 2,35,36
 201 97 201 97 216 63 c 0,37,38
 220 53 220 53 269.5 48 c 128,-1,39
 319 43 319 43 346 43 c 0,40,41
 576 43 576 43 576 340 c 0,42,43
 576 454 576 454 515.5 534 c 128,-1,44
 455 614 455 614 339 614 c 2,45,-1
 334 614 l 2,46,47
 226 614 226 614 214 598 c 0,48,49
 201 580 201 580 201 535 c 2,34,-1
EndSplineSet
Validated: 33
EndChar

StartChar: E
Encoding: 69 69 40
Width: 571
VWidth: 0
GlyphClass: 2
Flags: W
LayerCount: 2
Fore
SplineSet
152 656 m 0,0,1
 197 656 197 656 308 660 c 128,-1,2
 419 664 419 664 475 664 c 1,3,4
 479 635 479 635 490.5 587.5 c 128,-1,5
 502 540 502 540 504 528 c 1,6,7
 499 523 499 523 486 523 c 128,-1,8
 473 523 473 523 472 530 c 0,9,10
 457 585 457 585 430 600.5 c 128,-1,11
 403 616 403 616 356 616 c 2,12,-1
 289 616 l 2,13,14
 203 616 203 616 201 603 c 0,15,16
 196 579 196 579 196 519 c 2,17,-1
 196 359 l 2,18,19
 196 353 196 353 239 353 c 2,20,-1
 292 353 l 2,21,22
 345 353 345 353 359 357 c 128,-1,23
 373 361 373 361 377 362 c 128,-1,24
 381 363 381 363 387.5 375 c 128,-1,25
 394 387 394 387 395 392.5 c 128,-1,26
 396 398 396 398 402 421 c 0,27,28
 403 428 403 428 417 428 c 0,29,30
 429 428 429 428 434 423 c 1,31,-1
 434 234 l 1,32,33
 430 230 430 230 418 230 c 0,34,35
 405 230 405 230 402 238 c 0,36,37
 395 265 395 265 390 278.5 c 128,-1,38
 385 292 385 292 382.5 294.5 c 128,-1,39
 380 297 380 297 374 301 c 0,40,41
 361 309 361 309 268 309 c 0,42,43
 196 309 196 309 196 300 c 2,44,-1
 196 145 l 2,45,46
 196 80 196 80 205 54 c 0,47,48
 208 44 208 44 273 44 c 2,49,-1
 321 44 l 2,50,51
 414 44 414 44 447 61 c 0,52,53
 462 69 462 69 480.5 96.5 c 128,-1,54
 499 124 499 124 510 162 c 0,55,56
 512 168 512 168 524 168 c 0,57,58
 543 168 543 168 549 162 c 1,59,60
 544 149 544 149 533.5 120.5 c 128,-1,61
 523 92 523 92 517 74.5 c 128,-1,62
 511 57 511 57 504 34 c 128,-1,63
 497 11 497 11 495 -4 c 1,64,65
 444 -4 444 -4 334 -2 c 128,-1,66
 224 0 224 0 154 0 c 1,67,-1
 33 -3 l 1,68,69
 30 0 30 0 30 13 c 128,-1,70
 30 26 30 26 33 26 c 0,71,72
 46 26 46 26 71.5 33 c 128,-1,73
 97 40 97 40 102 49 c 0,74,75
 109 61 109 61 109 143 c 2,76,-1
 109 521 l 2,77,78
 109 580 109 580 102 607 c 0,79,80
 99 615 99 615 72.5 622 c 128,-1,81
 46 629 46 629 33 629 c 0,82,83
 29 629 29 629 29 641 c 0,84,85
 29 654 29 654 33 658 c 1,86,87
 85 656 85 656 152 656 c 0,0,1
EndSplineSet
Validated: 1
EndChar

StartChar: F
Encoding: 70 70 41
Width: 551
VWidth: 0
GlyphClass: 2
Flags: W
LayerCount: 2
Fore
SplineSet
163 656 m 0,0,1
 208 656 208 656 319 660 c 128,-1,2
 430 664 430 664 486 664 c 1,3,4
 490 635 490 635 501.5 587.5 c 128,-1,5
 513 540 513 540 515 528 c 1,6,7
 510 523 510 523 497 523 c 128,-1,8
 484 523 484 523 483 530 c 0,9,10
 468 585 468 585 441 600.5 c 128,-1,11
 414 616 414 616 367 616 c 2,12,-1
 300 616 l 2,13,14
 214 616 214 616 212 603 c 0,15,16
 207 579 207 579 207 519 c 2,17,-1
 207 356 l 2,18,19
 207 350 207 350 249 350 c 2,20,-1
 302 350 l 2,21,22
 369 350 369 350 384 359.5 c 128,-1,23
 399 369 399 369 410 414 c 0,24,25
 411 420 411 420 412 423 c 0,26,27
 413 430 413 430 427 430 c 0,28,29
 439 430 439 430 444 425 c 1,30,-1
 444 231 l 1,31,32
 440 227 440 227 428 227 c 0,33,34
 415 227 415 227 412 235 c 0,35,36
 405 262 405 262 400 275.5 c 128,-1,37
 395 289 395 289 392.5 291.5 c 128,-1,38
 390 294 390 294 384 298 c 0,39,40
 371 306 371 306 278 306 c 0,41,42
 207 306 207 306 207 297 c 2,43,-1
 207 139 l 2,44,45
 207 81 207 81 216 46 c 0,46,47
 218 39 218 39 244 32.5 c 128,-1,48
 270 26 270 26 280 26 c 0,49,50
 284 26 284 26 284 11 c 0,51,52
 284 3 284 3 282 -3 c 1,53,54
 182 2 182 2 166 2 c 0,55,56
 161 2 161 2 46 -3 c 1,57,58
 42 1 42 1 42 12 c 0,59,60
 42 26 42 26 46 26 c 0,61,62
 59 26 59 26 84.5 32 c 128,-1,63
 110 38 110 38 113 46 c 0,64,65
 120 73 120 73 120 136 c 2,66,-1
 120 521 l 2,67,68
 120 580 120 580 113 607 c 0,69,70
 110 615 110 615 83.5 622 c 128,-1,71
 57 629 57 629 44 629 c 0,72,73
 40 629 40 629 40 641 c 0,74,75
 40 654 40 654 44 658 c 1,76,77
 96 656 96 656 163 656 c 0,0,1
EndSplineSet
Validated: 1
EndChar

StartChar: G
Encoding: 71 71 42
Width: 715
VWidth: 0
GlyphClass: 2
Flags: W
LayerCount: 2
Fore
SplineSet
44 322 m 0,0,1
 44 464 44 464 139 565.5 c 128,-1,2
 234 667 234 667 372 667 c 0,3,4
 443 667 443 667 609 622 c 1,5,6
 613 508 613 508 613 498 c 0,7,8
 613 483 613 483 592 483 c 0,9,10
 582 483 582 483 579 488 c 1,11,12
 552 625 552 625 375 625 c 0,13,14
 275 625 275 625 208 540 c 128,-1,15
 141 455 141 455 141 335 c 0,16,17
 141 224 141 224 214.5 130.5 c 128,-1,18
 288 37 288 37 399 37 c 0,19,20
 487 37 487 37 529 59 c 0,21,22
 536 62 536 62 536 74 c 2,23,-1
 535 156 l 1,24,-1
 535 163 l 2,25,26
 535 228 535 228 527 249 c 0,27,28
 523 259 523 259 494.5 265 c 128,-1,29
 466 271 466 271 450 271 c 0,30,31
 446 271 446 271 446 283.5 c 128,-1,32
 446 296 446 296 450 300 c 1,33,34
 578 295 578 295 581 295 c 0,35,36
 589 295 589 295 689 300 c 1,37,38
 691 294 691 294 691 286 c 0,39,40
 691 271 691 271 687 271 c 0,41,42
 681 271 681 271 659.5 264.5 c 128,-1,43
 638 258 638 258 629 253 c 1,44,45
 619 246 619 246 619 186 c 0,46,47
 619 165 619 165 620.5 140.5 c 128,-1,48
 622 116 622 116 622 114 c 0,49,50
 622 96 622 96 629 79 c 128,-1,51
 636 62 636 62 636 59 c 0,52,53
 636 51 636 51 611 41 c 0,54,55
 609 40 609 40 591.5 33.5 c 128,-1,56
 574 27 574 27 569 25 c 128,-1,57
 564 23 564 23 546.5 17.5 c 128,-1,58
 529 12 529 12 518.5 10 c 128,-1,59
 508 8 508 8 488.5 4 c 128,-1,60
 469 0 469 0 451.5 -1.5 c 128,-1,61
 434 -3 434 -3 410.5 -4.5 c 128,-1,62
 387 -6 387 -6 361 -6 c 0,63,64
 229 -6 229 -6 136.5 91 c 128,-1,65
 44 188 44 188 44 322 c 0,0,1
EndSplineSet
Validated: 1
EndChar

StartChar: H
Encoding: 72 72 43
Width: 707
VWidth: 0
GlyphClass: 2
Flags: W
LayerCount: 2
Fore
SplineSet
507 135 m 2,0,-1
 507 311 l 1,1,-1
 505 315 l 1,2,3
 411 317 411 317 357 317 c 0,4,5
 203 317 203 317 203 312 c 2,6,-1
 203 139 l 2,7,8
 203 81 203 81 212 46 c 0,9,10
 214 39 214 39 240 32.5 c 128,-1,11
 266 26 266 26 276 26 c 0,12,13
 279 26 279 26 279.5 14 c 128,-1,14
 280 2 280 2 278 -3 c 1,15,16
 178 2 178 2 162 2 c 0,17,18
 157 2 157 2 42 -3 c 1,19,20
 38 1 38 1 38 12 c 0,21,22
 38 26 38 26 42 26 c 0,23,24
 55 26 55 26 80.5 32 c 128,-1,25
 106 38 106 38 109 46 c 0,26,27
 116 73 116 73 116 135 c 2,28,-1
 116 523 l 2,29,30
 116 585 116 585 109 612 c 0,31,32
 106 620 106 620 80.5 626.5 c 128,-1,33
 55 633 55 633 42 633 c 0,34,35
 38 633 38 633 38 646 c 0,36,37
 38 658 38 658 42 662 c 1,38,39
 55 661 55 661 95 658.5 c 128,-1,40
 135 656 135 656 162 656 c 0,41,42
 182 656 182 656 201 657 c 128,-1,43
 220 658 220 658 242 659.5 c 128,-1,44
 264 661 264 661 278 662 c 1,45,46
 280 658 280 658 279.5 645.5 c 128,-1,47
 279 633 279 633 276 633 c 0,48,49
 266 633 266 633 240 626 c 128,-1,50
 214 619 214 619 212 612 c 0,51,52
 203 577 203 577 203 519 c 2,53,-1
 203 370 l 1,54,-1
 205 367 l 1,55,56
 303 365 303 365 357 365 c 0,57,58
 415 365 415 365 505 367 c 1,59,60
 507 369 507 369 507 371 c 2,61,-1
 507 523 l 2,62,63
 507 585 507 585 500 612 c 0,64,65
 497 620 497 620 471.5 626.5 c 128,-1,66
 446 633 446 633 433 633 c 0,67,68
 429 633 429 633 429 645.5 c 128,-1,69
 429 658 429 658 433 662 c 1,70,71
 445 661 445 661 486 658.5 c 128,-1,72
 527 656 527 656 554 656 c 0,73,74
 573 656 573 656 592 657 c 128,-1,75
 611 658 611 658 632.5 659.5 c 128,-1,76
 654 661 654 661 668 662 c 1,77,78
 670 656 670 656 670 647 c 0,79,80
 670 633 670 633 666 633 c 0,81,82
 656 633 656 633 630 626 c 128,-1,83
 604 619 604 619 602 612 c 0,84,85
 594 581 594 581 594 519 c 2,86,-1
 594 139 l 2,87,88
 594 77 594 77 602 46 c 0,89,90
 604 39 604 39 630 32.5 c 128,-1,91
 656 26 656 26 666 26 c 0,92,93
 670 26 670 26 670 11 c 0,94,95
 670 3 670 3 668 -3 c 1,96,97
 568 2 568 2 554 2 c 0,98,99
 548 2 548 2 433 -3 c 1,100,101
 429 1 429 1 429 13.5 c 128,-1,102
 429 26 429 26 433 26 c 0,103,104
 446 26 446 26 471.5 32 c 128,-1,105
 497 38 497 38 500 46 c 0,106,107
 507 73 507 73 507 135 c 2,0,-1
EndSplineSet
Validated: 1
EndChar

StartChar: I
Encoding: 73 73 44
Width: 318
VWidth: 0
GlyphClass: 2
Flags: W
LayerCount: 2
Fore
SplineSet
116 523 m 2,0,1
 116 585 116 585 109 612 c 0,2,3
 106 620 106 620 80.5 626.5 c 128,-1,4
 55 633 55 633 42 633 c 0,5,6
 38 633 38 633 38 646 c 0,7,8
 38 658 38 658 42 662 c 1,9,10
 157 657 157 657 162 657 c 0,11,12
 178 657 178 657 278 662 c 1,13,14
 280 656 280 656 280 647 c 0,15,16
 280 633 280 633 276 633 c 0,17,18
 266 633 266 633 240 626 c 128,-1,19
 214 619 214 619 212 612 c 0,20,21
 203 577 203 577 203 519 c 2,22,-1
 203 139 l 2,23,24
 203 81 203 81 212 46 c 0,25,26
 214 39 214 39 240 32.5 c 128,-1,27
 266 26 266 26 276 26 c 0,28,29
 280 26 280 26 280 11 c 0,30,31
 280 3 280 3 278 -3 c 1,32,33
 178 2 178 2 162 2 c 0,34,35
 157 2 157 2 42 -3 c 1,36,37
 38 1 38 1 38 12 c 0,38,39
 38 26 38 26 42 26 c 0,40,41
 55 26 55 26 80.5 32 c 128,-1,42
 106 38 106 38 109 46 c 0,43,44
 116 73 116 73 116 135 c 2,45,-1
 116 523 l 2,0,1
EndSplineSet
Validated: 1
EndChar

StartChar: J
Encoding: 74 74 45
Width: 322
VWidth: 0
GlyphClass: 2
Flags: W
LayerCount: 2
Fore
SplineSet
178 656 m 0,0,1
 198 656 198 656 217 657 c 128,-1,2
 236 658 236 658 258 659.5 c 128,-1,3
 280 661 280 661 294 662 c 1,4,5
 296 656 296 656 296 647 c 0,6,7
 296 633 296 633 292 633 c 0,8,9
 282 633 282 633 256 626 c 128,-1,10
 230 619 230 619 228 612 c 0,11,12
 219 577 219 577 219 519 c 2,13,-1
 219 85 l 2,14,15
 219 -41 219 -41 148.5 -134 c 128,-1,16
 78 -227 78 -227 -31 -227 c 0,17,18
 -42 -227 -42 -227 -55 -223 c 128,-1,19
 -68 -219 -68 -219 -76 -215 c 2,20,-1
 -83 -211 l 1,21,22
 -95 -197 -95 -197 -95 -174 c 0,23,24
 -95 -152 -95 -152 -76.5 -138 c 128,-1,25
 -58 -124 -58 -124 -33 -124 c 0,26,27
 -15 -124 -15 -124 7.5 -145.5 c 128,-1,28
 30 -167 30 -167 43 -167 c 0,29,30
 57 -167 57 -167 71.5 -153 c 128,-1,31
 86 -139 86 -139 100 -112 c 128,-1,32
 114 -85 114 -85 123 -35.5 c 128,-1,33
 132 14 132 14 132 77 c 2,34,-1
 132 523 l 2,35,36
 132 585 132 585 125 612 c 0,37,38
 122 620 122 620 96.5 626.5 c 128,-1,39
 71 633 71 633 58 633 c 0,40,41
 54 633 54 633 54 646 c 0,42,43
 54 658 54 658 58 662 c 1,44,45
 71 661 71 661 111 658.5 c 128,-1,46
 151 656 151 656 178 656 c 0,0,1
EndSplineSet
Validated: 1
EndChar

StartChar: K
Encoding: 75 75 46
Width: 693
VWidth: 0
GlyphClass: 2
Flags: W
LayerCount: 2
Fore
SplineSet
165 656 m 0,0,1
 185 656 185 656 204 657 c 128,-1,2
 223 658 223 658 245 659.5 c 128,-1,3
 267 661 267 661 281 662 c 1,4,5
 283 658 283 658 282.5 645.5 c 128,-1,6
 282 633 282 633 279 633 c 0,7,8
 269 633 269 633 243 626 c 128,-1,9
 217 619 217 619 215 612 c 0,10,11
 206 577 206 577 206 519 c 2,12,-1
 206 356 l 1,13,-1
 213 350 l 1,14,-1
 220 350 l 2,15,16
 252 350 252 350 278 379 c 0,17,18
 395 510 395 510 450 582 c 1,19,20
 474 611 474 611 474 620 c 0,21,22
 474 637 474 637 417 637 c 0,23,24
 413 637 413 637 413 646 c 128,-1,25
 413 655 413 655 415 662 c 1,26,27
 428 661 428 661 449 659.5 c 128,-1,28
 470 658 470 658 488 657 c 128,-1,29
 506 656 506 656 522 656 c 0,30,31
 547 656 547 656 579 658.5 c 128,-1,32
 611 661 611 661 623 662 c 1,33,34
 625 658 625 658 624.5 647.5 c 128,-1,35
 624 637 624 637 621 637 c 0,36,37
 560 630 560 630 529 595 c 2,38,-1
 328 361 l 2,39,40
 320 352 320 352 335 334 c 1,41,-1
 576 69 l 2,42,43
 592 52 592 52 618 41 c 128,-1,44
 644 30 644 30 658.5 28 c 128,-1,45
 673 26 673 26 682 26 c 0,46,47
 687 26 687 26 687 8 c 0,48,49
 687 1 687 1 685 -3 c 1,50,51
 585 2 585 2 561 2 c 0,52,53
 536 2 536 2 516 1 c 128,-1,54
 496 0 496 0 471 -1 c 128,-1,55
 446 -2 446 -2 426 -3 c 1,56,57
 422 1 422 1 422 13.5 c 128,-1,58
 422 26 422 26 426 26 c 0,59,60
 438 26 438 26 453.5 30 c 128,-1,61
 469 34 469 34 469 42 c 0,62,63
 469 74 469 74 242 307 c 0,64,65
 238 311 238 311 213 311 c 0,66,67
 206 311 206 311 206 303 c 2,68,-1
 206 139 l 2,69,70
 206 81 206 81 215 46 c 0,71,72
 217 39 217 39 243 32.5 c 128,-1,73
 269 26 269 26 279 26 c 0,74,75
 282 26 282 26 282.5 14 c 128,-1,76
 283 2 283 2 281 -3 c 1,77,78
 181 2 181 2 165 2 c 0,79,80
 160 2 160 2 45 -3 c 1,81,82
 41 1 41 1 41 12 c 0,83,84
 41 26 41 26 45 26 c 0,85,86
 58 26 58 26 83.5 32 c 128,-1,87
 109 38 109 38 112 46 c 0,88,89
 119 73 119 73 119 135 c 2,90,-1
 119 523 l 2,91,92
 119 585 119 585 112 612 c 0,93,94
 109 620 109 620 83.5 626.5 c 128,-1,95
 58 633 58 633 45 633 c 0,96,97
 41 633 41 633 41 646 c 0,98,99
 41 658 41 658 45 662 c 1,100,101
 58 661 58 661 98 658.5 c 128,-1,102
 138 656 138 656 165 656 c 0,0,1
EndSplineSet
Validated: 1
EndChar

StartChar: L
Encoding: 76 76 47
Width: 568
VWidth: 0
GlyphClass: 2
Flags: W
LayerCount: 2
Fore
SplineSet
161 656 m 0,0,1
 181 656 181 656 200 657 c 128,-1,2
 219 658 219 658 241 659.5 c 128,-1,3
 263 661 263 661 277 662 c 1,4,5
 279 656 279 656 279 647 c 0,6,7
 279 633 279 633 275 633 c 0,8,9
 265 633 265 633 239 626 c 128,-1,10
 213 619 213 619 211 612 c 0,11,12
 202 577 202 577 202 519 c 2,13,-1
 202 142 l 2,14,15
 202 89 202 89 211 54 c 0,16,17
 214 44 214 44 279 44 c 2,18,-1
 327 44 l 2,19,20
 420 44 420 44 453 61 c 0,21,22
 468 69 468 69 486.5 96.5 c 128,-1,23
 505 124 505 124 516 162 c 0,24,25
 518 168 518 168 530 168 c 0,26,27
 549 168 549 168 555 162 c 1,28,29
 550 149 550 149 539.5 120.5 c 128,-1,30
 529 92 529 92 523 74.5 c 128,-1,31
 517 57 517 57 510 34 c 128,-1,32
 503 11 503 11 501 -4 c 1,33,34
 449 -4 449 -4 338.5 -1 c 128,-1,35
 228 2 228 2 160 2 c 1,36,-1
 39 -1 l 1,37,38
 36 2 36 2 36 15 c 128,-1,39
 36 28 36 28 39 28 c 0,40,41
 53 28 53 28 78 34 c 128,-1,42
 103 40 103 40 108 49 c 0,43,44
 115 61 115 61 115 143 c 2,45,-1
 115 521 l 2,46,47
 115 585 115 585 108 612 c 0,48,49
 105 620 105 620 79.5 626.5 c 128,-1,50
 54 633 54 633 41 633 c 0,51,52
 37 633 37 633 37 646 c 0,53,54
 37 658 37 658 41 662 c 1,55,56
 54 661 54 661 94 658.5 c 128,-1,57
 134 656 134 656 161 656 c 0,0,1
EndSplineSet
Validated: 1
EndChar

StartChar: M
Encoding: 77 77 48
Width: 910
VWidth: 0
GlyphClass: 2
Flags: W
LayerCount: 2
Fore
SplineSet
167 657 m 0,0,1
 204 657 204 657 259 662 c 1,2,3
 266 639 266 639 457 161 c 0,4,5
 458 159 458 159 461 159 c 0,6,7
 465 159 465 159 466 163 c 0,8,9
 564 393 564 393 622 542 c 1,10,-1
 662 662 l 1,11,12
 726 658 726 658 745 658 c 0,13,14
 807 658 807 658 857 662 c 1,15,16
 860 653 860 653 860 647 c 0,17,18
 860 633 860 633 855 633 c 2,19,-1
 853 633 l 2,20,21
 842 633 842 633 824 626.5 c 128,-1,22
 806 620 806 620 797 613 c 0,23,24
 785 604 785 604 785 546 c 0,25,26
 785 530 785 530 794 140 c 0,27,28
 795 83 795 83 809 48 c 0,29,30
 813 39 813 39 839 32.5 c 128,-1,31
 865 26 865 26 876 26 c 0,32,33
 880 26 880 26 880 12 c 0,34,35
 880 3 880 3 878 -3 c 1,36,37
 778 2 778 2 759 2 c 0,38,39
 754 2 754 2 639 -3 c 1,40,41
 635 1 635 1 635 13 c 0,42,43
 635 26 635 26 639 26 c 0,44,45
 649 26 649 26 669.5 31 c 128,-1,46
 690 36 690 36 699 41 c 0,47,48
 711 48 711 48 711 84 c 2,49,-1
 711 137 l 1,50,-1
 699 489 l 2,51,52
 698 505 698 505 693.5 526.5 c 128,-1,53
 689 548 689 548 684 548 c 0,54,55
 682 548 682 548 679 541 c 2,56,-1
 470 41 l 2,57,58
 451 -2 451 -2 433 -2 c 0,59,60
 430 -2 430 -2 424 0 c 1,61,-1
 195 582 l 1,62,63
 193 486 193 486 189 362 c 128,-1,64
 185 238 185 238 182 157.5 c 128,-1,65
 179 77 179 77 179 75 c 0,66,67
 179 57 179 57 185 49 c 128,-1,68
 191 41 191 41 221.5 33.5 c 128,-1,69
 252 26 252 26 262 26 c 0,70,71
 266 26 266 26 266 11 c 0,72,73
 266 3 266 3 264 -3 c 1,74,75
 164 2 164 2 148 2 c 0,76,77
 146 2 146 2 31 -3 c 1,78,79
 26 2 26 2 26 12 c 0,80,81
 26 26 26 26 31 26 c 0,82,83
 45 26 45 26 72.5 32.5 c 128,-1,84
 100 39 100 39 109 48 c 0,85,86
 125 66 125 66 127 135 c 0,87,88
 129 239 129 239 131.5 340 c 128,-1,89
 134 441 134 441 136 498.5 c 128,-1,90
 138 556 138 556 138 572 c 0,91,92
 138 597 138 597 134 612 c 0,93,94
 131 620 131 620 100 626.5 c 128,-1,95
 69 633 69 633 55 633 c 0,96,97
 51 633 51 633 51 647 c 0,98,99
 51 658 51 658 55 662 c 1,100,101
 72 661 72 661 92.5 660 c 128,-1,102
 113 659 113 659 130 658 c 128,-1,103
 147 657 147 657 167 657 c 0,0,1
EndSplineSet
Validated: 1
EndChar

StartChar: N
Encoding: 78 78 49
Width: 721
VWidth: 0
GlyphClass: 2
Flags: W
LayerCount: 2
Fore
SplineSet
551 524 m 2,0,1
 551 585 551 585 544 612 c 0,2,3
 541 620 541 620 509.5 627.5 c 128,-1,4
 478 635 478 635 465 635 c 0,5,6
 461 635 461 635 461 646.5 c 128,-1,7
 461 658 461 658 465 662 c 1,8,9
 478 661 478 661 517 658.5 c 128,-1,10
 556 656 556 656 583 656 c 0,11,12
 609 656 609 656 648.5 659 c 128,-1,13
 688 662 688 662 695 662 c 1,14,15
 697 656 697 656 697 647 c 0,16,17
 697 635 697 635 693 635 c 0,18,19
 683 635 683 635 649.5 627 c 128,-1,20
 616 619 616 619 614 612 c 0,21,22
 606 581 606 581 606 519 c 2,23,-1
 606 139 l 2,24,25
 606 77 606 77 609 -1 c 1,26,27
 605 -5 605 -5 590 -5 c 0,28,29
 573 -5 573 -5 557 18 c 2,30,-1
 169 568 l 1,31,-1
 169 141 l 2,32,33
 169 75 169 75 176 48 c 0,34,35
 178 41 178 41 209.5 33.5 c 128,-1,36
 241 26 241 26 251 26 c 0,37,38
 254 26 254 26 254.5 14 c 128,-1,39
 255 2 255 2 253 -3 c 1,40,41
 153 2 153 2 138 2 c 2,42,-1
 23 -3 l 1,43,44
 20 0 20 0 20 12 c 0,45,46
 20 26 20 26 23 26 c 0,47,48
 37 26 37 26 68.5 33.5 c 128,-1,49
 100 41 100 41 103 50 c 0,50,51
 113 76 113 76 113 144 c 2,52,-1
 113 537 l 2,53,54
 113 586 113 586 106 612 c 0,55,56
 103 620 103 620 72 626.5 c 128,-1,57
 41 633 41 633 27 633 c 0,58,59
 23 633 23 633 23 645.5 c 128,-1,60
 23 658 23 658 27 662 c 1,61,62
 105 660 105 660 129 660 c 0,63,64
 181 660 181 660 209 662 c 1,65,66
 246 594 246 594 548 172 c 1,67,68
 551 189 551 189 551 213 c 2,69,-1
 551 524 l 2,0,1
EndSplineSet
Validated: 1
EndChar

StartChar: O
Encoding: 79 79 50
Width: 728
VWidth: 0
GlyphClass: 2
Flags: W
LayerCount: 2
Fore
SplineSet
348 625 m 0,0,1
 253 625 253 625 198 542 c 128,-1,2
 143 459 143 459 143 350 c 0,3,4
 143 270 143 270 169 199 c 128,-1,5
 195 128 195 128 250 80.5 c 128,-1,6
 305 33 305 33 379 33 c 0,7,8
 443 33 443 33 491 74.5 c 128,-1,9
 539 116 539 116 561.5 177.5 c 128,-1,10
 584 239 584 239 584 309 c 0,11,12
 584 389 584 389 558 459.5 c 128,-1,13
 532 530 532 530 477 577.5 c 128,-1,14
 422 625 422 625 348 625 c 0,0,1
137.5 567.5 m 128,-1,16
 231 667 231 667 363 667 c 128,-1,17
 495 667 495 667 589 567.5 c 128,-1,18
 683 468 683 468 683 328 c 128,-1,19
 683 188 683 188 589 89 c 128,-1,20
 495 -10 495 -10 363 -10 c 128,-1,21
 231 -10 231 -10 137.5 89 c 128,-1,22
 44 188 44 188 44 328 c 128,-1,15
 44 468 44 468 137.5 567.5 c 128,-1,16
EndSplineSet
Validated: 1
EndChar

StartChar: P
Encoding: 80 80 51
Width: 545
VWidth: 0
GlyphClass: 2
Flags: W
LayerCount: 2
Fore
SplineSet
164 656 m 2,0,1
 194 656 194 656 235 658 c 128,-1,2
 276 660 276 660 305 660 c 0,3,4
 338 660 338 660 371.5 650 c 128,-1,5
 405 640 405 640 436.5 620 c 128,-1,6
 468 600 468 600 488 563 c 128,-1,7
 508 526 508 526 508 477 c 0,8,9
 508 448 508 448 495.5 414.5 c 128,-1,10
 483 381 483 381 459 349.5 c 128,-1,11
 435 318 435 318 394.5 297.5 c 128,-1,12
 354 277 354 277 304 277 c 0,13,14
 248 277 248 277 227 305 c 0,15,16
 221 312 221 312 224 328 c 0,17,18
 225 332 225 332 227 331 c 0,19,20
 257 320 257 320 294 320 c 0,21,22
 344 320 344 320 380 362 c 128,-1,23
 416 404 416 404 416 462 c 0,24,25
 416 533 416 533 385 574.5 c 128,-1,26
 354 616 354 616 289 616 c 0,27,28
 244 616 244 616 219 609 c 0,29,30
 214 608 214 608 212 601.5 c 128,-1,31
 210 595 210 595 208.5 571 c 128,-1,32
 207 547 207 547 207 499 c 2,33,-1
 207 142 l 2,34,35
 207 75 207 75 215 55 c 0,36,37
 220 42 220 42 250.5 34 c 128,-1,38
 281 26 281 26 294 26 c 0,39,40
 298 26 298 26 298 12 c 0,41,42
 298 3 298 3 296 -3 c 1,43,44
 196 2 196 2 166 2 c 1,45,-1
 44 -3 l 1,46,47
 41 0 41 0 41 15 c 0,48,49
 41 28 41 28 44 28 c 0,50,51
 58 28 58 28 83 34 c 128,-1,52
 108 40 108 40 113 49 c 0,53,54
 120 61 120 61 120 143 c 2,55,-1
 120 521 l 2,56,57
 120 580 120 580 113 607 c 0,58,59
 110 615 110 615 83.5 622 c 128,-1,60
 57 629 57 629 44 629 c 0,61,62
 40 629 40 629 40 641 c 0,63,64
 40 654 40 654 44 658 c 1,65,-1
 164 656 l 2,0,1
EndSplineSet
Validated: 1
EndChar

StartChar: Q
Encoding: 81 81 52
Width: 724
VWidth: 0
GlyphClass: 2
Flags: W
LayerCount: 2
Fore
SplineSet
348 625 m 0,0,1
 253 625 253 625 196 541.5 c 128,-1,2
 139 458 139 458 139 350 c 0,3,4
 139 225 139 225 204 129 c 128,-1,5
 269 33 269 33 379 33 c 0,6,7
 475 33 475 33 531.5 116.5 c 128,-1,8
 588 200 588 200 588 309 c 0,9,10
 588 434 588 434 523 529.5 c 128,-1,11
 458 625 458 625 348 625 c 0,0,1
692 -84 m 0,12,13
 710 -84 710 -84 725 -82 c 128,-1,14
 740 -80 740 -80 749 -78 c 128,-1,15
 758 -76 758 -76 760 -76 c 0,16,17
 772 -76 772 -76 772 -96 c 2,18,-1
 772 -101 l 1,19,20
 706 -136 706 -136 604 -136 c 0,21,22
 556 -136 556 -136 499.5 -110 c 128,-1,23
 443 -84 443 -84 380.5 -48.5 c 128,-1,24
 318 -13 318 -13 277 0 c 0,25,26
 241 11 241 11 203 37 c 128,-1,27
 165 63 165 63 128 103 c 128,-1,28
 91 143 91 143 67.5 202.5 c 128,-1,29
 44 262 44 262 44 328 c 0,30,31
 44 468 44 468 137.5 567.5 c 128,-1,32
 231 667 231 667 363 667 c 128,-1,33
 495 667 495 667 589 567.5 c 128,-1,34
 683 468 683 468 683 328 c 0,35,36
 683 200 683 200 609.5 110 c 128,-1,37
 536 20 536 20 459 5 c 1,38,39
 486 -8 486 -8 533.5 -36 c 128,-1,40
 581 -64 581 -64 613 -74 c 128,-1,41
 645 -84 645 -84 692 -84 c 0,12,13
EndSplineSet
Validated: 1
EndChar

StartChar: R
Encoding: 82 82 53
Width: 660
VWidth: 0
GlyphClass: 2
Flags: W
LayerCount: 2
Fore
SplineSet
287 616 m 0,0,1
 242 616 242 616 217 609 c 0,2,3
 213 608 213 608 210.5 601.5 c 128,-1,4
 208 595 208 595 206.5 571.5 c 128,-1,5
 205 548 205 548 205 499 c 2,6,-1
 205 378 l 2,7,8
 205 349 205 349 292 349 c 2,9,-1
 317 349 l 2,10,11
 352 349 352 349 389.5 384 c 128,-1,12
 427 419 427 419 427 477 c 0,13,14
 427 616 427 616 287 616 c 0,0,1
303 660 m 0,15,16
 337 660 337 660 372 650 c 128,-1,17
 407 640 407 640 441 620 c 128,-1,18
 475 600 475 600 497 563 c 128,-1,19
 519 526 519 526 519 477 c 0,20,21
 519 435 519 435 487.5 389 c 128,-1,22
 456 343 456 343 402 318 c 0,23,24
 392 314 392 314 396 308 c 1,25,26
 446 203 446 203 511 132 c 0,27,28
 607 27 607 27 667 27 c 1,29,30
 670 21 670 21 670 13 c 0,31,32
 670 4 670 4 667 -2 c 1,33,34
 656 -5 656 -5 640 -5 c 0,35,36
 500 -5 500 -5 397 139 c 0,37,38
 381 161 381 161 360.5 191.5 c 128,-1,39
 340 222 340 222 330.5 235.5 c 128,-1,40
 321 249 321 249 308.5 265 c 128,-1,41
 296 281 296 281 286.5 289 c 128,-1,42
 277 297 277 297 266 302 c 0,43,44
 255 306 255 306 229 306 c 0,45,46
 221 306 221 306 217 305.5 c 128,-1,47
 213 305 213 305 209 301 c 128,-1,48
 205 297 205 297 205 289 c 2,49,-1
 205 142 l 2,50,51
 205 75 205 75 213 55 c 0,52,53
 218 42 218 42 248.5 34 c 128,-1,54
 279 26 279 26 292 26 c 0,55,56
 296 26 296 26 296 12 c 0,57,58
 296 3 296 3 294 -3 c 1,59,60
 194 2 194 2 164 2 c 1,61,-1
 42 -3 l 1,62,63
 39 0 39 0 39 15 c 0,64,65
 39 28 39 28 42 28 c 0,66,67
 56 28 56 28 81 34 c 128,-1,68
 106 40 106 40 111 49 c 0,69,70
 118 61 118 61 118 143 c 2,71,-1
 118 521 l 2,72,73
 118 580 118 580 111 607 c 0,74,75
 108 615 108 615 81.5 622 c 128,-1,76
 55 629 55 629 42 629 c 0,77,78
 38 629 38 629 38 641 c 0,79,80
 38 654 38 654 42 658 c 1,81,-1
 162 656 l 2,82,83
 192 656 192 656 233 658 c 128,-1,84
 274 660 274 660 303 660 c 0,15,16
EndSplineSet
Validated: 1
EndChar

StartChar: S
Encoding: 83 83 54
Width: 491
VWidth: 0
GlyphClass: 2
Flags: W
LayerCount: 2
Fore
SplineSet
61 490 m 0,0,1
 61 567 61 567 120 616.5 c 128,-1,2
 179 666 179 666 257 666 c 0,3,4
 279 666 279 666 298.5 663.5 c 128,-1,5
 318 661 318 661 330.5 658 c 128,-1,6
 343 655 343 655 366.5 648.5 c 128,-1,7
 390 642 390 642 408 638 c 1,8,9
 420 585 420 585 420 495 c 0,10,11
 420 488 420 488 410 488 c 0,12,13
 386 488 386 488 384 498 c 0,14,15
 379 542 379 542 341.5 583.5 c 128,-1,16
 304 625 304 625 250 625 c 0,17,18
 190 625 190 625 165.5 595 c 128,-1,19
 141 565 141 565 141 521 c 0,20,21
 141 502 141 502 148 484.5 c 128,-1,22
 155 467 155 467 162 455.5 c 128,-1,23
 169 444 169 444 187.5 429 c 128,-1,24
 206 414 206 414 214.5 408 c 128,-1,25
 223 402 223 402 248.5 386 c 128,-1,26
 274 370 274 370 281 366 c 0,27,28
 286 363 286 363 316 344.5 c 128,-1,29
 346 326 346 326 357 318.5 c 128,-1,30
 368 311 368 311 391.5 291.5 c 128,-1,31
 415 272 415 272 425.5 257 c 128,-1,32
 436 242 436 242 445.5 219.5 c 128,-1,33
 455 197 455 197 455 173 c 0,34,35
 455 93 455 93 392.5 41.5 c 128,-1,36
 330 -10 330 -10 246 -10 c 0,37,38
 222 -10 222 -10 195 -6.5 c 128,-1,39
 168 -3 168 -3 150 0.5 c 128,-1,40
 132 4 132 4 104.5 10.5 c 128,-1,41
 77 17 77 17 66 19 c 1,42,43
 41 142 41 142 41 178 c 0,44,45
 41 184 41 184 57 184 c 0,46,47
 75 184 75 184 82 175 c 1,48,49
 116 31 116 31 248 31 c 0,50,51
 298 31 298 31 333 61 c 128,-1,52
 368 91 368 91 368 146 c 0,53,54
 368 166 368 166 362 183 c 128,-1,55
 356 200 356 200 349.5 211 c 128,-1,56
 343 222 343 222 326.5 234.5 c 128,-1,57
 310 247 310 247 301 253 c 128,-1,58
 292 259 292 259 268 272 c 128,-1,59
 244 285 244 285 235 290 c 0,60,61
 206 307 206 307 194.5 314 c 128,-1,62
 183 321 183 321 156.5 338.5 c 128,-1,63
 130 356 130 356 118 369.5 c 128,-1,64
 106 383 106 383 90 402.5 c 128,-1,65
 74 422 74 422 67.5 444 c 128,-1,66
 61 466 61 466 61 490 c 0,0,1
EndSplineSet
Validated: 1
EndChar

StartChar: T
Encoding: 84 84 55
Width: 669
VWidth: 0
GlyphClass: 2
Flags: W
LayerCount: 2
Fore
SplineSet
555 660 m 0,0,1
 580 660 580 660 624 671 c 1,2,-1
 643 528 l 1,3,4
 636 521 636 521 619 521 c 0,5,6
 610 521 610 521 609 526 c 0,7,8
 595 582 595 582 574.5 598.5 c 128,-1,9
 554 615 554 615 497 615 c 0,10,11
 391 615 391 615 387 600 c 0,12,13
 378 568 378 568 378 500 c 2,14,-1
 378 139 l 2,15,16
 378 81 378 81 387 46 c 0,17,18
 389 39 389 39 415 32.5 c 128,-1,19
 441 26 441 26 451 26 c 0,20,21
 455 26 455 26 455 11 c 0,22,23
 455 3 455 3 453 -3 c 1,24,25
 353 2 353 2 337 2 c 0,26,27
 332 2 332 2 217 -3 c 1,28,29
 213 1 213 1 213 12 c 0,30,31
 213 26 213 26 217 26 c 0,32,33
 230 26 230 26 255.5 32 c 128,-1,34
 281 38 281 38 284 46 c 0,35,36
 291 73 291 73 291 135 c 2,37,-1
 291 497 l 2,38,39
 291 584 291 584 282 600 c 0,40,41
 274 615 274 615 174 615 c 0,42,43
 117 615 117 615 96.5 598.5 c 128,-1,44
 76 582 76 582 62 526 c 0,45,46
 61 521 61 521 52 521 c 0,47,48
 35 521 35 521 28 528 c 1,49,-1
 47 671 l 1,50,51
 91 660 91 660 116 660 c 0,52,53
 154 660 154 660 222.5 658 c 128,-1,54
 291 656 291 656 335 656 c 128,-1,55
 379 656 379 656 448 658 c 128,-1,56
 517 660 517 660 555 660 c 0,0,1
EndSplineSet
Validated: 1
EndChar

StartChar: U
Encoding: 85 85 56
Width: 719
VWidth: 0
GlyphClass: 2
Flags: W
LayerCount: 2
Fore
SplineSet
157 657 m 0,0,1
 173 657 173 657 273 662 c 1,2,3
 275 656 275 656 275 648 c 0,4,5
 275 633 275 633 271 633 c 0,6,7
 261 633 261 633 235 626 c 128,-1,8
 209 619 209 619 207 612 c 0,9,10
 198 577 198 577 198 519 c 2,11,-1
 198 296 l 2,12,13
 198 183 198 183 246 116 c 128,-1,14
 294 49 294 49 382 49 c 0,15,16
 553 49 553 49 553 274 c 2,17,-1
 553 524 l 2,18,19
 553 585 553 585 546 612 c 0,20,21
 543 620 543 620 511.5 627.5 c 128,-1,22
 480 635 480 635 467 635 c 0,23,24
 463 635 463 635 463 646.5 c 128,-1,25
 463 658 463 658 467 662 c 1,26,27
 480 661 480 661 519 658.5 c 128,-1,28
 558 656 558 656 585 656 c 0,29,30
 611 656 611 656 650.5 659 c 128,-1,31
 690 662 690 662 697 662 c 1,32,33
 699 656 699 656 699 647 c 0,34,35
 699 635 699 635 695 635 c 0,36,37
 685 635 685 635 651.5 627 c 128,-1,38
 618 619 618 619 616 612 c 0,39,40
 608 581 608 581 608 519 c 2,41,-1
 608 276 l 2,42,43
 608 121 608 121 543 60.5 c 128,-1,44
 478 0 478 0 358 0 c 0,45,46
 239 0 239 0 175 70 c 128,-1,47
 111 140 111 140 111 296 c 2,48,-1
 111 523 l 2,49,50
 111 585 111 585 104 612 c 0,51,52
 101 620 101 620 75.5 626.5 c 128,-1,53
 50 633 50 633 37 633 c 0,54,55
 33 633 33 633 33 646 c 0,56,57
 33 658 33 658 37 662 c 1,58,59
 152 657 152 657 157 657 c 0,0,1
EndSplineSet
Validated: 1
EndChar

StartChar: V
Encoding: 86 86 57
Width: 709
VWidth: 0
GlyphClass: 2
Flags: W
LayerCount: 2
Fore
SplineSet
136 657 m 0,0,1
 160 657 160 657 260 662 c 1,2,3
 262 658 262 658 261.5 645.5 c 128,-1,4
 261 633 261 633 258 633 c 0,5,6
 251 633 251 633 239 631 c 128,-1,7
 227 629 227 629 213 621 c 128,-1,8
 199 613 199 613 199 600 c 0,9,10
 199 571 199 571 325 263 c 0,11,12
 352 195 352 195 368 157 c 0,13,14
 371 152 371 152 376.5 154.5 c 128,-1,15
 382 157 382 157 384 162 c 2,16,-1
 534 524 l 1,17,18
 553 573 553 573 553 594 c 0,19,20
 553 608 553 608 537 618 c 128,-1,21
 521 628 521 628 506.5 630.5 c 128,-1,22
 492 633 492 633 483 633 c 0,23,24
 479 633 479 633 479 645.5 c 128,-1,25
 479 658 479 658 483 662 c 1,26,27
 576 657 576 657 590 657 c 0,28,29
 591 657 591 657 691 662 c 1,30,31
 693 656 693 656 693 647 c 0,32,33
 693 633 693 633 689 633 c 0,34,35
 644 633 644 633 629 605 c 0,36,37
 606 563 606 563 580 502 c 2,38,-1
 380 24 l 2,39,40
 367 -9 367 -9 345 -9 c 0,41,42
 338 -9 338 -9 335 -3 c 2,43,-1
 130 514 l 1,44,45
 105 580 105 580 85 610 c 0,46,47
 78 621 78 621 56 627 c 128,-1,48
 34 633 34 633 21 633 c 0,49,50
 17 633 17 633 17 646 c 0,51,52
 17 658 17 658 21 662 c 1,53,54
 37 661 37 661 59 660 c 128,-1,55
 81 659 81 659 98.5 658 c 128,-1,56
 116 657 116 657 136 657 c 0,0,1
EndSplineSet
Validated: 1
EndChar

StartChar: W
Encoding: 87 87 58
Width: 1076
VWidth: 0
GlyphClass: 2
Flags: W
LayerCount: 2
Fore
SplineSet
146 657 m 0,0,1
 151 657 151 657 251 662 c 1,2,3
 253 658 253 658 252.5 645.5 c 128,-1,4
 252 633 252 633 249 633 c 0,5,6
 242 633 242 633 232 631.5 c 128,-1,7
 222 630 222 630 210.5 622.5 c 128,-1,8
 199 615 199 615 199 604 c 0,9,10
 199 574 199 574 222 530 c 2,11,-1
 429 120 l 2,12,13
 432 115 432 115 437 117.5 c 128,-1,14
 442 120 442 120 444 125 c 2,15,-1
 527 298 l 1,16,-1
 422 514 l 2,17,18
 393 573 393 573 364 610 c 0,19,20
 356 620 356 620 337 626.5 c 128,-1,21
 318 633 318 633 306 633 c 0,22,23
 302 633 302 633 302 648 c 0,24,25
 302 658 302 658 306 662 c 1,26,27
 421 657 421 657 432 657 c 0,28,29
 436 657 436 657 536 662 c 1,30,31
 538 658 538 658 537.5 645.5 c 128,-1,32
 537 633 537 633 534 633 c 0,33,34
 527 633 527 633 517.5 631.5 c 128,-1,35
 508 630 508 630 496.5 623 c 128,-1,36
 485 616 485 616 485 604 c 0,37,38
 485 578 485 578 508 530 c 2,39,-1
 574 395 l 1,40,-1
 644 542 l 2,41,42
 658 573 658 573 658 600 c 0,43,44
 658 617 658 617 636.5 625 c 128,-1,45
 615 633 615 633 599 633 c 0,46,47
 595 633 595 633 595 645.5 c 128,-1,48
 595 658 595 658 599 662 c 1,49,50
 679 657 679 657 700 657 c 0,51,52
 704 657 704 657 804 662 c 1,53,54
 806 658 806 658 805.5 645.5 c 128,-1,55
 805 633 805 633 802 633 c 0,56,57
 792 633 792 633 767.5 625 c 128,-1,58
 743 617 743 617 733 605 c 0,59,60
 715 583 715 583 675 502 c 2,61,-1
 598 344 l 1,62,-1
 707 120 l 2,63,64
 713 109 713 109 719 125 c 2,65,-1
 898 536 l 2,66,67
 915 577 915 577 915 599 c 0,68,69
 915 616 915 616 894.5 624.5 c 128,-1,70
 874 633 874 633 858 633 c 0,71,72
 854 633 854 633 854 645.5 c 128,-1,73
 854 658 854 658 858 662 c 1,74,75
 938 657 938 657 960 657 c 0,76,77
 983 657 983 657 998 658 c 128,-1,78
 1013 659 1013 659 1029 660 c 128,-1,79
 1045 661 1045 661 1059 662 c 1,80,81
 1061 656 1061 656 1061 647 c 0,82,83
 1061 633 1061 633 1057 633 c 0,84,85
 1047 633 1047 633 1025 625.5 c 128,-1,86
 1003 618 1003 618 992 605 c 0,87,88
 963 571 963 571 934 504 c 2,89,-1
 722 24 l 2,90,91
 707 -8 707 -8 683 -8 c 0,92,93
 677 -8 677 -8 674 -3 c 2,94,-1
 552 247 l 1,95,-1
 444 24 l 2,96,97
 429 -8 429 -8 405 -8 c 0,98,99
 399 -8 399 -8 396 -3 c 2,100,-1
 136 514 l 2,101,102
 107 573 107 573 78 610 c 0,103,104
 70 620 70 620 51 626.5 c 128,-1,105
 32 633 32 633 20 633 c 0,106,107
 16 633 16 633 16 646 c 0,108,109
 16 658 16 658 20 662 c 1,110,111
 135 657 135 657 146 657 c 0,0,1
EndSplineSet
Validated: 1
EndChar

StartChar: X
Encoding: 88 88 59
Width: 688
VWidth: 0
GlyphClass: 2
Flags: W
LayerCount: 2
Fore
SplineSet
176 657 m 0,0,1
 204 657 204 657 304 662 c 1,2,3
 306 658 306 658 305.5 645.5 c 128,-1,4
 305 633 305 633 302 633 c 0,5,6
 284 633 284 633 263 625.5 c 128,-1,7
 242 618 242 618 242 601 c 0,8,9
 242 589 242 589 254 571 c 2,10,-1
 369 396 l 1,11,12
 373 402 373 402 392.5 426.5 c 128,-1,13
 412 451 412 451 420.5 462 c 128,-1,14
 429 473 429 473 446.5 496 c 128,-1,15
 464 519 464 519 472.5 531.5 c 128,-1,16
 481 544 481 544 491.5 560 c 128,-1,17
 502 576 502 576 506.5 586 c 128,-1,18
 511 596 511 596 511 602 c 0,19,20
 511 613 511 613 490.5 623 c 128,-1,21
 470 633 470 633 441 633 c 0,22,23
 437 633 437 633 437 645.5 c 128,-1,24
 437 658 437 658 441 662 c 1,25,26
 534 657 534 657 568 657 c 0,27,28
 580 657 580 657 680 662 c 1,29,30
 682 658 682 658 681.5 645.5 c 128,-1,31
 681 633 681 633 678 633 c 0,32,33
 664 633 664 633 628 625 c 128,-1,34
 592 617 592 617 582 604 c 2,35,-1
 394 358 l 1,36,-1
 586 66 l 2,37,38
 599 46 599 46 627.5 36 c 128,-1,39
 656 26 656 26 684 26 c 0,40,41
 689 26 689 26 689 10 c 0,42,43
 689 1 689 1 687 -3 c 1,44,45
 587 2 587 2 582 2 c 0,46,47
 576 2 576 2 436 -3 c 1,48,49
 432 1 432 1 432 13.5 c 128,-1,50
 432 26 432 26 436 26 c 0,51,52
 450 26 450 26 472 34 c 128,-1,53
 494 42 494 42 494 54 c 0,54,55
 494 58 494 58 489 66 c 2,56,-1
 339 295 l 1,57,58
 175 75 175 75 175 55 c 0,59,60
 175 51 175 51 179.5 45 c 128,-1,61
 184 39 184 39 201 32.5 c 128,-1,62
 218 26 218 26 243 26 c 0,63,64
 247 26 247 26 247 10 c 0,65,66
 247 0 247 0 245 -3 c 1,67,68
 152 2 152 2 132 2 c 0,69,70
 109 2 109 2 9 -3 c 1,71,72
 7 3 7 3 7 10 c 0,73,74
 7 26 7 26 11 26 c 0,75,76
 19 26 19 26 32.5 27.5 c 128,-1,77
 46 29 46 29 67 36 c 128,-1,78
 88 43 88 43 99 54 c 1,79,-1
 313 334 l 1,80,-1
 173 548 l 2,81,82
 142 597 142 597 107 617 c 0,83,84
 80 633 80 633 51 633 c 0,85,86
 47 633 47 633 47 645.5 c 128,-1,87
 47 658 47 658 51 662 c 1,88,89
 174 657 174 657 176 657 c 0,0,1
EndSplineSet
Validated: 1
EndChar

StartChar: Y
Encoding: 89 89 60
Width: 649
VWidth: 0
GlyphClass: 2
Flags: W
LayerCount: 2
Fore
SplineSet
139 656 m 0,0,1
 151 656 151 656 271 662 c 1,2,3
 273 658 273 658 272.5 646.5 c 128,-1,4
 272 635 272 635 269 635 c 0,5,6
 252 635 252 635 230.5 626.5 c 128,-1,7
 209 618 209 618 209 601 c 0,8,9
 209 590 209 590 220 571 c 2,10,-1
 332 359 l 1,11,12
 337 354 337 354 342 361 c 0,13,14
 478 567 478 567 478 602 c 0,15,16
 478 613 478 613 458 624 c 128,-1,17
 438 635 438 635 409 635 c 0,18,19
 405 635 405 635 405 646.5 c 128,-1,20
 405 658 405 658 409 662 c 1,21,22
 520 656 520 656 527 656 c 0,23,24
 558 656 558 656 591 659 c 128,-1,25
 624 662 624 662 633 662 c 1,26,27
 635 656 635 656 635 647 c 0,28,29
 635 635 635 635 631 635 c 0,30,31
 619 635 619 635 589 626 c 128,-1,32
 559 617 559 617 549 604 c 1,33,34
 511 545 511 545 438.5 425 c 128,-1,35
 366 305 366 305 366 291 c 2,36,-1
 366 139 l 2,37,38
 366 77 366 77 374 46 c 0,39,40
 376 39 376 39 401 31.5 c 128,-1,41
 426 24 426 24 435 24 c 0,42,43
 439 24 439 24 439 11 c 0,44,45
 439 3 439 3 437 -3 c 1,46,47
 337 2 337 2 325 2 c 0,48,49
 322 2 322 2 207 -3 c 1,50,51
 203 1 203 1 203 11 c 0,52,53
 203 24 203 24 207 24 c 0,54,55
 219 24 219 24 243.5 31 c 128,-1,56
 268 38 268 38 271 46 c 0,57,58
 279 77 279 77 279 142 c 2,59,-1
 279 267 l 2,60,61
 279 281 279 281 257.5 322.5 c 128,-1,62
 236 364 236 364 133 549 c 0,63,64
 117 579 117 579 108.5 590.5 c 128,-1,65
 100 602 100 602 84 613 c 0,66,67
 73 621 73 621 51 628 c 128,-1,68
 29 635 29 635 19 635 c 0,69,70
 15 635 15 635 15 646 c 0,71,72
 15 658 15 658 19 662 c 1,73,74
 35 661 35 661 73 658.5 c 128,-1,75
 111 656 111 656 139 656 c 0,0,1
EndSplineSet
Validated: 1
EndChar

StartChar: Z
Encoding: 90 90 61
Width: 600
VWidth: 0
GlyphClass: 2
Flags: W
LayerCount: 2
Fore
SplineSet
214 656 m 2,0,-1
 323 656 l 2,1,2
 393 656 393 656 533 666 c 1,3,4
 536 665 536 665 539.5 653 c 128,-1,5
 543 641 543 641 543 633 c 1,6,-1
 169 76 l 2,7,8
 162 66 162 66 162 61 c 0,9,10
 162 51 162 51 176 51 c 2,11,-1
 402 51 l 2,12,13
 438 51 438 51 464 61.5 c 128,-1,14
 490 72 490 72 506.5 94 c 128,-1,15
 523 116 523 116 530.5 130.5 c 128,-1,16
 538 145 538 145 548 172 c 0,17,18
 550 175 550 175 562 175 c 0,19,20
 577 175 577 175 586 166 c 1,21,22
 554 62 554 62 542 0 c 1,23,-1
 46 0 l 1,24,25
 38 9 38 9 38 26 c 0,26,27
 38 38 38 38 42 43 c 2,28,-1
 425 608 l 1,29,-1
 213 608 l 2,30,31
 147 608 147 608 118.5 580.5 c 128,-1,32
 90 553 90 553 71 484 c 0,33,34
 70 480 70 480 61 480 c 0,35,36
 38 480 38 480 29 489 c 1,37,38
 56 613 56 613 62 665 c 1,39,40
 72 662 72 662 134.5 659 c 128,-1,41
 197 656 197 656 214 656 c 2,0,-1
EndSplineSet
Validated: 1
EndChar

StartChar: bracketleft
Encoding: 91 91 62
Width: 361
VWidth: 0
GlyphClass: 2
Flags: W
LayerCount: 2
Fore
SplineSet
140 740 m 0,0,1
 176 740 176 740 212 742 c 128,-1,2
 248 744 248 744 271.5 746.5 c 128,-1,3
 295 749 295 749 300 749 c 0,4,5
 306 749 306 749 306 737 c 0,6,7
 306 715 306 715 288 706 c 1,8,9
 241 695 241 695 187 695 c 0,10,11
 184 695 184 695 182.5 693 c 128,-1,12
 181 691 181 691 180 689 c 1,13,-1
 180 687 l 1,14,-1
 180 -49 l 1,15,16
 181 -57 181 -57 187 -57 c 0,17,18
 239 -57 239 -57 289 -74 c 0,19,20
 301 -78 301 -78 301 -96 c 0,21,22
 301 -101 301 -101 299.5 -105.5 c 128,-1,23
 298 -110 298 -110 296 -112 c 2,24,-1
 295 -114 l 1,25,26
 222 -102 222 -102 140 -102 c 0,27,28
 121 -102 121 -102 121 -79 c 2,29,-1
 121 717 l 2,30,31
 121 740 121 740 140 740 c 0,0,1
EndSplineSet
Validated: 1
EndChar

StartChar: backslash
Encoding: 92 92 63
Width: 430
VWidth: 0
GlyphClass: 2
Flags: W
LayerCount: 2
Fore
SplineSet
396 -7 m 0,0,1
 396 -34 396 -34 373 -39 c 1,2,-1
 349 -37 l 1,3,-1
 36 755 l 1,4,5
 43 761 43 761 57 761 c 0,6,7
 96 761 96 761 106 739 c 1,8,-1
 393 13 l 2,9,10
 396 7 396 7 396 -7 c 0,0,1
EndSplineSet
Validated: 1
EndChar

StartChar: bracketright
Encoding: 93 93 64
Width: 361
VWidth: 0
GlyphClass: 2
Flags: W
LayerCount: 2
Fore
SplineSet
183 -49 m 1,0,-1
 183 687 l 1,1,2
 182 695 182 695 176 695 c 0,3,4
 152 695 152 695 126.5 697.5 c 128,-1,5
 101 700 101 700 88 703 c 2,6,-1
 75 706 l 1,7,-1
 74 707 l 2,8,9
 72 708 72 708 70 709.5 c 128,-1,10
 68 711 68 711 65.5 713.5 c 128,-1,11
 63 716 63 716 61.5 719 c 128,-1,12
 60 722 60 722 58.5 727 c 128,-1,13
 57 732 57 732 57 737 c 0,14,15
 57 749 57 749 62 749 c 2,16,-1
 63 749 l 1,17,18
 141 740 141 740 223 740 c 0,19,20
 241 740 241 740 241 717 c 2,21,-1
 241 -79 l 2,22,23
 241 -102 241 -102 223 -102 c 0,24,25
 187 -102 187 -102 148 -105 c 128,-1,26
 109 -108 109 -108 88 -111 c 2,27,-1
 67 -114 l 1,28,29
 61 -113 61 -113 61 -102 c 0,30,31
 61 -92 61 -92 67 -82 c 1,32,-1
 76 -74 l 1,33,34
 122 -57 122 -57 176 -57 c 0,35,36
 179 -57 179 -57 180.5 -55 c 128,-1,37
 182 -53 182 -53 182 -51 c 2,38,-1
 183 -49 l 1,0,-1
EndSplineSet
Validated: 1
EndChar

StartChar: asciicircum
Encoding: 94 94 65
Width: 445
VWidth: 0
GlyphClass: 2
Flags: W
LayerCount: 2
Fore
SplineSet
362 475 m 0,0,1
 350 475 350 475 303.5 515 c 128,-1,2
 257 555 257 555 222 597 c 1,3,4
 190 556 190 556 143.5 515.5 c 128,-1,5
 97 475 97 475 84 475 c 0,6,7
 80 475 80 475 76.5 481 c 128,-1,8
 73 487 73 487 72 493 c 2,9,-1
 71 499 l 1,10,11
 72 502 72 502 96 524.5 c 128,-1,12
 120 547 120 547 153 588 c 128,-1,13
 186 629 186 629 208 677 c 0,14,15
 214 690 214 690 218 690 c 0,16,17
 227 690 227 690 232.5 684.5 c 128,-1,18
 238 679 238 679 242 669.5 c 128,-1,19
 246 660 246 660 260 637 c 128,-1,20
 274 614 274 614 293 588 c 0,21,22
 303 575 303 575 323 554 c 128,-1,23
 343 533 343 533 358.5 517.5 c 128,-1,24
 374 502 374 502 375 500 c 1,25,26
 375 495 375 495 371 485 c 128,-1,27
 367 475 367 475 362 475 c 0,0,1
EndSplineSet
Validated: 1
EndChar

StartChar: underscore
Encoding: 95 95 66
Width: 468
VWidth: 0
GlyphClass: 2
Flags: W
LayerCount: 2
Fore
SplineSet
0 -33 m 1,0,1
 5 13 5 13 15 13 c 2,2,-1
 464 13 l 2,3,4
 468 13 468 13 468 8 c 0,5,6
 468 0 468 0 458 -37 c 0,7,8
 457 -40 457 -40 455.5 -41.5 c 128,-1,9
 454 -43 454 -43 453 -43 c 2,10,-1
 452 -43 l 1,11,-1
 7 -43 l 2,12,13
 0 -43 0 -43 0 -33 c 1,0,1
EndSplineSet
Validated: 1
EndChar

StartChar: grave
Encoding: 96 96 67
Width: 327
VWidth: 0
GlyphClass: 2
Flags: W
LayerCount: 2
Fore
SplineSet
104 663 m 0,0,1
 104 667 104 667 106.5 671.5 c 128,-1,2
 109 676 109 676 119 681.5 c 128,-1,3
 129 687 129 687 145 687 c 0,4,5
 170 687 170 687 179 678 c 1,6,7
 196 658 196 658 219 625 c 128,-1,8
 242 592 242 592 257 567.5 c 128,-1,9
 272 543 272 543 272 540 c 0,10,11
 272 527 272 527 260 527 c 0,12,13
 247 527 247 527 175.5 582.5 c 128,-1,14
 104 638 104 638 104 663 c 0,0,1
EndSplineSet
Validated: 1
EndChar

StartChar: a
Encoding: 97 97 68
Width: 423
VWidth: 0
GlyphClass: 2
Flags: W
LayerCount: 2
Fore
SplineSet
261 100 m 2,0,-1
 261 203 l 1,1,2
 253 199 253 199 222 189 c 128,-1,3
 191 179 191 179 173.5 171.5 c 128,-1,4
 156 164 156 164 139.5 146.5 c 128,-1,5
 123 129 123 129 123 106 c 0,6,7
 123 79 123 79 140 64.5 c 128,-1,8
 157 50 157 50 184 50 c 128,-1,9
 211 50 211 50 236 66.5 c 128,-1,10
 261 83 261 83 261 100 c 2,0,-1
234 436 m 0,11,12
 289 436 289 436 313 409.5 c 128,-1,13
 337 383 337 383 337 324 c 2,14,-1
 337 93 l 2,15,16
 337 72 337 72 348 58 c 128,-1,17
 359 44 359 44 378 44 c 0,18,19
 392 44 392 44 413 58 c 1,20,21
 417 58 417 58 417 50 c 0,22,23
 417 37 417 37 412 29 c 1,24,25
 371 -6 371 -6 342 -6 c 0,26,27
 319 -6 319 -6 298 13 c 128,-1,28
 277 32 277 32 269 53 c 0,29,30
 268 53 268 53 261.5 46.5 c 128,-1,31
 255 40 255 40 244 31.5 c 128,-1,32
 233 23 233 23 218.5 14 c 128,-1,33
 204 5 204 5 184.5 -1 c 128,-1,34
 165 -7 165 -7 145 -7 c 0,35,36
 99 -7 99 -7 69 17.5 c 128,-1,37
 39 42 39 42 39 91 c 0,38,39
 39 113 39 113 50 132.5 c 128,-1,40
 61 152 61 152 76 164.5 c 128,-1,41
 91 177 91 177 117 190 c 128,-1,42
 143 203 143 203 161.5 209.5 c 128,-1,43
 180 216 180 216 210 226 c 128,-1,44
 240 236 240 236 252 241 c 0,45,46
 261 244 261 244 261 256 c 2,47,-1
 261 331 l 2,48,49
 261 363 261 363 241 380.5 c 128,-1,50
 221 398 221 398 193 398 c 0,51,52
 163 398 163 398 143 377.5 c 128,-1,53
 123 357 123 357 123 324 c 0,54,55
 123 289 123 289 82 289 c 0,56,57
 54 289 54 289 43 308 c 1,58,59
 43 351 43 351 106 393.5 c 128,-1,60
 169 436 169 436 234 436 c 0,11,12
EndSplineSet
Validated: 1
EndChar

StartChar: b
Encoding: 98 98 69
Width: 499
VWidth: 0
GlyphClass: 2
Flags: W
LayerCount: 2
Fore
SplineSet
256 438 m 0,0,1
 352 438 352 438 406.5 372.5 c 128,-1,2
 461 307 461 307 461 233 c 0,3,4
 461 138 461 138 390.5 66 c 128,-1,5
 320 -6 320 -6 235 -6 c 0,6,7
 198 -6 198 -6 164.5 0.5 c 128,-1,8
 131 7 131 7 126 7 c 0,9,10
 117 7 117 7 103.5 1.5 c 128,-1,11
 90 -4 90 -4 88 -4 c 0,12,13
 84 -4 84 -4 75.5 -1 c 128,-1,14
 67 2 67 2 67 6 c 0,15,16
 67 7 67 7 70 22.5 c 128,-1,17
 73 38 73 38 76 68 c 128,-1,18
 79 98 79 98 79 135 c 2,19,-1
 79 549 l 2,20,21
 79 583 79 583 73 613 c 1,22,23
 68 629 68 629 22 629 c 2,24,-1
 13 629 l 2,25,26
 7 629 7 629 7 640 c 0,27,28
 7 656 7 656 13 656 c 0,29,30
 43 659 43 659 68.5 664 c 128,-1,31
 94 669 94 669 108.5 674 c 128,-1,32
 123 679 123 679 133 683.5 c 128,-1,33
 143 688 143 688 148 691 c 2,34,-1
 152 694 l 1,35,-1
 154 694 l 2,36,37
 158 694 158 694 162 688.5 c 128,-1,38
 166 683 166 683 167 678 c 1,39,40
 156 646 156 646 156 591 c 2,41,-1
 156 416 l 2,42,43
 156 405 156 405 159 405 c 0,44,45
 160 405 160 405 162 406 c 0,46,47
 176 416 176 416 205 427 c 128,-1,48
 234 438 234 438 256 438 c 0,0,1
224 389 m 0,49,50
 196 389 196 389 176 373.5 c 128,-1,51
 156 358 156 358 156 329 c 2,52,-1
 156 96 l 2,53,54
 156 65 156 65 185.5 50.5 c 128,-1,55
 215 36 215 36 254 36 c 0,56,57
 311 36 311 36 343 90 c 128,-1,58
 375 144 375 144 375 212 c 0,59,60
 375 291 375 291 333.5 340 c 128,-1,61
 292 389 292 389 224 389 c 0,49,50
EndSplineSet
Validated: 1
EndChar

StartChar: c
Encoding: 99 99 70
Width: 405
VWidth: 0
GlyphClass: 2
Flags: W
LayerCount: 2
Fore
SplineSet
231 436 m 0,0,1
 341 436 341 436 383 385 c 1,2,3
 383 318 383 318 346 318 c 0,4,5
 329 318 329 318 320 325.5 c 128,-1,6
 311 333 311 333 297 353 c 0,7,8
 266 399 266 399 223 399 c 0,9,10
 182 399 182 399 148.5 360 c 128,-1,11
 115 321 115 321 115 244 c 0,12,13
 115 164 115 164 154.5 111 c 128,-1,14
 194 58 194 58 264 58 c 0,15,16
 285 58 285 58 304 62 c 128,-1,17
 323 66 323 66 336.5 71.5 c 128,-1,18
 350 77 350 77 359.5 82.5 c 128,-1,19
 369 88 369 88 376 93 c 2,20,-1
 383 98 l 1,21,22
 389 98 389 98 389 85 c 0,23,24
 389 77 389 77 383 67 c 0,25,26
 363 39 363 39 324 16.5 c 128,-1,27
 285 -6 285 -6 239 -6 c 0,28,29
 156 -6 156 -6 96.5 56.5 c 128,-1,30
 37 119 37 119 37 209 c 0,31,32
 37 301 37 301 87 368.5 c 128,-1,33
 137 436 137 436 231 436 c 0,0,1
EndSplineSet
Validated: 1
EndChar

StartChar: d
Encoding: 100 100 71
Width: 497
VWidth: 0
GlyphClass: 2
Flags: W
LayerCount: 2
Fore
SplineSet
248 398 m 0,0,1
 190 398 190 398 157 346 c 128,-1,2
 124 294 124 294 124 225 c 0,3,4
 124 152 124 152 163 98.5 c 128,-1,5
 202 45 202 45 271 45 c 0,6,7
 305 45 305 45 324 60.5 c 128,-1,8
 343 76 343 76 343 102 c 2,9,-1
 343 340 l 2,10,11
 343 361 343 361 320.5 379.5 c 128,-1,12
 298 398 298 398 248 398 c 0,0,1
261 440 m 0,13,14
 304 440 304 440 336 423 c 1,15,16
 343 423 343 423 343 441 c 2,17,-1
 343 549 l 2,18,19
 343 583 343 583 337 613 c 1,20,21
 332 629 332 629 286 629 c 2,22,-1
 277 629 l 2,23,24
 271 629 271 629 271 640 c 0,25,26
 271 656 271 656 277 656 c 0,27,28
 307 659 307 659 332.5 664 c 128,-1,29
 358 669 358 669 372.5 674 c 128,-1,30
 387 679 387 679 397 683.5 c 128,-1,31
 407 688 407 688 412 691 c 2,32,-1
 416 694 l 1,33,-1
 418 694 l 2,34,35
 422 694 422 694 426 688.5 c 128,-1,36
 430 683 430 683 431 678 c 1,37,38
 420 646 420 646 420 591 c 2,39,-1
 420 141 l 2,40,41
 420 93 420 93 426 65 c 0,42,43
 428 58 428 58 437 54 c 128,-1,44
 446 50 446 50 455.5 49 c 128,-1,45
 465 48 465 48 474 48 c 2,46,-1
 483 47 l 2,47,48
 486 46 486 46 486 35 c 0,49,50
 486 20 486 20 480 20 c 0,51,52
 465 19 465 19 446.5 16 c 128,-1,53
 428 13 428 13 411.5 9.5 c 128,-1,54
 395 6 395 6 381 2.5 c 128,-1,55
 367 -1 367 -1 358 -4 c 2,56,-1
 349 -6 l 1,57,58
 343 -6 343 -6 343 11 c 2,59,-1
 343 23 l 2,60,61
 343 29 343 29 339 27 c 0,62,63
 283 -4 283 -4 233 -4 c 0,64,65
 150 -4 150 -4 94 55 c 128,-1,66
 38 114 38 114 38 196 c 0,67,68
 38 293 38 293 106.5 366.5 c 128,-1,69
 175 440 175 440 261 440 c 0,13,14
EndSplineSet
Validated: 1
EndChar

StartChar: e
Encoding: 101 101 72
Width: 430
VWidth: 0
GlyphClass: 2
Flags: W
LayerCount: 2
Fore
SplineSet
225 399 m 0,0,1
 173 399 173 399 145.5 354.5 c 128,-1,2
 118 310 118 310 118 281 c 0,3,4
 118 274 118 274 124 274 c 2,5,-1
 319 274 l 2,6,7
 324 274 324 274 324 284 c 0,8,9
 324 316 324 316 297 357.5 c 128,-1,10
 270 399 270 399 225 399 c 0,0,1
235 436 m 0,11,12
 281 436 281 436 316 418.5 c 128,-1,13
 351 401 351 401 369.5 373.5 c 128,-1,14
 388 346 388 346 396.5 317.5 c 128,-1,15
 405 289 405 289 405 261 c 0,16,17
 405 241 405 241 399 236.5 c 128,-1,18
 393 232 393 232 376 232 c 2,19,-1
 124 232 l 2,20,21
 116 232 116 232 116 227 c 0,22,23
 116 164 116 164 154 111 c 128,-1,24
 192 58 192 58 264 58 c 0,25,26
 285 58 285 58 304 62 c 128,-1,27
 323 66 323 66 336.5 71.5 c 128,-1,28
 350 77 350 77 359.5 82.5 c 128,-1,29
 369 88 369 88 376 93 c 2,30,-1
 383 98 l 1,31,32
 389 98 389 98 389 85 c 0,33,34
 389 77 389 77 383 67 c 0,35,36
 363 39 363 39 324 16.5 c 128,-1,37
 285 -6 285 -6 239 -6 c 0,38,39
 156 -6 156 -6 96.5 56.5 c 128,-1,40
 37 119 37 119 37 209 c 0,41,42
 37 314 37 314 93.5 375 c 128,-1,43
 150 436 150 436 235 436 c 0,11,12
EndSplineSet
Validated: 1
EndChar

StartChar: f
Encoding: 102 102 73
Width: 301
VWidth: 0
GlyphClass: 2
Flags: W
LayerCount: 2
Fore
SplineSet
297 695 m 0,0,1
 369 695 369 695 392 656 c 1,2,3
 392 593 392 593 356 593 c 0,4,5
 343 593 343 593 331 608.5 c 128,-1,6
 319 624 319 624 303.5 640 c 128,-1,7
 288 656 288 656 266 656 c 0,8,9
 222 656 222 656 198 602 c 128,-1,10
 174 548 174 548 174 475 c 2,11,-1
 174 424 l 2,12,13
 174 419 174 419 179 419 c 2,14,-1
 290 419 l 2,15,16
 295 419 295 419 295 412 c 0,17,18
 295 396 295 396 283 372 c 1,19,-1
 180 372 l 2,20,21
 174 372 174 372 174 366 c 2,22,-1
 174 135 l 2,23,24
 174 81 174 81 183 46 c 0,25,26
 185 39 185 39 207.5 32.5 c 128,-1,27
 230 26 230 26 239 26 c 0,28,29
 242 26 242 26 243 14 c 128,-1,30
 244 2 244 2 242 -3 c 1,31,32
 142 2 142 2 135 2 c 0,33,34
 132 2 132 2 30 -3 c 1,35,36
 28 -1 28 -1 27 6.5 c 128,-1,37
 26 14 26 14 27 20 c 128,-1,38
 28 26 28 26 30 26 c 0,39,40
 42 26 42 26 64 32.5 c 128,-1,41
 86 39 86 39 88 46 c 0,42,43
 98 85 98 85 98 135 c 2,44,-1
 98 365 l 2,45,46
 98 372 98 372 93 372 c 2,47,-1
 40 372 l 2,48,49
 37 372 37 372 37 378 c 0,50,51
 37 387 37 387 53 403 c 128,-1,52
 69 419 69 419 87 419 c 2,53,-1
 93 419 l 2,54,55
 98 419 98 419 98 425 c 2,56,-1
 98 438 l 2,57,58
 98 543 98 543 160.5 619 c 128,-1,59
 223 695 223 695 297 695 c 0,0,1
EndSplineSet
Validated: 1
EndChar

StartChar: g
Encoding: 103 103 74
Width: 474
VWidth: 0
GlyphClass: 2
Flags: W
LayerCount: 2
Fore
SplineSet
379 -85 m 0,0,1
 379 -43 379 -43 338 -28.5 c 128,-1,2
 297 -14 297 -14 175 -14 c 0,3,4
 173 -14 173 -14 169 -16 c 0,5,6
 168 -17 168 -17 160 -20.5 c 128,-1,7
 152 -24 152 -24 150 -25 c 128,-1,8
 148 -26 148 -26 141 -30.5 c 128,-1,9
 134 -35 134 -35 131.5 -36.5 c 128,-1,10
 129 -38 129 -38 123 -42.5 c 128,-1,11
 117 -47 117 -47 115 -50.5 c 128,-1,12
 113 -54 113 -54 109 -59 c 128,-1,13
 105 -64 105 -64 103.5 -69 c 128,-1,14
 102 -74 102 -74 100.5 -80.5 c 128,-1,15
 99 -87 99 -87 99 -94 c 0,16,17
 99 -137 99 -137 143.5 -163.5 c 128,-1,18
 188 -190 188 -190 242 -190 c 0,19,20
 302 -190 302 -190 340.5 -158 c 128,-1,21
 379 -126 379 -126 379 -85 c 0,0,1
123 296 m 0,22,23
 123 250 123 250 151.5 218 c 128,-1,24
 180 186 180 186 218 186 c 0,25,26
 257 186 257 186 282.5 216 c 128,-1,27
 308 246 308 246 308 288 c 0,28,29
 308 334 308 334 279.5 366 c 128,-1,30
 251 398 251 398 213 398 c 0,31,32
 174 398 174 398 148.5 368 c 128,-1,33
 123 338 123 338 123 296 c 0,22,23
217 432 m 0,34,35
 254 432 254 432 302 419 c 128,-1,36
 350 406 350 406 381 406 c 2,37,-1
 439 406 l 1,38,39
 445 404 445 404 445 381 c 0,40,41
 445 367 445 367 439 367 c 2,42,-1
 368 367 l 2,43,44
 364 367 364 367 364 364 c 1,45,-1
 374 340 l 2,46,47
 385 316 385 316 385 292 c 0,48,49
 385 238 385 238 337 195 c 128,-1,50
 289 152 289 152 219 152 c 0,51,52
 187 152 187 152 163 156 c 1,53,54
 150 149 150 149 135.5 131 c 128,-1,55
 121 113 121 113 121 99 c 128,-1,56
 121 85 121 85 129 76.5 c 128,-1,57
 137 68 137 68 152 64.5 c 128,-1,58
 167 61 167 61 181 59.5 c 128,-1,59
 195 58 195 58 214 58 c 2,60,-1
 221 58 l 1,61,62
 345 56 345 56 395 32.5 c 128,-1,63
 445 9 445 9 445 -38 c 0,64,65
 445 -115 445 -115 380 -170.5 c 128,-1,66
 315 -226 315 -226 213 -227 c 0,67,68
 142 -228 142 -228 85.5 -200 c 128,-1,69
 29 -172 29 -172 29 -116 c 0,70,71
 29 -54 29 -54 127 -10 c 1,72,73
 100 -6 100 -6 77 15 c 128,-1,74
 54 36 54 36 54 66 c 0,75,76
 54 92 54 92 76.5 120 c 128,-1,77
 99 148 99 148 127 166 c 1,78,79
 97 177 97 177 71.5 213.5 c 128,-1,80
 46 250 46 250 46 292 c 0,81,82
 46 351 46 351 95.5 391.5 c 128,-1,83
 145 432 145 432 217 432 c 0,34,35
EndSplineSet
Validated: 33
EndChar

StartChar: h
Encoding: 104 104 75
Width: 530
VWidth: 0
GlyphClass: 2
Flags: W
LayerCount: 2
Fore
SplineSet
312 438 m 0,0,1
 379 438 379 438 408 390 c 128,-1,2
 437 342 437 342 437 242 c 2,3,-1
 437 134 l 2,4,5
 437 77 437 77 445 46 c 0,6,7
 447 39 447 39 471 32.5 c 128,-1,8
 495 26 495 26 505 26 c 0,9,10
 508 26 508 26 509 14 c 128,-1,11
 510 2 510 2 508 -3 c 1,12,13
 408 2 408 2 401 2 c 0,14,15
 398 2 398 2 296 -3 c 1,16,17
 292 1 292 1 292 13.5 c 128,-1,18
 292 26 292 26 296 26 c 0,19,20
 308 26 308 26 329.5 32.5 c 128,-1,21
 351 39 351 39 353 46 c 0,22,23
 360 75 360 75 360 116 c 2,24,-1
 360 222 l 2,25,26
 360 314 360 314 334.5 345.5 c 128,-1,27
 309 377 309 377 256 377 c 0,28,29
 226 377 226 377 196.5 353.5 c 128,-1,30
 167 330 167 330 167 312 c 2,31,-1
 167 135 l 2,32,33
 167 77 167 77 175 46 c 0,34,35
 177 39 177 39 201 32.5 c 128,-1,36
 225 26 225 26 235 26 c 0,37,38
 238 26 238 26 239 14 c 128,-1,39
 240 2 240 2 238 -3 c 1,40,41
 138 2 138 2 131 2 c 0,42,43
 125 2 125 2 22 -3 c 1,44,45
 18 1 18 1 18 13.5 c 128,-1,46
 18 26 18 26 22 26 c 0,47,48
 34 26 34 26 57.5 32.5 c 128,-1,49
 81 39 81 39 83 46 c 0,50,51
 90 75 90 75 90 115 c 2,52,-1
 90 549 l 2,53,54
 90 583 90 583 84 613 c 1,55,56
 79 629 79 629 33 629 c 2,57,-1
 24 629 l 2,58,59
 18 629 18 629 18 640 c 0,60,61
 18 656 18 656 24 656 c 0,62,63
 54 659 54 659 79.5 664 c 128,-1,64
 105 669 105 669 119.5 674 c 128,-1,65
 134 679 134 679 144 683.5 c 128,-1,66
 154 688 154 688 158 691 c 2,67,-1
 163 694 l 1,68,-1
 165 694 l 2,69,70
 169 694 169 694 173 688.5 c 128,-1,71
 177 683 177 683 178 678 c 1,72,73
 167 646 167 646 167 591 c 2,74,-1
 167 372 l 2,75,76
 167 368 167 368 169 368 c 0,77,78
 170 368 170 368 172 370 c 0,79,80
 194 394 194 394 234.5 416 c 128,-1,81
 275 438 275 438 312 438 c 0,0,1
EndSplineSet
Validated: 1
EndChar

StartChar: i
Encoding: 105 105 76
Width: 269
VWidth: 0
GlyphClass: 2
Flags: W
LayerCount: 2
Fore
SplineSet
99.5 628.5 m 128,-1,1
 114 643 114 643 135 643 c 128,-1,2
 156 643 156 643 170.5 628.5 c 128,-1,3
 185 614 185 614 185 593 c 128,-1,4
 185 572 185 572 170.5 557.5 c 128,-1,5
 156 543 156 543 135 543 c 128,-1,6
 114 543 114 543 99.5 557.5 c 128,-1,7
 85 572 85 572 85 593 c 128,-1,0
 85 614 85 614 99.5 628.5 c 128,-1,1
181 135 m 2,8,9
 181 77 181 77 189 46 c 0,10,11
 191 39 191 39 215 32.5 c 128,-1,12
 239 26 239 26 249 26 c 0,13,14
 252 26 252 26 253 14 c 128,-1,15
 254 2 254 2 252 -3 c 1,16,17
 152 2 152 2 145 2 c 128,-1,18
 138 2 138 2 36 -3 c 1,19,20
 32 1 32 1 32 13.5 c 128,-1,21
 32 26 32 26 36 26 c 0,22,23
 48 26 48 26 71.5 32.5 c 128,-1,24
 95 39 95 39 97 46 c 0,25,26
 104 75 104 75 104 116 c 2,27,-1
 104 305 l 2,28,29
 104 344 104 344 90 359 c 0,30,31
 80 371 80 371 65.5 375.5 c 128,-1,32
 51 380 51 380 41.5 380 c 128,-1,33
 32 380 32 380 32 382 c 0,34,35
 32 406 32 406 38 407 c 0,36,37
 144 423 144 423 176 433 c 1,38,-1
 178 434 l 1,39,-1
 181 434 l 2,40,41
 185 434 185 434 186 425.5 c 128,-1,42
 187 417 187 417 186 413 c 0,43,44
 181 373 181 373 181 341 c 2,45,-1
 181 135 l 2,8,9
EndSplineSet
Validated: 1
EndChar

StartChar: j
Encoding: 106 106 77
Width: 238
VWidth: 0
GlyphClass: 2
Flags: W
LayerCount: 2
Fore
SplineSet
85 305 m 2,0,1
 85 344 85 344 71 359 c 0,2,3
 61 371 61 371 46.5 375.5 c 128,-1,4
 32 380 32 380 22.5 380 c 128,-1,5
 13 380 13 380 13 382 c 0,6,7
 13 406 13 406 19 407 c 0,8,9
 125 423 125 423 157 433 c 1,10,-1
 162 434 l 2,11,12
 166 434 166 434 167 425.5 c 128,-1,13
 168 417 168 417 167 413 c 0,14,15
 162 373 162 373 162 341 c 2,16,-1
 162 68 l 2,17,18
 162 -59 162 -59 123 -120 c 0,19,20
 98 -159 98 -159 59.5 -189 c 128,-1,21
 21 -219 21 -219 -11 -231 c 1,22,23
 -20 -225 -20 -225 -24 -216 c 0,24,25
 -26 -211 -26 -211 -24 -209 c 2,26,-1
 -12 -203 l 2,27,28
 0 -197 0 -197 15.5 -182 c 128,-1,29
 31 -167 31 -167 47 -142 c 128,-1,30
 63 -117 63 -117 74 -68 c 128,-1,31
 85 -19 85 -19 85 45 c 2,32,-1
 85 305 l 2,0,1
73.5 628.5 m 128,-1,34
 88 643 88 643 109 643 c 128,-1,35
 130 643 130 643 144.5 628.5 c 128,-1,36
 159 614 159 614 159 593 c 128,-1,37
 159 572 159 572 144.5 557.5 c 128,-1,38
 130 543 130 543 109 543 c 128,-1,39
 88 543 88 543 73.5 557.5 c 128,-1,40
 59 572 59 572 59 593 c 128,-1,33
 59 614 59 614 73.5 628.5 c 128,-1,34
EndSplineSet
Validated: 1
EndChar

StartChar: k
Encoding: 107 107 78
Width: 496
VWidth: 0
GlyphClass: 2
Flags: W
LayerCount: 2
Fore
SplineSet
387 368 m 0,0,1
 370 358 370 358 322 320.5 c 128,-1,2
 274 283 274 283 239 247 c 1,3,4
 268 216 268 216 310 168.5 c 128,-1,5
 352 121 352 121 379 91.5 c 128,-1,6
 406 62 406 62 416 53 c 0,7,8
 433 39 433 39 459 31.5 c 128,-1,9
 485 24 485 24 496 24 c 0,10,11
 500 24 500 24 500 8 c 0,12,13
 500 -1 500 -1 499 -3 c 1,14,15
 399 2 399 2 390 2 c 0,16,17
 388 2 388 2 286 -3 c 1,18,19
 282 1 282 1 282 12.5 c 128,-1,20
 282 24 282 24 286 24 c 0,21,22
 296 24 296 24 309 28 c 128,-1,23
 322 32 322 32 322 37 c 0,24,25
 322 39 322 39 321 40 c 2,26,-1
 175 198 l 1,27,-1
 163 195 l 1,28,-1
 163 135 l 1,29,30
 165 69 165 69 171 46 c 0,31,32
 173 39 173 39 197 32.5 c 128,-1,33
 221 26 221 26 231 26 c 0,34,35
 234 26 234 26 235 14 c 128,-1,36
 236 2 236 2 234 -3 c 1,37,38
 134 2 134 2 127 2 c 0,39,40
 121 2 121 2 18 -3 c 1,41,42
 14 1 14 1 14 13.5 c 128,-1,43
 14 26 14 26 18 26 c 0,44,45
 30 26 30 26 53.5 32.5 c 128,-1,46
 77 39 77 39 79 46 c 0,47,48
 86 75 86 75 86 116 c 2,49,-1
 86 549 l 2,50,51
 86 583 86 583 80 613 c 1,52,53
 75 629 75 629 29 629 c 2,54,-1
 20 629 l 2,55,56
 14 629 14 629 14 640 c 0,57,58
 14 656 14 656 20 656 c 0,59,60
 50 659 50 659 75.5 664 c 128,-1,61
 101 669 101 669 115.5 674 c 128,-1,62
 130 679 130 679 140 683.5 c 128,-1,63
 150 688 150 688 154 691 c 2,64,-1
 159 694 l 1,65,-1
 161 694 l 2,66,67
 165 694 165 694 169 688.5 c 128,-1,68
 173 683 173 683 174 678 c 1,69,70
 163 646 163 646 163 591 c 2,71,-1
 163 241 l 1,72,73
 184 246 184 246 188 250 c 0,74,75
 210 269 210 269 246 299 c 128,-1,76
 282 329 282 329 293 339 c 128,-1,77
 304 349 304 349 308 355 c 128,-1,78
 312 361 312 361 312 367 c 0,79,80
 312 379 312 379 290 381 c 128,-1,81
 268 383 268 383 267 385 c 0,82,83
 260 405 260 405 268 408 c 1,84,-1
 347 408 l 2,85,86
 362 408 362 408 378.5 409 c 128,-1,87
 395 410 395 410 417.5 411 c 128,-1,88
 440 412 440 412 457 413 c 1,89,90
 461 411 461 411 461.5 404 c 128,-1,91
 462 397 462 397 460 391 c 128,-1,92
 458 385 458 385 456 385 c 0,93,94
 443 385 443 385 419 379 c 128,-1,95
 395 373 395 373 387 368 c 0,0,1
EndSplineSet
Validated: 1
EndChar

StartChar: l
Encoding: 108 108 79
Width: 251
VWidth: 0
GlyphClass: 2
Flags: W
LayerCount: 2
Fore
SplineSet
87 116 m 2,0,-1
 87 549 l 2,1,2
 87 583 87 583 81 613 c 1,3,4
 76 629 76 629 30 629 c 2,5,-1
 21 629 l 2,6,7
 15 629 15 629 15 640 c 0,8,9
 15 656 15 656 21 656 c 0,10,11
 51 659 51 659 76.5 664 c 128,-1,12
 102 669 102 669 116.5 674 c 128,-1,13
 131 679 131 679 141 683.5 c 128,-1,14
 151 688 151 688 156 691 c 2,15,-1
 160 694 l 1,16,-1
 162 694 l 2,17,18
 166 694 166 694 170 688.5 c 128,-1,19
 174 683 174 683 175 678 c 1,20,21
 164 646 164 646 164 591 c 2,22,-1
 164 135 l 2,23,24
 164 77 164 77 172 46 c 0,25,26
 174 39 174 39 198 32.5 c 128,-1,27
 222 26 222 26 232 26 c 0,28,29
 235 26 235 26 236 14 c 128,-1,30
 237 2 237 2 235 -3 c 1,31,32
 135 2 135 2 128 2 c 0,33,34
 122 2 122 2 19 -3 c 1,35,36
 15 1 15 1 15 13.5 c 128,-1,37
 15 26 15 26 19 26 c 0,38,39
 31 26 31 26 54.5 32.5 c 128,-1,40
 78 39 78 39 80 46 c 0,41,42
 87 75 87 75 87 116 c 2,0,-1
EndSplineSet
Validated: 1
EndChar

StartChar: m
Encoding: 109 109 80
Width: 800
VWidth: 0
GlyphClass: 2
Flags: W
LayerCount: 2
Fore
SplineSet
320 438 m 0,0,1
 360 438 360 438 386.5 416.5 c 128,-1,2
 413 395 413 395 423 367 c 1,3,4
 498 438 498 438 578 438 c 0,5,6
 704 438 704 438 704 246 c 2,7,-1
 704 135 l 2,8,9
 704 77 704 77 712 46 c 0,10,11
 714 39 714 39 738 32.5 c 128,-1,12
 762 26 762 26 772 26 c 0,13,14
 775 26 775 26 776 14 c 128,-1,15
 777 2 777 2 775 -3 c 1,16,17
 675 2 675 2 668 2 c 0,18,19
 662 2 662 2 559 -3 c 1,20,21
 555 1 555 1 555 13.5 c 128,-1,22
 555 26 555 26 559 26 c 0,23,24
 571 26 571 26 594.5 32.5 c 128,-1,25
 618 39 618 39 620 46 c 0,26,27
 627 75 627 75 627 110 c 2,28,-1
 627 223 l 2,29,30
 627 377 627 377 526 377 c 0,31,32
 489 377 489 377 462 355.5 c 128,-1,33
 435 334 435 334 435 320 c 1,34,-1
 436 316 l 1,35,-1
 436 311 l 1,36,37
 440 286 440 286 440 239 c 2,38,-1
 440 126 l 2,39,40
 440 77 440 77 448 46 c 0,41,42
 450 39 450 39 474 32.5 c 128,-1,43
 498 26 498 26 508 26 c 0,44,45
 511 26 511 26 512 14 c 128,-1,46
 513 2 513 2 511 -3 c 1,47,48
 411 2 411 2 404 2 c 0,49,50
 398 2 398 2 295 -3 c 1,51,52
 291 1 291 1 291 13.5 c 128,-1,53
 291 26 291 26 295 26 c 0,54,55
 307 26 307 26 330.5 32.5 c 128,-1,56
 354 39 354 39 356 46 c 0,57,58
 363 75 363 75 363 116 c 2,59,-1
 363 218 l 2,60,61
 363 377 363 377 267 377 c 0,62,63
 237 377 237 377 206.5 354.5 c 128,-1,64
 176 332 176 332 176 311 c 2,65,-1
 176 135 l 2,66,67
 176 77 176 77 184 46 c 0,68,69
 186 39 186 39 210 32.5 c 128,-1,70
 234 26 234 26 244 26 c 0,71,72
 247 26 247 26 248 14 c 128,-1,73
 249 2 249 2 247 -3 c 1,74,75
 147 2 147 2 140 2 c 0,76,77
 134 2 134 2 31 -3 c 1,78,79
 27 1 27 1 27 13.5 c 128,-1,80
 27 26 27 26 31 26 c 0,81,82
 43 26 43 26 66.5 32.5 c 128,-1,83
 90 39 90 39 92 46 c 0,84,85
 99 75 99 75 99 116 c 2,86,-1
 99 305 l 2,87,88
 99 344 99 344 85 359 c 0,89,90
 75 371 75 371 60.5 375.5 c 128,-1,91
 46 380 46 380 36.5 380 c 128,-1,92
 27 380 27 380 27 382 c 0,93,94
 27 406 27 406 33 407 c 0,95,96
 139 423 139 423 171 433 c 1,97,-1
 176 434 l 2,98,99
 180 434 180 434 181 425.5 c 128,-1,100
 182 417 182 417 181 413 c 0,101,102
 177 385 177 385 177 373 c 0,103,104
 177 369 177 369 179 369 c 0,105,106
 180 369 180 369 182 371 c 0,107,108
 205 395 205 395 244.5 416.5 c 128,-1,109
 284 438 284 438 320 438 c 0,0,1
EndSplineSet
Validated: 1
EndChar

StartChar: n
Encoding: 110 110 81
Width: 543
VWidth: 0
GlyphClass: 2
Flags: W
LayerCount: 2
Fore
SplineSet
322 438 m 0,0,1
 392 438 392 438 420 388 c 128,-1,2
 448 338 448 338 448 226 c 2,3,-1
 448 135 l 2,4,5
 448 77 448 77 456 46 c 0,6,7
 458 39 458 39 482 32.5 c 128,-1,8
 506 26 506 26 516 26 c 0,9,10
 519 26 519 26 520 14 c 128,-1,11
 521 2 521 2 519 -3 c 1,12,13
 419 2 419 2 412 2 c 0,14,15
 410 2 410 2 307 -3 c 1,16,17
 303 1 303 1 303 13.5 c 128,-1,18
 303 26 303 26 307 26 c 0,19,20
 319 26 319 26 340.5 32.5 c 128,-1,21
 362 39 362 39 364 46 c 0,22,23
 371 75 371 75 371 116 c 2,24,-1
 371 216 l 2,25,26
 371 309 371 309 347 343 c 128,-1,27
 323 377 323 377 269 377 c 0,28,29
 237 377 237 377 207.5 353.5 c 128,-1,30
 178 330 178 330 178 311 c 2,31,-1
 178 135 l 2,32,33
 178 77 178 77 186 46 c 0,34,35
 188 39 188 39 212 32.5 c 128,-1,36
 236 26 236 26 246 26 c 0,37,38
 249 26 249 26 250 14 c 128,-1,39
 251 2 251 2 249 -3 c 1,40,41
 149 2 149 2 142 2 c 0,42,43
 136 2 136 2 33 -3 c 1,44,45
 29 1 29 1 29 13.5 c 128,-1,46
 29 26 29 26 33 26 c 0,47,48
 45 26 45 26 68.5 32.5 c 128,-1,49
 92 39 92 39 94 46 c 0,50,51
 101 75 101 75 101 116 c 2,52,-1
 101 305 l 2,53,54
 101 344 101 344 87 359 c 0,55,56
 77 371 77 371 62.5 375.5 c 128,-1,57
 48 380 48 380 38.5 380 c 128,-1,58
 29 380 29 380 29 382 c 0,59,60
 29 406 29 406 35 407 c 0,61,62
 141 423 141 423 173 433 c 1,63,-1
 178 434 l 2,64,65
 182 434 182 434 183 425.5 c 128,-1,66
 184 417 184 417 183 413 c 0,67,68
 179 385 179 385 179 373 c 0,69,70
 179 369 179 369 181 369 c 0,71,72
 182 369 182 369 184 371 c 0,73,74
 207 395 207 395 246.5 416.5 c 128,-1,75
 286 438 286 438 322 438 c 0,0,1
EndSplineSet
Validated: 1
EndChar

StartChar: o
Encoding: 111 111 82
Width: 510
VWidth: 0
GlyphClass: 2
Flags: W
LayerCount: 2
Fore
SplineSet
243 398 m 0,0,1
 190 398 190 398 156.5 349.5 c 128,-1,2
 123 301 123 301 123 231 c 0,3,4
 123 149 123 149 165.5 90.5 c 128,-1,5
 208 32 208 32 265 32 c 0,6,7
 318 32 318 32 352 82 c 128,-1,8
 386 132 386 132 386 202 c 0,9,10
 386 283 386 283 343 340.5 c 128,-1,11
 300 398 300 398 243 398 c 0,0,1
254 437 m 0,12,13
 344 437 344 437 408 372 c 128,-1,14
 472 307 472 307 472 216 c 0,15,16
 472 124 472 124 409.5 58.5 c 128,-1,17
 347 -7 347 -7 256 -7 c 128,-1,18
 165 -7 165 -7 101 58.5 c 128,-1,19
 37 124 37 124 37 216 c 0,20,21
 37 309 37 309 99 373 c 128,-1,22
 161 437 161 437 254 437 c 0,12,13
EndSplineSet
Validated: 1
EndChar

StartChar: p
Encoding: 112 112 83
Width: 511
VWidth: 0
GlyphClass: 2
Flags: W
LayerCount: 2
Fore
SplineSet
269 436 m 0,0,1
 365 436 365 436 419 371.5 c 128,-1,2
 473 307 473 307 473 234 c 0,3,4
 473 138 473 138 406 65 c 128,-1,5
 339 -8 339 -8 254 -8 c 0,6,7
 239 -8 239 -8 227.5 -7 c 128,-1,8
 216 -6 216 -6 207 -3.5 c 128,-1,9
 198 -1 198 -1 193 1 c 128,-1,10
 188 3 188 3 180 6.5 c 128,-1,11
 172 10 172 10 170 11 c 1,12,13
 166 6 166 6 166 -2 c 2,14,-1
 166 -88 l 2,15,16
 166 -146 166 -146 174 -177 c 0,17,18
 176 -184 176 -184 200 -190.5 c 128,-1,19
 224 -197 224 -197 234 -197 c 0,20,21
 237 -197 237 -197 238 -209.5 c 128,-1,22
 239 -222 239 -222 237 -226 c 1,23,24
 137 -221 137 -221 130 -221 c 0,25,26
 124 -221 124 -221 21 -226 c 1,27,28
 17 -222 17 -222 17 -209.5 c 128,-1,29
 17 -197 17 -197 21 -197 c 0,30,31
 33 -197 33 -197 56.5 -190.5 c 128,-1,32
 80 -184 80 -184 82 -177 c 0,33,34
 89 -148 89 -148 89 -107 c 2,35,-1
 89 306 l 2,36,37
 89 345 89 345 75 360 c 0,38,39
 65 372 65 372 50.5 376.5 c 128,-1,40
 36 381 36 381 26.5 381 c 128,-1,41
 17 381 17 381 17 383 c 0,42,43
 17 407 17 407 23 408 c 0,44,45
 129 424 129 424 161 434 c 1,46,-1
 166 435 l 2,47,48
 169 435 169 435 169 429.5 c 128,-1,49
 169 424 169 424 168 416 c 128,-1,50
 167 408 167 408 167 407 c 2,51,-1
 167 401 l 1,52,53
 181 411 181 411 213.5 423.5 c 128,-1,54
 246 436 246 436 269 436 c 0,0,1
237 387 m 0,55,56
 206 387 206 387 186 370.5 c 128,-1,57
 166 354 166 354 166 323 c 2,58,-1
 166 98 l 2,59,60
 166 71 166 71 195 52.5 c 128,-1,61
 224 34 224 34 258 34 c 0,62,63
 317 34 317 34 352 87 c 128,-1,64
 387 140 387 140 387 206 c 0,65,66
 387 290 387 290 342.5 338.5 c 128,-1,67
 298 387 298 387 237 387 c 0,55,56
EndSplineSet
Validated: 1
EndChar

StartChar: q
Encoding: 113 113 84
Width: 489
VWidth: 0
GlyphClass: 2
Flags: W
LayerCount: 2
Fore
SplineSet
265 440 m 0,0,1
 302 440 302 440 337 434.5 c 128,-1,2
 372 429 372 429 377 429 c 0,3,4
 386 429 386 429 399.5 433 c 128,-1,5
 413 437 413 437 415 437 c 0,6,7
 418 437 418 437 427 434 c 128,-1,8
 436 431 436 431 436 427 c 0,9,10
 436 426 436 426 432 409 c 128,-1,11
 428 392 428 392 424 361 c 128,-1,12
 420 330 420 330 420 293 c 2,13,-1
 420 -101 l 2,14,15
 420 -147 420 -147 428 -178 c 0,16,17
 430 -185 430 -185 454 -191.5 c 128,-1,18
 478 -198 478 -198 488 -198 c 0,19,20
 491 -198 491 -198 492 -210 c 128,-1,21
 493 -222 493 -222 491 -227 c 1,22,23
 391 -222 391 -222 384 -222 c 0,24,25
 378 -222 378 -222 275 -227 c 1,26,27
 271 -223 271 -223 271 -210.5 c 128,-1,28
 271 -198 271 -198 275 -198 c 0,29,30
 287 -198 287 -198 310.5 -191.5 c 128,-1,31
 334 -185 334 -185 336 -178 c 0,32,33
 343 -149 343 -149 343 -108 c 2,34,-1
 343 16 l 2,35,36
 343 21 343 21 341.5 24.5 c 128,-1,37
 340 28 340 28 336 26 c 0,38,39
 276 -4 276 -4 240 -4 c 0,40,41
 153 -4 153 -4 95.5 59 c 128,-1,42
 38 122 38 122 38 203 c 0,43,44
 38 291 38 291 106.5 365.5 c 128,-1,45
 175 440 175 440 265 440 c 0,0,1
248 398 m 0,46,47
 204 398 204 398 174.5 367 c 128,-1,48
 145 336 145 336 134.5 299.5 c 128,-1,49
 124 263 124 263 124 226 c 0,50,51
 124 137 124 137 168 91 c 128,-1,52
 212 45 212 45 275 45 c 0,53,54
 298 45 298 45 320.5 58.5 c 128,-1,55
 343 72 343 72 343 105 c 2,56,-1
 343 337 l 2,57,58
 343 364 343 364 318 381 c 128,-1,59
 293 398 293 398 248 398 c 0,46,47
EndSplineSet
Validated: 1
EndChar

StartChar: r
Encoding: 114 114 85
Width: 380
VWidth: 0
GlyphClass: 2
Flags: W
LayerCount: 2
Fore
SplineSet
293 437 m 0,0,1
 352 437 352 437 371 408 c 1,2,3
 371 373 371 373 360 357 c 128,-1,4
 349 341 349 341 333 341 c 0,5,6
 315 341 315 341 300 358 c 128,-1,7
 285 375 285 375 259 375 c 0,8,9
 228 375 228 375 205 346 c 128,-1,10
 182 317 182 317 182 285 c 2,11,-1
 182 135 l 2,12,13
 182 77 182 77 190 46 c 0,14,15
 192 39 192 39 216.5 32.5 c 128,-1,16
 241 26 241 26 251 26 c 0,17,18
 254 26 254 26 255 14 c 128,-1,19
 256 2 256 2 254 -3 c 1,20,21
 154 2 154 2 146 2 c 0,22,23
 140 2 140 2 37 -3 c 1,24,25
 33 1 33 1 33 13.5 c 128,-1,26
 33 26 33 26 37 26 c 0,27,28
 49 26 49 26 72.5 32.5 c 128,-1,29
 96 39 96 39 98 46 c 0,30,31
 105 75 105 75 105 116 c 2,32,-1
 105 305 l 2,33,34
 105 344 105 344 91 359 c 0,35,36
 81 371 81 371 66.5 375.5 c 128,-1,37
 52 380 52 380 42.5 380 c 128,-1,38
 33 380 33 380 33 382 c 0,39,40
 33 406 33 406 39 407 c 0,41,42
 145 423 145 423 177 433 c 1,43,-1
 182 434 l 2,44,45
 186 434 186 434 187 425.5 c 128,-1,46
 188 417 188 417 187 413 c 2,47,-1
 181 363 l 1,48,49
 199 390 199 390 230.5 413.5 c 128,-1,50
 262 437 262 437 293 437 c 0,0,1
EndSplineSet
Validated: 1
EndChar

StartChar: s
Encoding: 115 115 86
Width: 359
VWidth: 0
GlyphClass: 2
Flags: W
LayerCount: 2
Fore
SplineSet
191 437 m 0,0,1
 213 437 213 437 246.5 431.5 c 128,-1,2
 280 426 280 426 293 424 c 1,3,4
 303 378 303 378 305 322 c 0,5,6
 305 317 305 317 292 317 c 0,7,8
 278 317 278 317 277 324 c 0,9,10
 272 352 272 352 248.5 377 c 128,-1,11
 225 402 225 402 195 402 c 0,12,13
 123 402 123 402 123 343 c 0,14,15
 123 328 123 328 127 316.5 c 128,-1,16
 131 305 131 305 142.5 294.5 c 128,-1,17
 154 284 154 284 160 279.5 c 128,-1,18
 166 275 166 275 186.5 263.5 c 128,-1,19
 207 252 207 252 212 249 c 0,20,21
 216 247 216 247 235.5 235.5 c 128,-1,22
 255 224 255 224 263 219 c 128,-1,23
 271 214 271 214 286.5 202 c 128,-1,24
 302 190 302 190 309 180.5 c 128,-1,25
 316 171 316 171 322.5 156.5 c 128,-1,26
 329 142 329 142 329 127 c 0,27,28
 329 68 329 68 283 28.5 c 128,-1,29
 237 -11 237 -11 175 -11 c 0,30,31
 154 -11 154 -11 136.5 -8.5 c 128,-1,32
 119 -6 119 -6 95 0 c 128,-1,33
 71 6 71 6 58 8 c 1,34,35
 52 24 52 24 46.5 58 c 128,-1,36
 41 92 41 92 41 112 c 1,37,38
 49 118 49 118 53 118 c 0,39,40
 68 118 68 118 69 112 c 0,41,42
 75 82 75 82 106.5 53.5 c 128,-1,43
 138 25 138 25 175 25 c 0,44,45
 207 25 207 25 227.5 42.5 c 128,-1,46
 248 60 248 60 248 93 c 0,47,48
 248 110 248 110 241.5 124.5 c 128,-1,49
 235 139 235 139 220.5 150.5 c 128,-1,50
 206 162 206 162 193.5 169.5 c 128,-1,51
 181 177 181 177 158 189 c 128,-1,52
 135 201 135 201 124 208 c 0,53,54
 46 253 46 253 46 315 c 0,55,56
 46 369 46 369 89.5 403 c 128,-1,57
 133 437 133 437 191 437 c 0,0,1
EndSplineSet
Validated: 1
EndChar

StartChar: t
Encoding: 116 116 87
Width: 314
VWidth: 0
GlyphClass: 2
Flags: W
LayerCount: 2
Fore
SplineSet
80 374 m 1,0,-1
 22 374 l 2,1,2
 17 374 17 374 17 395 c 0,3,4
 17 401 17 401 18 402 c 0,5,6
 47 415 47 415 81 455 c 0,7,8
 92 468 92 468 102.5 484.5 c 128,-1,9
 113 501 113 501 120 513 c 128,-1,10
 127 525 127 525 127 526 c 1,11,12
 157 526 157 526 157 521 c 2,13,-1
 157 422 l 1,14,15
 183 422 183 422 236 421.5 c 128,-1,16
 289 421 289 421 292 421 c 0,17,18
 300 421 300 421 300 412 c 0,19,20
 300 394 300 394 290 374 c 1,21,-1
 157 374 l 1,22,-1
 157 129 l 2,23,24
 157 89 157 89 177.5 65 c 128,-1,25
 198 41 198 41 231 41 c 0,26,27
 261 41 261 41 293 60 c 0,28,29
 296 62 296 62 302 51.5 c 128,-1,30
 308 41 308 41 307 40 c 0,31,32
 292 24 292 24 261 8.5 c 128,-1,33
 230 -7 230 -7 197 -7 c 0,34,35
 147 -7 147 -7 113.5 26 c 128,-1,36
 80 59 80 59 80 120 c 2,37,-1
 80 374 l 1,0,-1
EndSplineSet
Validated: 1
EndChar

StartChar: u
Encoding: 117 117 88
Width: 517
VWidth: 0
GlyphClass: 2
Flags: W
LayerCount: 2
Fore
SplineSet
435 341 m 2,0,-1
 435 141 l 2,1,2
 435 98 435 98 442 65 c 0,3,4
 444 58 444 58 453 54 c 128,-1,5
 462 50 462 50 472 49 c 128,-1,6
 482 48 482 48 492 48 c 1,7,-1
 501 47 l 2,8,9
 504 46 504 46 504 36 c 0,10,11
 504 33 504 33 501.5 26.5 c 128,-1,12
 499 20 499 20 496 20 c 0,13,14
 481 19 481 19 462.5 16 c 128,-1,15
 444 13 444 13 428 9 c 128,-1,16
 412 5 412 5 398 1 c 128,-1,17
 384 -3 384 -3 376 -6 c 1,18,-1
 367 -8 l 1,19,20
 359 -8 359 -8 359 8 c 2,21,-1
 359 59 l 1,22,-1
 357 64 l 1,23,24
 291 -7 291 -7 226 -7 c 0,25,26
 189 -7 189 -7 162.5 11.5 c 128,-1,27
 136 30 136 30 123.5 60.5 c 128,-1,28
 111 91 111 91 106 119.5 c 128,-1,29
 101 148 101 148 101 179 c 2,30,-1
 101 305 l 2,31,32
 101 344 101 344 87 359 c 0,33,34
 77 371 77 371 62.5 375.5 c 128,-1,35
 48 380 48 380 38.5 380 c 128,-1,36
 29 380 29 380 29 382 c 0,37,38
 29 406 29 406 35 407 c 0,39,40
 141 423 141 423 173 433 c 1,41,-1
 178 434 l 2,42,43
 182 434 182 434 183 425.5 c 128,-1,44
 184 417 184 417 183 413 c 0,45,46
 177 365 177 365 177 339 c 2,47,-1
 177 204 l 2,48,49
 177 127 177 127 200 90.5 c 128,-1,50
 223 54 223 54 275 54 c 0,51,52
 305 54 305 54 332 77.5 c 128,-1,53
 359 101 359 101 359 118 c 2,54,-1
 359 305 l 2,55,56
 359 344 359 344 345 359 c 0,57,58
 335 371 335 371 320.5 375.5 c 128,-1,59
 306 380 306 380 296.5 380 c 128,-1,60
 287 380 287 380 287 382 c 0,61,62
 287 406 287 406 293 407 c 0,63,64
 399 423 399 423 431 433 c 1,65,-1
 436 434 l 2,66,67
 440 434 440 434 441 425.5 c 128,-1,68
 442 417 442 417 441 413 c 0,69,70
 435 365 435 365 435 341 c 2,0,-1
EndSplineSet
Validated: 1
EndChar

StartChar: v
Encoding: 118 118 89
Width: 493
VWidth: 0
GlyphClass: 2
Flags: W
LayerCount: 2
Fore
SplineSet
383 373 m 0,0,1
 383 405 383 405 311 405 c 0,2,3
 307 405 307 405 307 417.5 c 128,-1,4
 307 430 307 430 311 434 c 1,5,6
 322 433 322 433 352 431 c 128,-1,7
 382 429 382 429 406 429 c 1,8,-1
 506 434 l 1,9,10
 508 428 508 428 508 419 c 0,11,12
 508 405 508 405 501 405 c 0,13,14
 487 405 487 405 464 397 c 128,-1,15
 441 389 441 389 433 371 c 2,16,-1
 274 12 l 1,17,18
 272 5 272 5 262 -3 c 128,-1,19
 252 -11 252 -11 245 -11 c 128,-1,20
 238 -11 238 -11 236 -7 c 0,21,22
 219 30 219 30 161.5 165 c 128,-1,23
 104 300 104 300 61 385 c 0,24,25
 51 405 51 405 2 405 c 0,26,27
 -2 405 -2 405 -2 418 c 0,28,29
 -2 430 -2 430 2 434 c 1,30,31
 105 429 105 429 106 429 c 2,32,-1
 206 434 l 1,33,34
 208 430 208 430 206.5 417.5 c 128,-1,35
 205 405 205 405 202 405 c 0,36,37
 153 405 153 405 153 388 c 0,38,39
 153 386 153 386 154 384 c 2,40,-1
 274 113 l 1,41,-1
 375 343 l 2,42,43
 383 362 383 362 383 373 c 0,0,1
EndSplineSet
Validated: 1
EndChar

StartChar: w
Encoding: 119 119 90
Width: 734
VWidth: 0
GlyphClass: 2
Flags: W
LayerCount: 2
Fore
SplineSet
623 370 m 0,0,1
 623 405 623 405 557 405 c 2,2,-1
 553 405 l 2,3,4
 549 405 549 405 549 417.5 c 128,-1,5
 549 430 549 430 553 434 c 1,6,7
 568 433 568 433 586.5 432 c 128,-1,8
 605 431 605 431 620.5 430 c 128,-1,9
 636 429 636 429 654 429 c 0,10,11
 671 429 671 429 683.5 430 c 128,-1,12
 696 431 696 431 712 432 c 128,-1,13
 728 433 728 433 743 434 c 1,14,15
 745 428 745 428 745 419 c 0,16,17
 745 405 745 405 740 405 c 0,18,19
 727 405 727 405 705 396.5 c 128,-1,20
 683 388 683 388 676 369 c 2,21,-1
 545 11 l 2,22,23
 537 -11 537 -11 517 -11 c 0,24,25
 507 -11 507 -11 505 -7 c 2,26,-1
 382 287 l 1,27,-1
 281 11 l 2,28,29
 280 8 280 8 277 3.5 c 128,-1,30
 274 -1 274 -1 267.5 -6 c 128,-1,31
 261 -11 261 -11 254 -11 c 0,32,33
 244 -11 244 -11 242 -7 c 0,34,35
 218 47 218 47 187.5 122.5 c 128,-1,36
 157 198 157 198 130 258.5 c 128,-1,37
 103 319 103 319 67 383 c 0,38,39
 54 405 54 405 13 405 c 0,40,41
 9 405 9 405 9 418 c 0,42,43
 9 430 9 430 13 434 c 1,44,45
 28 433 28 433 46 432 c 128,-1,46
 64 431 64 431 79 430 c 128,-1,47
 94 429 94 429 112 429 c 2,48,-1
 212 434 l 1,49,50
 214 430 214 430 213.5 417.5 c 128,-1,51
 213 405 213 405 210 405 c 0,52,53
 160 405 160 405 160 382 c 0,54,55
 160 379 160 379 172.5 352 c 128,-1,56
 185 325 185 325 216 258.5 c 128,-1,57
 247 192 247 192 279 120 c 1,58,59
 296 169 296 169 317 228 c 128,-1,60
 338 287 338 287 346.5 312 c 128,-1,61
 355 337 355 337 355 341 c 0,62,63
 355 346 355 346 350.5 357 c 128,-1,64
 346 368 346 368 341 376 c 2,65,-1
 336 385 l 2,66,67
 330 394 330 394 317 400 c 0,68,69
 307 405 307 405 285 405 c 0,70,71
 281 405 281 405 281 417.5 c 128,-1,72
 281 430 281 430 285 434 c 1,73,74
 300 433 300 433 317.5 432 c 128,-1,75
 335 431 335 431 349.5 430 c 128,-1,76
 364 429 364 429 382 429 c 0,77,78
 399 429 399 429 413.5 430 c 128,-1,79
 428 431 428 431 447 432 c 128,-1,80
 466 433 466 433 480 434 c 1,81,82
 482 428 482 428 482 417 c 128,-1,83
 482 406 482 406 479 405 c 1,84,85
 431 405 431 405 431 366 c 0,86,87
 431 345 431 345 541 120 c 1,88,89
 556 166 556 166 579 231 c 128,-1,90
 602 296 602 296 612.5 327.5 c 128,-1,91
 623 359 623 359 623 370 c 0,0,1
EndSplineSet
Validated: 1
EndChar

StartChar: x
Encoding: 120 120 91
Width: 467
VWidth: 0
GlyphClass: 2
Flags: W
LayerCount: 2
Fore
SplineSet
13 420 m 1,0,1
 15 430 15 430 17 434 c 1,2,3
 114 429 114 429 117 429 c 0,4,5
 119 429 119 429 222 434 c 1,6,7
 223 430 223 430 223 422 c 0,8,9
 223 405 223 405 220 405 c 0,10,11
 180 405 180 405 180 388 c 0,12,13
 180 384 180 384 185 376 c 2,14,-1
 250 275 l 1,15,16
 257 286 257 286 271 306.5 c 128,-1,17
 285 327 285 327 293.5 339.5 c 128,-1,18
 302 352 302 352 309 366 c 128,-1,19
 316 380 316 380 316 387 c 0,20,21
 316 396 316 396 304.5 399.5 c 128,-1,22
 293 403 293 403 278.5 403.5 c 128,-1,23
 264 404 264 404 262 405 c 0,24,25
 259 406 259 406 259 421 c 0,26,27
 259 430 259 430 262 434 c 1,28,29
 364 429 364 429 367 429 c 128,-1,30
 370 429 370 429 458 434 c 1,31,32
 460 424 460 424 460 420 c 0,33,34
 460 405 460 405 457 405 c 0,35,36
 391 397 391 397 370 371 c 2,37,-1
 274 246 l 2,38,39
 272 243 272 243 272 239 c 0,40,41
 272 234 272 234 275 228 c 2,42,-1
 382 70 l 2,43,44
 409 30 409 30 466 26 c 0,45,46
 469 26 469 26 469 12 c 0,47,48
 469 2 469 2 465 -3 c 1,49,50
 372 2 372 2 371 2 c 0,51,52
 368 2 368 2 260 -3 c 1,53,54
 258 7 258 7 258 10 c 0,55,56
 258 26 258 26 261 26 c 0,57,58
 303 29 303 29 303 44 c 0,59,60
 303 46 303 46 301 50 c 2,61,-1
 225 170 l 1,62,-1
 156 67 l 2,63,64
 149 56 149 56 149 48 c 0,65,66
 149 30 149 30 199 26 c 1,67,-1
 204 26 l 2,68,69
 207 26 207 26 207 11 c 0,70,71
 207 1 207 1 203 -3 c 1,72,73
 106 2 106 2 103 2 c 0,74,75
 101 2 101 2 6 -3 c 1,76,77
 4 5 4 5 4 11 c 0,78,79
 4 26 4 26 8 26 c 0,80,81
 75 36 75 36 98 68 c 2,82,-1
 202 207 l 2,83,84
 202 208 202 208 202.5 210 c 128,-1,85
 203 212 203 212 203 213 c 0,86,87
 203 215 203 215 201 219 c 2,88,-1
 98 370 l 2,89,90
 89 383 89 383 61 394 c 128,-1,91
 33 405 33 405 16 405 c 1,92,-1
 13 420 l 1,0,1
EndSplineSet
Validated: 1
EndChar

StartChar: y
Encoding: 121 121 92
Width: 454
VWidth: 0
GlyphClass: 2
Flags: W
LayerCount: 2
Fore
SplineSet
114 429 m 0,0,1
 131 429 131 429 145.5 430 c 128,-1,2
 160 431 160 431 178.5 432 c 128,-1,3
 197 433 197 433 211 434 c 1,4,5
 213 428 213 428 213 419 c 0,6,7
 213 405 213 405 209 405 c 0,8,9
 201 405 201 405 182.5 398 c 128,-1,10
 164 391 164 391 162 384 c 1,11,-1
 162 382 l 2,12,13
 162 364 162 364 269 121 c 1,14,-1
 345 340 l 2,15,16
 352 361 352 361 352 371 c 0,17,18
 352 386 352 386 336.5 395.5 c 128,-1,19
 321 405 321 405 295 405 c 0,20,21
 291 405 291 405 291 418 c 0,22,23
 291 430 291 430 295 434 c 1,24,25
 360 429 360 429 384 429 c 1,26,-1
 471 434 l 1,27,28
 473 428 473 428 473 419 c 0,29,30
 473 405 473 405 469 405 c 0,31,32
 456 405 456 405 433.5 396 c 128,-1,33
 411 387 411 387 404 367 c 2,34,-1
 225 -116 l 2,35,36
 202 -178 202 -178 173 -202.5 c 128,-1,37
 144 -227 144 -227 120 -227 c 0,38,39
 99 -227 99 -227 89 -214 c 128,-1,40
 79 -201 79 -201 79 -188 c 0,41,42
 79 -166 79 -166 93 -156 c 1,43,44
 176 -156 176 -156 203 -70 c 1,45,46
 222 -13 222 -13 226 0 c 1,47,-1
 83 350 l 1,48,49
 72 374 72 374 63 384 c 0,50,51
 54 393 54 393 35.5 399 c 128,-1,52
 17 405 17 405 6 405 c 0,53,54
 2 405 2 405 2 418 c 0,55,56
 2 430 2 430 6 434 c 1,57,58
 109 429 109 429 114 429 c 0,0,1
EndSplineSet
Validated: 1
EndChar

StartChar: z
Encoding: 122 122 93
Width: 414
VWidth: 0
GlyphClass: 2
Flags: W
LayerCount: 2
Fore
SplineSet
135 47 m 0,0,1
 135 40 135 40 147 40 c 2,2,-1
 278 40 l 2,3,4
 320 40 320 40 339.5 61 c 128,-1,5
 359 82 359 82 370 120 c 1,6,7
 372 131 372 131 378 131 c 0,8,9
 400 131 400 131 407 119 c 1,10,-1
 386 0 l 1,11,-1
 49 0 l 1,12,13
 29 12 29 12 29 23 c 0,14,15
 29 26 29 26 30 27 c 2,16,-1
 287 384 l 1,17,-1
 138 385 l 2,18,19
 118 385 118 385 105 375.5 c 128,-1,20
 92 366 92 366 87.5 356 c 128,-1,21
 83 346 83 346 78.5 330.5 c 128,-1,22
 74 315 74 315 73 312 c 0,23,24
 70 306 70 306 49 306 c 0,25,26
 38 306 38 306 38 309 c 0,27,28
 38 313 38 313 45 356.5 c 128,-1,29
 52 400 52 400 54 430 c 1,30,31
 113 424 113 424 149 424 c 2,32,-1
 271 424 l 2,33,34
 327 424 327 424 393 432 c 1,35,36
 396 427 396 427 396 408 c 1,37,-1
 142 61 l 2,38,39
 135 51 135 51 135 47 c 0,0,1
EndSplineSet
Validated: 1
EndChar

StartChar: braceleft
Encoding: 123 123 94
Width: 324
VWidth: 0
GlyphClass: 2
Flags: W
LayerCount: 2
Fore
SplineSet
66 292 m 1,0,1
 63 298 63 298 63 310 c 128,-1,2
 63 322 63 322 67 329 c 1,3,4
 96 336 96 336 111.5 342 c 128,-1,5
 127 348 127 348 142 364.5 c 128,-1,6
 157 381 157 381 157 406 c 128,-1,7
 157 431 157 431 132 487 c 128,-1,8
 107 543 107 543 107 575 c 0,9,10
 107 657 107 657 153 703.5 c 128,-1,11
 199 750 199 750 266 750 c 0,12,13
 270 750 270 750 270 742 c 0,14,15
 270 723 270 723 259 721 c 1,16,17
 230 719 230 719 195 688 c 128,-1,18
 160 657 160 657 160 613 c 0,19,20
 160 578 160 578 185 522 c 128,-1,21
 210 466 210 466 210 423 c 0,22,23
 210 377 210 377 182.5 343 c 128,-1,24
 155 309 155 309 126 308 c 1,25,26
 156 307 156 307 183.5 275 c 128,-1,27
 211 243 211 243 211 197 c 0,28,29
 211 154 211 154 185.5 103.5 c 128,-1,30
 160 53 160 53 160 18 c 0,31,32
 160 -26 160 -26 195.5 -60 c 128,-1,33
 231 -94 231 -94 259 -96 c 1,34,35
 270 -98 270 -98 270 -118 c 0,36,37
 270 -125 270 -125 266 -125 c 0,38,39
 201 -125 201 -125 155 -73.5 c 128,-1,40
 109 -22 109 -22 109 55 c 0,41,42
 109 85 109 85 133 139.5 c 128,-1,43
 157 194 157 194 157 219 c 0,44,45
 157 232 157 232 152.5 242 c 128,-1,46
 148 252 148 252 144 258 c 128,-1,47
 140 264 140 264 126.5 270.5 c 128,-1,48
 113 277 113 277 109 279 c 128,-1,49
 105 281 105 281 86.5 286 c 128,-1,50
 68 291 68 291 66 292 c 1,0,1
EndSplineSet
Validated: 1
EndChar

StartChar: bar
Encoding: 124 124 95
Width: 264
VWidth: 0
GlyphClass: 2
Flags: W
LayerCount: 2
Fore
SplineSet
164 -106 m 2,0,1
 164 -111 164 -111 137.5 -117 c 128,-1,2
 111 -123 111 -123 105 -123 c 0,3,4
 100 -123 100 -123 100 -115 c 2,5,-1
 100 757 l 1,6,7
 99 763 99 763 105 765 c 0,8,9
 129 772 129 772 155 772 c 0,10,11
 159 772 159 772 161 770.5 c 128,-1,12
 163 769 163 769 163 768 c 2,13,-1
 163 766 l 1,14,-1
 164 -106 l 2,0,1
EndSplineSet
Validated: 1
EndChar

StartChar: braceright
Encoding: 125 125 96
Width: 325
VWidth: 0
GlyphClass: 2
Flags: W
LayerCount: 2
Fore
SplineSet
258 292 m 1,0,1
 254 291 254 291 240.5 287 c 128,-1,2
 227 283 227 283 221.5 281 c 128,-1,3
 216 279 216 279 205 274.5 c 128,-1,4
 194 270 194 270 189 265.5 c 128,-1,5
 184 261 184 261 178 254.5 c 128,-1,6
 172 248 172 248 169.5 239 c 128,-1,7
 167 230 167 230 167 219 c 0,8,9
 167 194 167 194 191 139.5 c 128,-1,10
 215 85 215 85 215 55 c 0,11,12
 215 -22 215 -22 169 -73.5 c 128,-1,13
 123 -125 123 -125 58 -125 c 0,14,15
 54 -125 54 -125 54 -118 c 0,16,17
 54 -98 54 -98 65 -96 c 1,18,19
 93 -94 93 -94 128.5 -60 c 128,-1,20
 164 -26 164 -26 164 18 c 0,21,22
 164 53 164 53 138.5 103.5 c 128,-1,23
 113 154 113 154 113 197 c 0,24,25
 113 243 113 243 140.5 275 c 128,-1,26
 168 307 168 307 198 308 c 1,27,28
 169 309 169 309 141.5 343 c 128,-1,29
 114 377 114 377 114 423 c 0,30,31
 114 466 114 466 139 522 c 128,-1,32
 164 578 164 578 164 613 c 0,33,34
 164 657 164 657 129 688 c 128,-1,35
 94 719 94 719 65 721 c 1,36,37
 54 723 54 723 54 742 c 0,38,39
 54 750 54 750 58 750 c 0,40,41
 125 750 125 750 171 703.5 c 128,-1,42
 217 657 217 657 217 575 c 0,43,44
 217 543 217 543 192 487 c 128,-1,45
 167 431 167 431 167 406 c 128,-1,46
 167 381 167 381 182 364.5 c 128,-1,47
 197 348 197 348 212.5 342 c 128,-1,48
 228 336 228 336 257 329 c 1,49,50
 261 322 261 322 261 310 c 128,-1,51
 261 298 261 298 258 292 c 1,0,1
EndSplineSet
Validated: 1
EndChar

StartChar: asciitilde
Encoding: 126 126 97
Width: 576
VWidth: 0
GlyphClass: 2
Flags: W
LayerCount: 2
Fore
SplineSet
65 259 m 1,0,1
 56 264 56 264 56 276 c 0,2,3
 56 297 56 297 80 315 c 0,4,5
 111 338 111 338 132 346 c 128,-1,6
 153 354 153 354 186 354 c 0,7,8
 233 354 233 354 304 327.5 c 128,-1,9
 375 301 375 301 422 301 c 0,10,11
 429 301 429 301 436 302 c 128,-1,12
 443 303 443 303 448 304.5 c 128,-1,13
 453 306 453 306 460 309.5 c 128,-1,14
 467 313 467 313 470.5 314.5 c 128,-1,15
 474 316 474 316 481.5 321.5 c 128,-1,16
 489 327 489 327 491 328.5 c 128,-1,17
 493 330 493 330 501.5 336.5 c 128,-1,18
 510 343 510 343 512 345 c 1,19,20
 521 340 521 340 521 328 c 0,21,22
 521 306 521 306 498 289 c 0,23,24
 467 266 467 266 446.5 258 c 128,-1,25
 426 250 426 250 393 250 c 0,26,27
 346 250 346 250 275 276.5 c 128,-1,28
 204 303 204 303 156 303 c 0,29,30
 138 303 138 303 120 295 c 128,-1,31
 102 287 102 287 94.5 282 c 128,-1,32
 87 277 87 277 65 259 c 1,0,1
EndSplineSet
Validated: 1
EndChar

StartChar: exclamdown
Encoding: 161 161 99
Width: 166
VWidth: 0
GlyphClass: 2
Flags: W
LayerCount: 2
Fore
SplineSet
80 -224 m 0,0,1
 58 -224 58 -224 46.5 -205.5 c 128,-1,2
 35 -187 35 -187 35 -161 c 0,3,4
 35 -151 35 -151 39.5 -108 c 128,-1,5
 44 -65 44 -65 51.5 29.5 c 128,-1,6
 59 124 59 124 66 237 c 0,7,8
 67 252 67 252 71 257.5 c 128,-1,9
 75 263 75 263 90 270 c 0,10,11
 95 272 95 272 98.5 265 c 128,-1,12
 102 258 102 258 103 248 c 0,13,14
 111 118 111 118 118.5 22.5 c 128,-1,15
 126 -73 126 -73 129 -106.5 c 128,-1,16
 132 -140 132 -140 132 -161 c 0,17,18
 132 -186 132 -186 117.5 -205 c 128,-1,19
 103 -224 103 -224 80 -224 c 0,0,1
41.5 414.5 m 128,-1,21
 58 432 58 432 82 432 c 128,-1,22
 106 432 106 432 123 414.5 c 128,-1,23
 140 397 140 397 140 373 c 128,-1,24
 140 349 140 349 123 332.5 c 128,-1,25
 106 316 106 316 82 316 c 128,-1,26
 58 316 58 316 41.5 332.5 c 128,-1,27
 25 349 25 349 25 373 c 128,-1,20
 25 397 25 397 41.5 414.5 c 128,-1,21
EndSplineSet
Validated: 1
EndChar

StartChar: cent
Encoding: 162 162 100
Width: 464
VWidth: 0
GlyphClass: 2
Flags: W
LayerCount: 2
Fore
SplineSet
279 474 m 1,0,1
 314 474 314 474 314 466 c 1,2,-1
 231 -45 l 1,3,4
 196 -45 196 -45 196 -36 c 1,5,-1
 279 474 l 1,0,1
254 435 m 0,6,7
 169 435 169 435 114.5 367 c 128,-1,8
 60 299 60 299 60 211 c 0,9,10
 60 107 60 107 116 49.5 c 128,-1,11
 172 -8 172 -8 258 -8 c 0,12,13
 337 -8 337 -8 406 67 c 0,14,15
 412 73 412 73 412 85 c 0,16,17
 412 88 412 88 410.5 91.5 c 128,-1,18
 409 95 409 95 408 97 c 128,-1,19
 407 99 407 99 406 99 c 128,-1,20
 405 99 405 99 399.5 94 c 128,-1,21
 394 89 394 89 384 82.5 c 128,-1,22
 374 76 374 76 361 69 c 128,-1,23
 348 62 348 62 328.5 57 c 128,-1,24
 309 52 309 52 289 52 c 0,25,26
 214 52 214 52 175 107.5 c 128,-1,27
 136 163 136 163 136 245 c 0,28,29
 136 325 136 325 169 362.5 c 128,-1,30
 202 400 202 400 244 400 c 0,31,32
 265 400 265 400 282.5 392 c 128,-1,33
 300 384 300 384 308 375.5 c 128,-1,34
 316 367 316 367 331 350 c 0,35,36
 333 348 333 348 336.5 343.5 c 128,-1,37
 340 339 340 339 341.5 337 c 128,-1,38
 343 335 343 335 348 330 c 128,-1,39
 353 325 353 325 355.5 323 c 128,-1,40
 358 321 358 321 360 320 c 128,-1,41
 362 319 362 319 364.5 318.5 c 128,-1,42
 367 318 367 318 370 318 c 0,43,44
 406 318 406 318 406 381 c 1,45,46
 391 408 391 408 347.5 421.5 c 128,-1,47
 304 435 304 435 254 435 c 0,6,7
EndSplineSet
Validated: 5
EndChar

StartChar: sterling
Encoding: 163 163 101
Width: 473
VWidth: 0
GlyphClass: 2
Flags: W
LayerCount: 2
Fore
SplineSet
51 319 m 1,0,-1
 318 319 l 2,1,2
 323 319 323 319 323 309 c 0,3,4
 323 289 323 289 308 279 c 1,5,-1
 50 279 l 2,6,7
 45 279 45 279 45 292 c 0,8,9
 45 310 45 310 51 319 c 1,0,-1
282 635 m 0,10,11
 334 635 334 635 359 598 c 1,12,13
 359 539 359 539 329 539 c 0,14,15
 308 539 308 539 286 566 c 128,-1,16
 264 593 264 593 243 593 c 0,17,18
 219 593 219 593 203 580 c 128,-1,19
 187 567 187 567 180.5 543 c 128,-1,20
 174 519 174 519 172 497 c 128,-1,21
 170 475 170 475 170 444 c 0,22,23
 170 424 170 424 174 343 c 128,-1,24
 178 262 178 262 178 258 c 0,25,26
 178 160 178 160 133 84 c 1,27,28
 156 93 156 93 205 93 c 0,29,30
 234 93 234 93 289 77 c 128,-1,31
 344 61 344 61 362 61 c 0,32,33
 375 61 375 61 386.5 70 c 128,-1,34
 398 79 398 79 404 88.5 c 128,-1,35
 410 98 410 98 419 115 c 128,-1,36
 428 132 428 132 430 135 c 1,37,38
 436 135 436 135 442.5 129.5 c 128,-1,39
 449 124 449 124 449 117 c 128,-1,40
 449 110 449 110 448 108 c 0,41,42
 404 -8 404 -8 331 -8 c 0,43,44
 297 -8 297 -8 230 10.5 c 128,-1,45
 163 29 163 29 140 29 c 0,46,47
 105 29 105 29 65 -9 c 1,48,49
 56 -9 56 -9 51 -2.5 c 128,-1,50
 46 4 46 4 46 10 c 1,51,52
 55 27 55 27 71 50 c 128,-1,53
 87 73 87 73 93 82 c 1,54,55
 97 90 97 90 100 100.5 c 128,-1,56
 103 111 103 111 104.5 124 c 128,-1,57
 106 137 106 137 107 148 c 128,-1,58
 108 159 108 159 108.5 175.5 c 2,59,-1
 109 249 l 2,60,61
 109 258 109 258 104.5 332 c 128,-1,62
 100 406 100 406 100 423 c 0,63,64
 100 517 100 517 150.5 576 c 128,-1,65
 201 635 201 635 282 635 c 0,10,11
EndSplineSet
Validated: 5
EndChar

StartChar: currency
Encoding: 164 164 102
Width: 468
VWidth: 0
GlyphClass: 2
Flags: W
LayerCount: 2
Fore
SplineSet
240 152 m 0,0,1
 284 152 284 152 312.5 194 c 128,-1,2
 341 236 341 236 341 294 c 0,3,4
 341 363 341 363 305.5 413 c 128,-1,5
 270 463 270 463 223 463 c 0,6,7
 179 463 179 463 150 420 c 128,-1,8
 121 377 121 377 121 319 c 0,9,10
 121 251 121 251 156.5 201.5 c 128,-1,11
 192 152 192 152 240 152 c 0,0,1
344 455 m 1,12,-1
 403 510 l 2,13,14
 407 514 407 514 415.5 508 c 128,-1,15
 424 502 424 502 432.5 490 c 128,-1,16
 441 478 441 478 444 466 c 1,17,-1
 384 410 l 1,18,19
 413 362 413 362 413 307 c 0,20,21
 413 248 413 248 380 199 c 1,22,-1
 434 141 l 2,23,24
 438 137 438 137 432 128.5 c 128,-1,25
 426 120 426 120 414 111.5 c 128,-1,26
 402 103 402 103 390 100 c 1,27,-1
 338 155 l 1,28,29
 290 120 290 120 232 120 c 0,30,31
 168 120 168 120 118 160 c 1,32,-1
 65 110 l 2,33,34
 61 106 61 106 52.5 112 c 128,-1,35
 44 118 44 118 35.5 130 c 128,-1,36
 27 142 27 142 24 154 c 1,37,-1
 78 205 l 1,38,39
 48 252 48 252 48 307 c 0,40,41
 48 372 48 372 86 423 c 1,42,-1
 34 479 l 2,43,44
 30 483 30 483 36 491.5 c 128,-1,45
 42 500 42 500 54 508.5 c 128,-1,46
 66 517 66 517 78 520 c 1,47,-1
 130 465 l 1,48,49
 175 496 175 496 232 496 c 0,50,51
 295 496 295 496 344 455 c 1,12,-1
EndSplineSet
Validated: 1
EndChar

StartChar: yen
Encoding: 165 165 103
Width: 658
VWidth: 0
GlyphClass: 2
Flags: W
LayerCount: 2
Fore
SplineSet
143 636 m 0,0,1
 151 636 151 636 268 642 c 1,2,3
 270 638 270 638 269.5 626.5 c 128,-1,4
 269 615 269 615 266 615 c 0,5,6
 249 615 249 615 228.5 607 c 128,-1,7
 208 599 208 599 208 583 c 0,8,9
 208 572 208 572 218 554 c 2,10,-1
 327 348 l 1,11,12
 332 343 332 343 337 350 c 0,13,14
 469 550 469 550 469 584 c 0,15,16
 469 595 469 595 450 605 c 128,-1,17
 431 615 431 615 402 615 c 0,18,19
 398 615 398 615 398 626.5 c 128,-1,20
 398 638 398 638 402 642 c 1,21,22
 413 641 413 641 443 638.5 c 128,-1,23
 473 636 473 636 494 636 c 128,-1,24
 515 636 515 636 632 642 c 1,25,26
 634 636 634 636 634 627 c 0,27,28
 634 615 634 615 630 615 c 0,29,30
 617 615 617 615 582 606.5 c 128,-1,31
 547 598 547 598 537 586 c 1,32,33
 495 521 495 521 427.5 408 c 128,-1,34
 360 295 360 295 360 282 c 2,35,-1
 360 254 l 1,36,-1
 452 254 l 2,37,38
 457 254 457 254 457 241 c 0,39,40
 457 225 457 225 451 216 c 1,41,-1
 360 216 l 1,42,-1
 360 176 l 1,43,-1
 452 176 l 2,44,45
 457 176 457 176 457 163 c 0,46,47
 457 147 457 147 451 138 c 1,48,-1
 360 138 l 1,49,50
 360 73 360 73 367 46 c 0,51,52
 369 39 369 39 393 31.5 c 128,-1,53
 417 24 417 24 426 24 c 0,54,55
 430 24 430 24 430 12 c 0,56,57
 430 3 430 3 428 -3 c 1,58,59
 330 2 330 2 320 2 c 0,60,61
 316 2 316 2 206 -3 c 1,62,63
 202 1 202 1 202 10 c 0,64,65
 202 24 202 24 206 24 c 0,66,67
 218 24 218 24 241.5 31 c 128,-1,68
 265 38 265 38 268 46 c 0,69,70
 276 77 276 77 276 138 c 1,71,-1
 184 138 l 2,72,73
 179 138 179 138 179 151 c 0,74,75
 179 167 179 167 185 176 c 1,76,-1
 276 176 l 1,77,-1
 276 216 l 1,78,-1
 184 216 l 2,79,80
 179 216 179 216 179 229 c 0,81,82
 179 245 179 245 185 254 c 1,83,-1
 276 254 l 1,84,85
 276 268 276 268 275 270 c 0,86,87
 271 288 271 288 134 532 c 1,88,89
 116 567 116 567 91 594 c 0,90,91
 82 603 82 603 60.5 609 c 128,-1,92
 39 615 39 615 27 615 c 0,93,94
 23 615 23 615 23 626 c 0,95,96
 23 638 23 638 27 642 c 1,97,98
 43 641 43 641 79.5 638.5 c 128,-1,99
 116 636 116 636 143 636 c 0,0,1
EndSplineSet
Validated: 1
EndChar

StartChar: brokenbar
Encoding: 166 166 104
Width: 137
VWidth: 0
GlyphClass: 2
Flags: W
LayerCount: 2
Fore
SplineSet
37 389 m 1,0,-1
 37 753 l 1,1,2
 36 759 36 759 42 761 c 0,3,4
 66 768 66 768 91 768 c 0,5,6
 95 768 95 768 97 766.5 c 128,-1,7
 99 765 99 765 99 764 c 2,8,-1
 99 762 l 1,9,-1
 100 397 l 2,10,11
 99 397 99 397 98 395 c 128,-1,12
 97 393 97 393 95 392 c 128,-1,13
 93 391 93 391 88 389.5 c 128,-1,14
 83 388 83 388 73 386 c 128,-1,15
 63 384 63 384 48 382 c 0,16,17
 42 381 42 381 39.5 381.5 c 1,18,-1
 37 387 l 1,19,-1
 37 389 l 1,0,-1
37 -115 m 2,20,-1
 37 249 l 1,21,22
 36 255 36 255 42 257 c 0,23,24
 66 264 66 264 91 264 c 0,25,26
 95 264 95 264 97 262.5 c 128,-1,27
 99 261 99 261 99 260 c 2,28,-1
 99 258 l 1,29,-1
 100 -106 l 1,30,-1
 98 -108 l 2,31,32
 95 -111 95 -111 92 -112.5 c 128,-1,33
 89 -114 89 -114 77.5 -117 c 128,-1,34
 66 -120 66 -120 48 -122 c 0,35,36
 46 -122 46 -122 44.5 -122.5 c 128,-1,37
 43 -123 43 -123 42 -123 c 0,38,39
 37 -123 37 -123 37 -115 c 2,20,-1
EndSplineSet
Validated: 1
EndChar

StartChar: section
Encoding: 167 167 105
Width: 382
VWidth: 0
GlyphClass: 2
Flags: W
LayerCount: 2
Fore
SplineSet
354 263 m 0,0,1
 354 181 354 181 295 140 c 1,2,3
 309 109 309 109 309 90 c 0,4,5
 309 52 309 52 294.5 25 c 128,-1,6
 280 -2 280 -2 257 -15.5 c 128,-1,7
 234 -29 234 -29 210.5 -35 c 128,-1,8
 187 -41 187 -41 163 -41 c 0,9,10
 97 -41 97 -41 74 -7 c 1,11,12
 74 -5 74 -5 73.5 0 c 128,-1,13
 73 5 73 5 73 7 c 0,14,15
 73 52 73 52 105 52 c 0,16,17
 118 52 118 52 145 25.5 c 128,-1,18
 172 -1 172 -1 196 -1 c 0,19,20
 224 -1 224 -1 240.5 15.5 c 128,-1,21
 257 32 257 32 257 62 c 0,22,23
 257 99 257 99 233 123 c 128,-1,24
 209 147 209 147 175.5 162.5 c 128,-1,25
 142 178 142 178 108 196 c 128,-1,26
 74 214 74 214 50 251.5 c 128,-1,27
 26 289 26 289 26 345 c 0,28,29
 26 427 26 427 85 469 c 1,30,31
 71 493 71 493 71 518 c 0,32,33
 71 582 71 582 113 616.5 c 128,-1,34
 155 651 155 651 217 651 c 0,35,36
 281 651 281 651 305 615 c 1,37,38
 305 613 305 613 305.5 608.5 c 128,-1,39
 306 604 306 604 306 602 c 0,40,41
 306 557 306 557 275 557 c 0,42,43
 262 557 262 557 235 584 c 128,-1,44
 208 611 208 611 184 611 c 128,-1,45
 160 611 160 611 141.5 595 c 128,-1,46
 123 579 123 579 123 547 c 0,47,48
 123 511 123 511 147 487 c 128,-1,49
 171 463 171 463 204.5 447.5 c 128,-1,50
 238 432 238 432 272 413.5 c 128,-1,51
 306 395 306 395 330 357 c 128,-1,52
 354 319 354 319 354 263 c 0,0,1
282 173 m 1,53,54
 297 188 297 188 298 190 c 128,-1,55
 299 192 299 192 301 195.5 c 128,-1,56
 303 199 303 199 304 201.5 c 128,-1,57
 305 204 305 204 306 208 c 128,-1,58
 307 212 307 212 307.5 216 c 128,-1,59
 308 220 308 220 308 225 c 0,60,61
 308 264 308 264 282.5 292.5 c 128,-1,62
 257 321 257 321 224 336.5 c 128,-1,63
 191 352 191 352 153.5 378 c 128,-1,64
 116 404 116 404 98 435 c 1,65,66
 72 414 72 414 72 383 c 0,67,68
 72 344 72 344 97.5 315.5 c 128,-1,69
 123 287 123 287 155.5 272 c 128,-1,70
 188 257 188 257 226 230.5 c 128,-1,71
 264 204 264 204 282 173 c 1,53,54
EndSplineSet
Validated: 1
EndChar

StartChar: dieresis
Encoding: 168 168 106
Width: 333
VWidth: 0
GlyphClass: 2
Flags: W
LayerCount: 2
Fore
SplineSet
295.5 551 m 128,-1,1
 310 536 310 536 310 516 c 128,-1,2
 310 496 310 496 295 482 c 128,-1,3
 280 468 280 468 260 468 c 128,-1,4
 240 468 240 468 225 482.5 c 128,-1,5
 210 497 210 497 210 517 c 128,-1,6
 210 537 210 537 225.5 551.5 c 128,-1,7
 241 566 241 566 261 566 c 128,-1,0
 281 566 281 566 295.5 551 c 128,-1,1
112.5 551 m 128,-1,9
 127 536 127 536 127 516 c 128,-1,10
 127 496 127 496 112 482 c 128,-1,11
 97 468 97 468 77 468 c 128,-1,12
 57 468 57 468 42 482.5 c 128,-1,13
 27 497 27 497 27 517 c 128,-1,14
 27 537 27 537 42.5 551.5 c 128,-1,15
 58 566 58 566 78 566 c 128,-1,8
 98 566 98 566 112.5 551 c 128,-1,9
EndSplineSet
Validated: 1
EndChar

StartChar: copyright
Encoding: 169 169 107
Width: 603
VWidth: 0
GlyphClass: 2
Flags: W
LayerCount: 2
Fore
SplineSet
428 276 m 1,0,1
 428 271 428 271 420 243.5 c 128,-1,2
 412 216 412 216 408 214 c 0,3,4
 361 195 361 195 302 195 c 0,5,6
 241 195 241 195 200 236 c 128,-1,7
 159 277 159 277 159 336 c 0,8,9
 159 397 159 397 199 440 c 128,-1,10
 239 483 239 483 300 483 c 0,11,12
 362 483 362 483 412 464 c 1,13,14
 428 407 428 407 428 403 c 0,15,16
 428 394 428 394 412 394 c 0,17,18
 409 394 409 394 405 396 c 1,19,20
 403 406 403 406 396 416 c 128,-1,21
 389 426 389 426 366.5 437.5 c 128,-1,22
 344 449 344 449 312 449 c 0,23,24
 272 449 272 449 244 418 c 128,-1,25
 216 387 216 387 216 345 c 0,26,27
 216 289 216 289 249 258 c 128,-1,28
 282 227 282 227 321 227 c 0,29,30
 372 227 372 227 393 246 c 0,31,32
 398 251 398 251 401.5 259 c 128,-1,33
 405 267 405 267 406 273 c 128,-1,34
 407 279 407 279 408 279 c 0,35,36
 426 279 426 279 428 276 c 1,0,1
108 535 m 128,-1,38
 188 615 188 615 301 615 c 128,-1,39
 414 615 414 615 494.5 535 c 128,-1,40
 575 455 575 455 575 342 c 128,-1,41
 575 229 575 229 494.5 149 c 128,-1,42
 414 69 414 69 301 69 c 128,-1,43
 188 69 188 69 108 149 c 128,-1,44
 28 229 28 229 28 342 c 128,-1,37
 28 455 28 455 108 535 c 128,-1,38
131.5 171 m 128,-1,46
 202 100 202 100 302 100 c 128,-1,47
 402 100 402 100 473 171 c 128,-1,48
 544 242 544 242 544 342 c 128,-1,49
 544 442 544 442 473 513 c 128,-1,50
 402 584 402 584 302 584 c 128,-1,51
 202 584 202 584 131.5 513 c 128,-1,52
 61 442 61 442 61 342 c 128,-1,45
 61 242 61 242 131.5 171 c 128,-1,46
EndSplineSet
Validated: 1
EndChar

StartChar: ordfeminine
Encoding: 170 170 108
Width: 316
VWidth: 0
GlyphClass: 2
Flags: W
LayerCount: 2
Fore
SplineSet
181 324 m 2,0,-1
 181 392 l 1,1,2
 174 389 174 389 154 383 c 128,-1,3
 134 377 134 377 122 372 c 128,-1,4
 110 367 110 367 99 355.5 c 128,-1,5
 88 344 88 344 88 328 c 0,6,7
 88 309 88 309 99.5 299 c 128,-1,8
 111 289 111 289 128 289 c 0,9,10
 146 289 146 289 163.5 301 c 128,-1,11
 181 313 181 313 181 324 c 2,0,-1
236 318 m 2,12,13
 236 304 236 304 243 293.5 c 128,-1,14
 250 283 250 283 262 283 c 1,15,-1
 284 291 l 1,16,-1
 287 293 l 1,17,18
 290 292 290 292 290 290 c 0,19,20
 288 283 288 283 286 273 c 1,21,22
 254 250 254 250 238 250 c 128,-1,23
 222 250 222 250 207.5 263.5 c 128,-1,24
 193 277 193 277 188 291 c 1,25,-1
 180 284 l 2,26,27
 171 277 171 277 161 269.5 c 128,-1,28
 151 262 151 262 134.5 255.5 c 128,-1,29
 118 249 118 249 102 249 c 0,30,31
 70 249 70 249 49 266 c 128,-1,32
 28 283 28 283 28 317 c 0,33,34
 28 333 28 333 36 346.5 c 128,-1,35
 44 360 44 360 54 368.5 c 128,-1,36
 64 377 64 377 82.5 386.5 c 128,-1,37
 101 396 101 396 113 400 c 128,-1,38
 125 404 125 404 146.5 411.5 c 128,-1,39
 168 419 168 419 175 421 c 0,40,41
 181 422 181 422 181 431 c 2,42,-1
 181 489 l 2,43,44
 181 507 181 507 167.5 518 c 128,-1,45
 154 529 154 529 134 529 c 0,46,47
 113 529 113 529 99.5 515 c 128,-1,48
 86 501 86 501 86 478 c 0,49,50
 86 456 86 456 52 456 c 0,51,52
 31 456 31 456 31 467 c 0,53,54
 31 497 31 497 73.5 526.5 c 128,-1,55
 116 556 116 556 160 556 c 0,56,57
 202 556 202 556 219 538.5 c 128,-1,58
 236 521 236 521 236 484 c 2,59,-1
 236 318 l 2,12,13
EndSplineSet
Validated: 1
EndChar

StartChar: guillemotleft
Encoding: 171 171 109
Width: 469
VWidth: 0
GlyphClass: 2
Flags: W
LayerCount: 2
Fore
SplineSet
294 247 m 1,0,-1
 381 157 l 2,1,2
 391 147 391 147 401 137.5 c 128,-1,3
 411 128 411 128 424 115 c 128,-1,4
 437 102 437 102 439 99.5 c 128,-1,5
 441 97 441 97 441.5 95 c 128,-1,6
 442 93 442 93 442 91 c 0,7,8
 442 87 442 87 439 83.5 c 128,-1,9
 436 80 436 80 433 78.5 c 128,-1,10
 430 77 430 77 425 75.5 c 128,-1,11
 420 74 420 74 419 73 c 1,12,13
 418 75 418 75 399.5 91.5 c 128,-1,14
 381 108 381 108 330 146.5 c 128,-1,15
 279 185 279 185 213 227 c 1,16,17
 206 230 206 230 206 241 c 0,18,19
 206 259 206 259 214 268 c 1,20,21
 342 345 342 345 420 423 c 1,22,23
 443 417 443 417 443 404 c 0,24,25
 443 398 443 398 434 388.5 c 128,-1,26
 425 379 425 379 382 338 c 0,27,28
 369 325 369 325 335 289.5 c 128,-1,29
 301 254 301 254 294 247 c 1,0,-1
115 247 m 1,30,-1
 202 157 l 2,31,32
 212 147 212 147 222 137.5 c 128,-1,33
 232 128 232 128 245 115 c 128,-1,34
 258 102 258 102 260 99.5 c 128,-1,35
 262 97 262 97 262.5 95 c 128,-1,36
 263 93 263 93 263 91 c 0,37,38
 263 87 263 87 260 83.5 c 128,-1,39
 257 80 257 80 254 78.5 c 128,-1,40
 251 77 251 77 246 75.5 c 128,-1,41
 241 74 241 74 240 73 c 1,42,43
 239 75 239 75 220.5 91.5 c 128,-1,44
 202 108 202 108 151 146.5 c 128,-1,45
 100 185 100 185 34 227 c 1,46,47
 27 230 27 230 27 241 c 0,48,49
 27 259 27 259 35 268 c 1,50,51
 163 345 163 345 241 423 c 1,52,53
 264 417 264 417 264 404 c 0,54,55
 264 398 264 398 255 388.5 c 128,-1,56
 246 379 246 379 203 338 c 0,57,58
 190 325 190 325 156 289.5 c 128,-1,59
 122 254 122 254 115 247 c 1,30,-1
EndSplineSet
Validated: 1
EndChar

StartChar: logicalnot
Encoding: 172 172 110
Width: 538
VWidth: 0
GlyphClass: 2
Flags: W
LayerCount: 2
Fore
SplineSet
29 374 m 1,0,1
 34 420 34 420 44 420 c 2,2,-1
 488 420 l 2,3,4
 500 420 500 420 500 409 c 2,5,-1
 500 169 l 1,6,7
 490 159 490 159 451 154 c 1,8,-1
 447 154 l 2,9,10
 443 154 443 154 441 156 c 128,-1,11
 439 158 439 158 440 160 c 1,12,-1
 440 161 l 1,13,-1
 440 354 l 2,14,15
 440 364 440 364 429 364 c 2,16,-1
 35 364 l 2,17,18
 29 364 29 364 29 374 c 1,0,1
EndSplineSet
Validated: 1
EndChar

StartChar: registered
Encoding: 174 174 111
Width: 604
VWidth: 0
GlyphClass: 2
Flags: W
LayerCount: 2
Fore
SplineSet
109 600 m 128,-1,1
 189 680 189 680 302 680 c 128,-1,2
 415 680 415 680 495.5 600 c 128,-1,3
 576 520 576 520 576 407 c 128,-1,4
 576 294 576 294 495.5 213.5 c 128,-1,5
 415 133 415 133 302 133 c 128,-1,6
 189 133 189 133 109 213.5 c 128,-1,7
 29 294 29 294 29 407 c 128,-1,0
 29 520 29 520 109 600 c 128,-1,1
132.5 236 m 128,-1,9
 203 165 203 165 303 165 c 128,-1,10
 403 165 403 165 474 236 c 128,-1,11
 545 307 545 307 545 407 c 128,-1,12
 545 507 545 507 474 577.5 c 128,-1,13
 403 648 403 648 303 648 c 128,-1,14
 203 648 203 648 132.5 577.5 c 128,-1,15
 62 507 62 507 62 407 c 128,-1,8
 62 307 62 307 132.5 236 c 128,-1,9
456 280 m 0,16,17
 456 272 456 272 441 272 c 0,18,19
 394 272 394 272 368.5 293.5 c 128,-1,20
 343 315 343 315 293 398 c 0,21,22
 288 406 288 406 279 406 c 1,23,24
 272 407 272 407 261 406 c 0,25,26
 259 406 259 406 259 399 c 2,27,-1
 259 335 l 1,28,29
 260 305 260 305 263 294 c 0,30,31
 264 291 264 291 274.5 288 c 128,-1,32
 285 285 285 285 289 285 c 0,33,34
 290 285 290 285 290.5 280 c 128,-1,35
 291 275 291 275 290 273 c 1,36,37
 273 274 273 274 227 274 c 0,38,39
 197 274 197 274 177 273 c 1,40,41
 175 275 175 275 175 280 c 128,-1,42
 175 285 175 285 177 285 c 0,43,44
 182 285 182 285 193 288 c 128,-1,45
 204 291 204 291 205 294 c 0,46,47
 208 303 208 303 208 319 c 2,48,-1
 207 335 l 1,49,-1
 207 490 l 1,50,51
 208 498 208 498 208 506 c 0,52,53
 208 522 208 522 205 531 c 0,54,55
 204 534 204 534 193.5 537.5 c 128,-1,56
 183 541 183 541 178 541 c 0,57,58
 177 541 177 541 177 546 c 0,59,60
 177 552 177 552 178 553 c 1,61,62
 197 550 197 550 226 550 c 0,63,64
 239 550 239 550 263 552 c 128,-1,65
 287 554 287 554 300 554 c 0,66,67
 333 554 333 554 363.5 535 c 128,-1,68
 394 516 394 516 394 477 c 0,69,70
 394 435 394 435 346 414 c 0,71,72
 345 414 345 414 345 412 c 0,73,74
 345 400 345 400 415 307 c 0,75,76
 431 286 431 286 455 286 c 1,77,78
 456 284 456 284 456 280 c 0,16,17
306 428 m 0,79,80
 320 428 320 428 332 441.5 c 128,-1,81
 344 455 344 455 344 474 c 0,82,83
 344 529 344 529 294 529 c 0,84,85
 272 529 272 529 263 526 c 0,86,87
 260 526 260 526 260 523 c 2,88,-1
 259 486 l 1,89,-1
 259 441 l 2,90,91
 259 428 259 428 306 428 c 0,79,80
EndSplineSet
Validated: 1
EndChar

StartChar: macron
Encoding: 175 175 112
Width: 460
VWidth: 0
GlyphClass: 2
Flags: W
LayerCount: 2
Fore
SplineSet
540 559 m 0,0,1
 540 596 540 596 552 596 c 2,2,-1
 760 596 l 2,3,4
 765 596 765 596 765 589 c 0,5,6
 765 579 765 579 759 557 c 1,7,-1
 754 550 l 1,8,-1
 752 550 l 1,9,-1
 546 550 l 1,10,-1
 542 552 l 1,11,12
 540 555 540 555 540 559 c 0,0,1
EndSplineSet
Validated: 1
EndChar

StartChar: degree
Encoding: 176 176 113
Width: 233
VWidth: 0
GlyphClass: 2
Flags: W
LayerCount: 2
Fore
SplineSet
47 605 m 128,-1,1
 76 634 76 634 117 634 c 128,-1,2
 158 634 158 634 186.5 605 c 128,-1,3
 215 576 215 576 215 536 c 0,4,5
 215 495 215 495 186 466 c 128,-1,6
 157 437 157 437 117 437 c 0,7,8
 76 437 76 437 47 466.5 c 128,-1,9
 18 496 18 496 18 536 c 128,-1,0
 18 576 18 576 47 605 c 128,-1,1
55 536 m 0,10,11
 55 510 55 510 73.5 492 c 128,-1,12
 92 474 92 474 117 474 c 128,-1,13
 142 474 142 474 160 492 c 128,-1,14
 178 510 178 510 178 536 c 128,-1,15
 178 562 178 562 160 579.5 c 128,-1,16
 142 597 142 597 117 597 c 0,17,18
 91 597 91 597 73 579 c 128,-1,19
 55 561 55 561 55 536 c 0,10,11
EndSplineSet
Validated: 1
EndChar

StartChar: plusminus
Encoding: 177 177 114
Width: 533
VWidth: 0
GlyphClass: 2
Flags: W
LayerCount: 2
Fore
SplineSet
491 62 m 2,0,1
 495 62 495 62 497.5 59 c 128,-1,2
 500 56 500 56 499 51 c 0,3,4
 497 37 497 37 495 28 c 128,-1,5
 493 19 493 19 491 15 c 128,-1,6
 489 11 489 11 488 9.5 c 128,-1,7
 487 8 487 8 485 7 c 2,8,-1
 483 6 l 1,9,-1
 35 6 l 2,10,11
 32 6 32 6 30 9.5 c 128,-1,12
 28 13 28 13 29 19 c 0,13,14
 32 41 32 41 37 57 c 0,15,16
 38 60 38 60 39.5 61 c 128,-1,17
 41 62 41 62 42 62 c 2,18,-1
 44 62 l 1,19,-1
 491 62 l 2,0,1
295 301 m 2,20,-1
 295 109 l 2,21,22
 295 99 295 99 250 93 c 0,23,24
 248 93 248 93 246.5 92.5 c 128,-1,25
 245 92 245 92 244 92 c 0,26,27
 239 92 239 92 239 100 c 2,28,-1
 239 299 l 2,29,30
 239 304 239 304 233 304 c 2,31,-1
 34 304 l 2,32,33
 28 304 28 304 28 314 c 0,34,35
 28 328 28 328 36 355 c 0,36,37
 37 358 37 358 38.5 359 c 128,-1,38
 40 360 40 360 42 360 c 2,39,-1
 43 360 l 1,40,-1
 234 360 l 2,41,42
 239 360 239 360 239 366 c 2,43,-1
 239 556 l 1,44,45
 238 561 238 561 244 563 c 0,46,47
 271 571 271 571 285 571 c 1,48,-1
 295 565 l 1,49,-1
 295 365 l 2,50,51
 295 360 295 360 299 360 c 2,52,-1
 499 360 l 2,53,54
 507 360 507 360 507 355 c 0,55,56
 507 347 507 347 497 310 c 0,57,58
 496 307 496 307 494.5 305.5 c 128,-1,59
 493 304 493 304 492 304 c 2,60,-1
 490 304 l 1,61,-1
 299 304 l 2,62,63
 295 304 295 304 295 301 c 2,20,-1
EndSplineSet
Validated: 1
EndChar

StartChar: uni00B2
Encoding: 178 178 115
Width: 338
VWidth: 0
GlyphClass: 2
Flags: W
LayerCount: 2
Fore
SplineSet
149 594 m 0,0,1
 110 594 110 594 76 553 c 0,2,3
 74 551 74 551 68.5 555.5 c 128,-1,4
 63 560 63 560 58.5 567 c 128,-1,5
 54 574 54 574 54 578 c 128,-1,6
 54 582 54 582 55 583 c 0,7,8
 75 609 75 609 110 628 c 128,-1,9
 145 647 145 647 178 647 c 0,10,11
 224 647 224 647 256 616 c 128,-1,12
 288 585 288 585 288 542 c 0,13,14
 288 515 288 515 278.5 490.5 c 128,-1,15
 269 466 269 466 247 441 c 128,-1,16
 225 416 225 416 208.5 400 c 128,-1,17
 192 384 192 384 158.5 356 c 128,-1,18
 125 328 125 328 112 317 c 0,19,20
 111 316 111 316 111 313 c 128,-1,21
 111 310 111 310 113 310 c 2,22,-1
 250 310 l 2,23,24
 268 310 268 310 277 315.5 c 128,-1,25
 286 321 286 321 290 334 c 2,26,-1
 293 346 l 2,27,28
 294 348 294 348 298 349 c 1,29,30
 308 349 308 349 312 343 c 1,31,32
 308 333 308 333 291 254 c 1,33,-1
 166 255 l 1,34,-1
 39 254 l 1,35,36
 27 260 27 260 27 275 c 0,37,38
 27 279 27 279 31 287 c 1,39,40
 39 296 39 296 61.5 320 c 128,-1,41
 84 344 84 344 97 358 c 128,-1,42
 110 372 110 372 130 395 c 128,-1,43
 150 418 150 418 162 434.5 c 128,-1,44
 174 451 174 451 186.5 469.5 c 128,-1,45
 199 488 199 488 205 504 c 128,-1,46
 211 520 211 520 211 532 c 0,47,48
 211 555 211 555 194.5 574.5 c 128,-1,49
 178 594 178 594 149 594 c 0,0,1
EndSplineSet
Validated: 1
EndChar

StartChar: uni00B3
Encoding: 179 179 116
Width: 316
VWidth: 0
GlyphClass: 2
Flags: W
LayerCount: 2
Fore
SplineSet
174 647 m 0,0,1
 202 647 202 647 230 625.5 c 128,-1,2
 258 604 258 604 258 569 c 0,3,4
 258 548 258 548 247.5 531.5 c 128,-1,5
 237 515 237 515 226 507 c 128,-1,6
 215 499 215 499 192 484 c 1,7,8
 219 484 219 484 253.5 456.5 c 128,-1,9
 288 429 288 429 288 385 c 0,10,11
 288 322 288 322 234 284.5 c 128,-1,12
 180 247 180 247 110 247 c 0,13,14
 81 247 81 247 57 255.5 c 128,-1,15
 33 264 33 264 27 273 c 1,16,-1
 27 280 l 2,17,18
 27 295 27 295 35 306 c 128,-1,19
 43 317 43 317 55 317 c 0,20,21
 70 317 70 317 91 300 c 128,-1,22
 112 283 112 283 129 283 c 0,23,24
 164 283 164 283 190.5 305.5 c 128,-1,25
 217 328 217 328 217 371 c 0,26,27
 217 406 217 406 199 425 c 128,-1,28
 181 444 181 444 152 444 c 0,29,30
 146 444 146 444 100 438 c 1,31,32
 91 447 91 447 91 457 c 0,33,34
 91 465 91 465 100 468 c 1,35,36
 140 476 140 476 166 497.5 c 128,-1,37
 192 519 192 519 192 554 c 0,38,39
 192 573 192 573 176.5 584.5 c 128,-1,40
 161 596 161 596 140 596 c 0,41,42
 121 596 121 596 105.5 586.5 c 128,-1,43
 90 577 90 577 80.5 567.5 c 128,-1,44
 71 558 71 558 67 558 c 0,45,46
 62 558 62 558 57 575 c 128,-1,47
 52 592 52 592 53 593 c 0,48,49
 97 647 97 647 174 647 c 0,0,1
EndSplineSet
Validated: 1
EndChar

StartChar: acute
Encoding: 180 180 117
Width: 460
VWidth: 0
GlyphClass: 2
Flags: W
LayerCount: 2
Fore
SplineSet
633 687 m 0,0,1
 649 687 649 687 659 681.5 c 128,-1,2
 669 676 669 676 671.5 671.5 c 128,-1,3
 674 667 674 667 674 663 c 0,4,5
 674 638 674 638 602.5 582.5 c 128,-1,6
 531 527 531 527 518 527 c 0,7,8
 506 527 506 527 506 540 c 0,9,10
 506 543 506 543 521.5 568.5 c 128,-1,11
 537 594 537 594 559.5 626.5 c 128,-1,12
 582 659 582 659 599 678 c 0,13,14
 608 687 608 687 633 687 c 0,0,1
EndSplineSet
Validated: 1
EndChar

StartChar: paragraph
Encoding: 182 182 119
Width: 496
VWidth: 0
GlyphClass: 2
Flags: W
LayerCount: 2
Fore
SplineSet
284 286 m 2,0,-1
 286 49 l 2,1,2
 286 36 286 36 310 36 c 0,3,4
 317 36 317 36 323.5 40.5 c 128,-1,5
 330 45 330 45 330 50 c 0,6,7
 334 95 334 95 334 295 c 0,8,9
 334 299 334 299 330 299 c 0,10,11
 329 299 329 299 324.5 298 c 128,-1,12
 320 297 320 297 311 295.5 c 128,-1,13
 302 294 302 294 291 293 c 0,14,15
 284 292 284 292 284 286 c 2,0,-1
217 652 m 0,16,17
 246 652 246 652 272 650 c 128,-1,18
 298 648 298 648 328 648 c 1,19,-1
 441 653 l 1,20,21
 445 649 445 649 445 636.5 c 128,-1,22
 445 624 445 624 441 624 c 0,23,24
 428 624 428 624 405.5 618 c 128,-1,25
 383 612 383 612 380 604 c 0,26,27
 377 594 377 594 377 500 c 0,28,29
 377 464 377 464 377.5 409 c 128,-1,30
 378 354 378 354 378 350 c 0,31,32
 378 344 378 344 383 346 c 1,33,-1
 426 354 l 1,34,35
 430 346 430 346 430 341 c 0,36,37
 428 321 428 321 410 316 c 2,38,-1
 384 309 l 1,39,40
 379 306 379 306 379 304 c 0,41,42
 379 71 379 71 386 45 c 0,43,44
 389 37 389 37 413.5 30 c 128,-1,45
 438 23 438 23 450 23 c 0,46,47
 454 23 454 23 454 11 c 0,48,49
 454 0 454 0 450 -4 c 1,50,51
 431 -3 431 -3 378 -0.5 c 128,-1,52
 325 2 325 2 289 2 c 0,53,54
 269 2 269 2 249 1 c 128,-1,55
 229 0 229 0 206 -1.5 c 128,-1,56
 183 -3 183 -3 170 -4 c 1,57,58
 168 0 168 0 168.5 11.5 c 128,-1,59
 169 23 169 23 172 23 c 0,60,61
 181 23 181 23 206 30.5 c 128,-1,62
 231 38 231 38 233 45 c 0,63,64
 238 66 238 66 238 183 c 2,65,-1
 238 284 l 2,66,67
 238 291 238 291 218 291 c 0,68,69
 139 291 139 291 92.5 349 c 128,-1,70
 46 407 46 407 46 469 c 0,71,72
 46 547 46 547 99 599.5 c 128,-1,73
 152 652 152 652 217 652 c 0,16,17
286 599 m 0,74,75
 284 440 284 440 284 338 c 0,76,77
 284 332 284 332 292 332 c 1,78,-1
 329 338 l 2,79,80
 334 338 334 338 334 344 c 0,81,82
 334 574 334 574 332 600 c 0,83,84
 332 603 332 603 324 607 c 128,-1,85
 316 611 316 611 309 611 c 0,86,87
 286 611 286 611 286 599 c 0,74,75
EndSplineSet
Validated: 1
EndChar

StartChar: periodcentered
Encoding: 183 183 120
Width: 203
VWidth: 0
GlyphClass: 2
Flags: W
LayerCount: 2
Fore
SplineSet
64 305 m 128,-1,1
 81 322 81 322 105 322 c 128,-1,2
 129 322 129 322 146 305 c 128,-1,3
 163 288 163 288 163 264 c 128,-1,4
 163 240 163 240 146 222.5 c 128,-1,5
 129 205 129 205 105 205 c 128,-1,6
 81 205 81 205 64 222.5 c 128,-1,7
 47 240 47 240 47 264 c 128,-1,0
 47 288 47 288 64 305 c 128,-1,1
EndSplineSet
Validated: 1
EndChar

StartChar: cedilla
Encoding: 184 184 121
Width: 460
VWidth: 0
GlyphClass: 2
Flags: W
LayerCount: 2
Fore
SplineSet
680 -27 m 1,0,-1
 705 -27 l 2,1,2
 724 -27 724 -27 736.5 -41.5 c 128,-1,3
 749 -56 749 -56 749 -76 c 0,4,5
 749 -110 749 -110 722 -131 c 128,-1,6
 695 -152 695 -152 655 -152 c 0,7,8
 634 -152 634 -152 621 -143 c 0,9,10
 621 -142 621 -142 619.5 -137.5 c 128,-1,11
 618 -133 618 -133 618 -129 c 0,12,13
 618 -124 618 -124 622.5 -119.5 c 128,-1,14
 627 -115 627 -115 632 -115 c 0,15,16
 638 -115 638 -115 649 -121.5 c 128,-1,17
 660 -128 660 -128 669 -128 c 0,18,19
 689 -128 689 -128 700.5 -118.5 c 128,-1,20
 712 -109 712 -109 712 -95 c 0,21,22
 712 -79 712 -79 702 -70 c 128,-1,23
 692 -61 692 -61 681 -61 c 0,24,25
 672 -61 672 -61 655 -68 c 0,26,27
 653 -68 653 -68 648.5 -63 c 128,-1,28
 644 -58 644 -58 645 -55 c 0,29,30
 649 -49 649 -49 661 -30.5 c 128,-1,31
 673 -12 673 -12 677 -4 c 1,32,-1
 698 -4 l 1,33,-1
 680 -27 l 1,0,-1
EndSplineSet
Validated: 1
EndChar

StartChar: uni00B9
Encoding: 185 185 122
Width: 272
VWidth: 0
GlyphClass: 2
Flags: W
LayerCount: 2
Fore
SplineSet
38 554 m 0,0,1
 37 554 37 554 34.5 555.5 c 128,-1,2
 32 557 32 557 30.5 557.5 c 128,-1,3
 29 558 29 558 27.5 560 c 128,-1,4
 26 562 26 562 25 564.5 c 128,-1,5
 24 567 24 567 24 570 c 0,6,7
 24 576 24 576 27 578 c 0,8,9
 74 597 74 597 111 616 c 128,-1,10
 148 635 148 635 162 644 c 1,11,-1
 177 652 l 1,12,-1
 179 652 l 2,13,14
 183 652 183 652 191 629 c 1,15,16
 182 587 182 587 182 548 c 2,17,-1
 182 340 l 2,18,19
 182 311 182 311 190 293 c 0,20,21
 192 288 192 288 212.5 283.5 c 128,-1,22
 233 279 233 279 241 279 c 0,23,24
 245 279 245 279 245 263 c 0,25,26
 245 255 245 255 244 253 c 1,27,28
 232 253 232 253 200 254.5 c 128,-1,29
 168 256 168 256 146 256 c 0,30,31
 123 256 123 256 90 254.5 c 128,-1,32
 57 253 57 253 46 253 c 1,33,34
 42 255 42 255 42 266.5 c 128,-1,35
 42 278 42 278 46 278 c 0,36,37
 57 278 57 278 78.5 282.5 c 128,-1,38
 100 287 100 287 102 292 c 0,39,40
 108 308 108 308 108 323 c 2,41,-1
 108 518 l 2,42,43
 108 550 108 550 103.5 559.5 c 128,-1,44
 99 569 99 569 89 569 c 0,45,46
 81 569 81 569 38 554 c 0,0,1
EndSplineSet
Validated: 1
EndChar

StartChar: ordmasculine
Encoding: 186 186 123
Width: 370
VWidth: 0
GlyphClass: 2
Flags: W
LayerCount: 2
Fore
SplineSet
180 529 m 0,0,1
 141 529 141 529 119.5 493.5 c 128,-1,2
 98 458 98 458 98 411 c 0,3,4
 98 356 98 356 123.5 313.5 c 128,-1,5
 149 271 149 271 195 271 c 0,6,7
 233 271 233 271 252.5 307.5 c 128,-1,8
 272 344 272 344 272 391 c 0,9,10
 272 446 272 446 248.5 487.5 c 128,-1,11
 225 529 225 529 180 529 c 0,0,1
187 554 m 0,12,13
 251 554 251 554 296 508 c 128,-1,14
 341 462 341 462 341 399 c 128,-1,15
 341 336 341 336 296.5 291.5 c 128,-1,16
 252 247 252 247 187 247 c 128,-1,17
 122 247 122 247 75.5 292 c 128,-1,18
 29 337 29 337 29 399 c 0,19,20
 29 463 29 463 75 508.5 c 128,-1,21
 121 554 121 554 187 554 c 0,12,13
EndSplineSet
Validated: 1
EndChar

StartChar: guillemotright
Encoding: 187 187 124
Width: 471
VWidth: 0
GlyphClass: 2
Flags: W
LayerCount: 2
Fore
SplineSet
51 73 m 1,0,1
 28 79 28 79 28 91 c 0,2,3
 28 93 28 93 28.5 95 c 128,-1,4
 29 97 29 97 31 100 c 128,-1,5
 33 103 33 103 41 111 c 128,-1,6
 49 119 49 119 54.5 124 c 2,7,-1
 88 157 l 1,8,-1
 175 247 l 1,9,10
 168 254 168 254 134 289.5 c 128,-1,11
 100 325 100 325 87 338 c 0,12,13
 43 381 43 381 35 389.5 c 128,-1,14
 27 398 27 398 27 404 c 0,15,16
 27 408 27 408 30 411.5 c 128,-1,17
 33 415 33 415 41 419 c 128,-1,18
 49 423 49 423 50 423 c 0,19,20
 128 345 128 345 255 268 c 1,21,22
 264 258 264 258 264 241 c 0,23,24
 264 230 264 230 256 227 c 1,25,26
 198 190 198 190 150 154 c 128,-1,27
 102 118 102 118 80.5 100 c 128,-1,28
 59 82 59 82 51 73 c 1,0,1
230 73 m 1,29,30
 207 79 207 79 207 91 c 0,31,32
 207 94 207 94 208.5 97 c 128,-1,33
 210 100 210 100 214.5 105 c 128,-1,34
 219 110 219 110 224.5 115 c 128,-1,35
 230 120 230 120 242.5 132 c 128,-1,36
 255 144 255 144 268 157 c 2,37,-1
 355 247 l 1,38,39
 348 254 348 254 314 289.5 c 128,-1,40
 280 325 280 325 267 338 c 0,41,42
 208 395 208 395 207 400 c 0,43,44
 206 402 206 402 206 404 c 0,45,46
 206 408 206 408 209 411.5 c 128,-1,47
 212 415 212 415 220 419 c 128,-1,48
 228 423 228 423 229 423 c 0,49,50
 305 347 305 347 435 268 c 1,51,52
 443 259 443 259 443 241 c 0,53,54
 443 230 443 230 436 227 c 1,55,56
 378 190 378 190 329.5 154 c 128,-1,57
 281 118 281 118 259.5 100 c 128,-1,58
 238 82 238 82 230 73 c 1,29,30
EndSplineSet
Validated: 1
EndChar

StartChar: onequarter
Encoding: 188 188 125
Width: 670
VWidth: 0
GlyphClass: 2
Flags: W
LayerCount: 2
Fore
SplineSet
573 -5 m 0,0,1
 554 -5 554 -5 546 -4 c 128,-1,2
 538 -3 538 -3 535.5 -1.5 c 128,-1,3
 533 0 533 0 533 4 c 2,4,-1
 533 112 l 1,5,6
 532 115 532 115 528 115 c 2,7,-1
 379 115 l 1,8,9
 367 130 367 130 366 141 c 1,10,-1
 562 390 l 2,11,12
 568 398 568 398 585 398 c 128,-1,13
 602 398 602 398 602 390 c 2,14,-1
 602 163 l 2,15,16
 602 159 602 159 607 159 c 2,17,-1
 634 159 l 2,18,19
 641 159 641 159 643.5 151.5 c 128,-1,20
 646 144 646 144 646 121 c 0,21,22
 646 119 646 119 644.5 117.5 c 128,-1,23
 643 116 643 116 642 116 c 2,24,-1
 640 115 l 1,25,-1
 605 114 l 2,26,27
 602 114 602 114 602 109 c 2,28,-1
 602 0 l 1,29,30
 597 -5 597 -5 573 -5 c 0,0,1
533 163 m 2,31,-1
 533 292 l 1,32,33
 532 296 532 296 528 296 c 1,34,35
 503 266 503 266 473 227 c 128,-1,36
 443 188 443 188 425 166 c 0,37,38
 422 163 422 163 427 159 c 0,39,40
 428 158 428 158 429 158 c 2,41,-1
 527 158 l 2,42,43
 533 158 533 158 533 163 c 2,31,-1
556 617 m 1,44,-1
 208 -14 l 2,45,46
 208 -16 208 -16 204 -16 c 0,47,48
 185 -16 185 -16 170 3 c 1,49,-1
 169 10 l 1,50,-1
 517 642 l 2,51,52
 519 645 519 645 523 645 c 0,53,54
 537 645 537 645 553 628 c 0,55,56
 555 626 555 626 556 623 c 128,-1,57
 557 620 557 620 556 618 c 1,58,-1
 556 617 l 1,44,-1
37 540 m 0,59,60
 36 540 36 540 33.5 541.5 c 128,-1,61
 31 543 31 543 29.5 543.5 c 128,-1,62
 28 544 28 544 26.5 546 c 128,-1,63
 25 548 25 548 24 550.5 c 128,-1,64
 23 553 23 553 23 556 c 0,65,66
 23 562 23 562 32.5 565.5 c 128,-1,67
 42 569 42 569 80 587.5 c 128,-1,68
 118 606 118 606 167 638 c 1,69,-1
 170 638 l 2,70,71
 173 638 173 638 181 614 c 1,72,73
 172 573 172 573 172 534 c 2,74,-1
 172 338 l 2,75,76
 172 309 172 309 180 291 c 0,77,78
 182 286 182 286 202.5 281 c 128,-1,79
 223 276 223 276 231 276 c 0,80,81
 236 276 236 276 236 261 c 0,82,83
 236 253 236 253 235 251 c 1,84,85
 222 251 222 251 192 252.5 c 128,-1,86
 162 254 162 254 140 254 c 128,-1,87
 118 254 118 254 87.5 252.5 c 128,-1,88
 57 251 57 251 44 251 c 1,89,90
 40 253 40 253 40 264 c 128,-1,91
 40 275 40 275 44 275 c 0,92,93
 55 275 55 275 74.5 280 c 128,-1,94
 94 285 94 285 96 290 c 0,95,96
 102 306 102 306 102 321 c 2,97,-1
 102 504 l 2,98,99
 102 526 102 526 99.5 537.5 c 128,-1,100
 97 549 97 549 94 552 c 128,-1,101
 91 555 91 555 85 555 c 0,102,103
 80 555 80 555 37 540 c 0,59,60
EndSplineSet
Validated: 1
EndChar

StartChar: onehalf
Encoding: 189 189 126
Width: 721
VWidth: 0
GlyphClass: 2
Flags: W
LayerCount: 2
Fore
SplineSet
630 56 m 2,0,1
 648 56 648 56 658.5 66.5 c 128,-1,2
 669 77 669 77 672.5 87.5 c 128,-1,3
 676 98 676 98 677 98 c 0,4,5
 691 98 691 98 697 90 c 1,6,7
 694 80 694 80 677 0 c 1,8,-1
 425 0 l 1,9,10
 414 6 414 6 414 22 c 0,11,12
 414 27 414 27 417 33 c 1,13,14
 422 39 422 39 447.5 66 c 128,-1,15
 473 93 473 93 483 104.5 c 128,-1,16
 493 116 493 116 515 141 c 128,-1,17
 537 166 537 166 547.5 181 c 128,-1,18
 558 196 558 196 571.5 216 c 128,-1,19
 585 236 585 236 590.5 251.5 c 128,-1,20
 596 267 596 267 596 279 c 0,21,22
 596 302 596 302 580 321 c 128,-1,23
 564 340 564 340 535 340 c 0,24,25
 517 340 517 340 496 328.5 c 128,-1,26
 475 317 475 317 462 300 c 0,27,28
 460 297 460 297 454 299 c 128,-1,29
 448 301 448 301 447 304 c 0,30,31
 439 327 439 327 441 329 c 0,32,33
 461 355 461 355 495.5 374 c 128,-1,34
 530 393 530 393 563 393 c 0,35,36
 609 393 609 393 641 362 c 128,-1,37
 673 331 673 331 673 288 c 0,38,39
 673 261 673 261 663.5 236.5 c 128,-1,40
 654 212 654 212 632 187 c 128,-1,41
 610 162 610 162 594 146.5 c 128,-1,42
 578 131 578 131 544 102.5 c 128,-1,43
 510 74 510 74 498 63 c 0,44,45
 497 62 497 62 497 59 c 128,-1,46
 497 56 497 56 499 56 c 2,47,-1
 630 56 l 2,0,1
556 618 m 1,48,-1
 208 -14 l 2,49,50
 208 -16 208 -16 204 -16 c 0,51,52
 185 -16 185 -16 170 3 c 1,53,-1
 168 10 l 1,54,-1
 169 11 l 1,55,-1
 517 643 l 2,56,57
 518 645 518 645 522 645 c 128,-1,58
 526 645 526 645 541.5 636.5 c 128,-1,59
 557 628 557 628 557 622 c 0,60,61
 557 620 557 620 556 619 c 1,62,-1
 556 618 l 1,48,-1
167 638 m 1,63,-1
 170 638 l 2,64,65
 173 638 173 638 181 614 c 1,66,67
 172 573 172 573 172 534 c 2,68,-1
 172 338 l 2,69,70
 172 309 172 309 180 291 c 0,71,72
 182 286 182 286 202.5 281 c 128,-1,73
 223 276 223 276 231 276 c 0,74,75
 236 276 236 276 236 261 c 0,76,77
 236 253 236 253 235 251 c 1,78,79
 222 251 222 251 192 252.5 c 128,-1,80
 162 254 162 254 140 254 c 128,-1,81
 118 254 118 254 87.5 252.5 c 128,-1,82
 57 251 57 251 44 251 c 1,83,84
 40 253 40 253 40 264 c 128,-1,85
 40 275 40 275 44 275 c 0,86,87
 55 275 55 275 74.5 280 c 128,-1,88
 94 285 94 285 96 290 c 0,89,90
 102 306 102 306 102 321 c 2,91,-1
 102 504 l 2,92,93
 102 526 102 526 99.5 537.5 c 128,-1,94
 97 549 97 549 94 552 c 128,-1,95
 91 555 91 555 85 555 c 0,96,97
 80 555 80 555 37 540 c 0,98,99
 36 540 36 540 33.5 541.5 c 128,-1,100
 31 543 31 543 29.5 543.5 c 128,-1,101
 28 544 28 544 26.5 546 c 128,-1,102
 25 548 25 548 24 550.5 c 128,-1,103
 23 553 23 553 23 556 c 0,104,105
 23 562 23 562 32.5 565.5 c 128,-1,106
 42 569 42 569 80 587.5 c 128,-1,107
 118 606 118 606 167 638 c 1,63,-1
EndSplineSet
Validated: 1
EndChar

StartChar: threequarters
Encoding: 190 190 127
Width: 694
VWidth: 0
GlyphClass: 2
Flags: W
LayerCount: 2
Fore
SplineSet
173 647 m 0,0,1
 201 647 201 647 229 625.5 c 128,-1,2
 257 604 257 604 257 569 c 0,3,4
 257 548 257 548 246 531.5 c 128,-1,5
 235 515 235 515 224.5 507 c 128,-1,6
 214 499 214 499 190 484 c 1,7,8
 217 484 217 484 251.5 456.5 c 128,-1,9
 286 429 286 429 286 385 c 0,10,11
 286 322 286 322 232 284.5 c 128,-1,12
 178 247 178 247 108 247 c 0,13,14
 79 247 79 247 55 255.5 c 128,-1,15
 31 264 31 264 25 273 c 1,16,-1
 25 280 l 2,17,18
 25 295 25 295 33.5 306 c 128,-1,19
 42 317 42 317 54 317 c 0,20,21
 68 317 68 317 89 300 c 128,-1,22
 110 283 110 283 127 283 c 0,23,24
 162 283 162 283 189 305.5 c 128,-1,25
 216 328 216 328 216 371 c 0,26,27
 216 406 216 406 197.5 425 c 128,-1,28
 179 444 179 444 150 444 c 0,29,30
 146 444 146 444 99 438 c 1,31,32
 90 447 90 447 90 457 c 0,33,34
 90 465 90 465 99 468 c 1,35,36
 139 476 139 476 164.5 497.5 c 128,-1,37
 190 519 190 519 190 554 c 0,38,39
 190 573 190 573 175 584.5 c 128,-1,40
 160 596 160 596 139 596 c 0,41,42
 120 596 120 596 104 586.5 c 128,-1,43
 88 577 88 577 78.5 567.5 c 128,-1,44
 69 558 69 558 65 558 c 0,45,46
 60 558 60 558 55.5 574 c 128,-1,47
 51 590 51 590 52 593 c 1,48,49
 96 647 96 647 173 647 c 0,0,1
597 -5 m 0,50,51
 578 -5 578 -5 570 -4 c 128,-1,52
 562 -3 562 -3 559.5 -1.5 c 128,-1,53
 557 0 557 0 557 4 c 2,54,-1
 557 112 l 1,55,56
 556 115 556 115 552 115 c 2,57,-1
 403 115 l 1,58,59
 391 130 391 130 390 141 c 1,60,-1
 586 390 l 2,61,62
 592 398 592 398 609 398 c 128,-1,63
 626 398 626 398 626 390 c 2,64,-1
 626 163 l 2,65,66
 626 159 626 159 631 159 c 2,67,-1
 658 159 l 2,68,69
 665 159 665 159 667.5 151.5 c 128,-1,70
 670 144 670 144 670 121 c 0,71,72
 670 119 670 119 668.5 117.5 c 128,-1,73
 667 116 667 116 666 116 c 2,74,-1
 664 115 l 1,75,-1
 629 114 l 2,76,77
 626 114 626 114 626 109 c 2,78,-1
 626 0 l 1,79,80
 621 -5 621 -5 597 -5 c 0,50,51
557 163 m 2,81,-1
 557 292 l 1,82,83
 556 296 556 296 552 296 c 1,84,85
 527 266 527 266 497 227 c 128,-1,86
 467 188 467 188 449 166 c 0,87,88
 446 163 446 163 451 159 c 0,89,90
 452 158 452 158 453 158 c 2,91,-1
 551 158 l 2,92,93
 557 158 557 158 557 163 c 2,81,-1
228 -16 m 0,94,95
 218 -16 218 -16 205 -7 c 128,-1,96
 192 2 192 2 192 7 c 1,97,-1
 193 10 l 1,98,-1
 541 642 l 2,99,100
 542 645 542 645 546 645 c 0,101,102
 561 645 561 645 577 628 c 0,103,104
 579 626 579 626 580 623 c 128,-1,105
 581 620 581 620 580 618 c 1,106,-1
 580 617 l 1,107,-1
 232 -14 l 2,108,109
 232 -16 232 -16 228 -16 c 0,94,95
EndSplineSet
Validated: 1
EndChar

StartChar: questiondown
Encoding: 191 191 128
Width: 310
VWidth: 0
GlyphClass: 2
Flags: W
LayerCount: 2
Fore
SplineSet
231 -142 m 0,0,1
 247 -142 247 -142 262.5 -151 c 128,-1,2
 278 -160 278 -160 278 -182 c 0,3,4
 278 -203 278 -203 270 -216 c 1,5,6
 250 -226 250 -226 220 -226 c 0,7,8
 184 -226 184 -226 140 -205 c 128,-1,9
 96 -184 96 -184 60 -139.5 c 128,-1,10
 24 -95 24 -95 24 -41 c 0,11,12
 24 11 24 11 46.5 45.5 c 128,-1,13
 69 80 69 80 125 112 c 0,14,15
 146 124 146 124 172.5 145 c 128,-1,16
 199 166 199 166 203 174 c 0,17,18
 213 192 213 192 213 243 c 0,19,20
 213 256 213 256 233 256 c 0,21,22
 246 256 246 256 246 248 c 0,23,24
 246 235 246 235 246.5 201.5 c 128,-1,25
 247 168 247 168 247 154 c 0,26,27
 247 142 247 142 245.5 131.5 c 128,-1,28
 244 121 244 121 240 111.5 c 128,-1,29
 236 102 236 102 233.5 95 c 128,-1,30
 231 88 231 88 223 80 c 128,-1,31
 215 72 215 72 212.5 68 c 128,-1,32
 210 64 210 64 199.5 57 c 128,-1,33
 189 50 189 50 187 48 c 128,-1,34
 185 46 185 46 173.5 38.5 c 128,-1,35
 162 31 162 31 161 31 c 0,36,37
 136 15 136 15 125.5 8 c 128,-1,38
 115 1 115 1 100 -11.5 c 128,-1,39
 85 -24 85 -24 79.5 -35.5 c 128,-1,40
 74 -47 74 -47 74 -60 c 0,41,42
 74 -103 74 -103 98 -126 c 128,-1,43
 122 -149 122 -149 154 -149 c 0,44,45
 184 -149 184 -149 202.5 -145.5 c 128,-1,46
 221 -142 221 -142 231 -142 c 0,0,1
267 330.5 m 128,-1,48
 250 314 250 314 226 314 c 128,-1,49
 202 314 202 314 185 330.5 c 128,-1,50
 168 347 168 347 168 371 c 128,-1,51
 168 395 168 395 185 412.5 c 128,-1,52
 202 430 202 430 226 430 c 128,-1,53
 250 430 250 430 267 412.5 c 128,-1,54
 284 395 284 395 284 371 c 128,-1,47
 284 347 284 347 267 330.5 c 128,-1,48
EndSplineSet
Validated: 1
EndChar

StartChar: AE
Encoding: 198 198 135
Width: 982
VWidth: 0
GlyphClass: 2
Flags: W
LayerCount: 2
Fore
SplineSet
485 297 m 0,0,1
 497 297 497 297 497 308 c 2,2,-1
 497 523 l 2,3,4
 497 531 497 531 488 531 c 0,5,6
 484 531 484 531 479 524 c 2,7,-1
 342 301 l 1,8,9
 341 297 341 297 343 297 c 0,10,11
 395 295 395 295 413 295 c 0,12,13
 433 295 433 295 485 297 c 0,0,1
408 247 m 0,14,15
 386 247 386 247 309 242 c 1,16,-1
 304 239 l 1,17,-1
 235 129 l 1,18,19
 206 79 206 79 202 60 c 0,20,21
 199 47 199 47 206 40 c 0,22,23
 220 26 220 26 260 26 c 0,24,25
 262 26 262 26 259.5 14 c 128,-1,26
 257 2 257 2 255 -3 c 1,27,28
 195 0 195 0 153 0 c 0,29,30
 117 0 117 0 48 -3 c 1,31,32
 46 -1 46 -1 48 10 c 0,33,34
 51 26 51 26 55 26 c 0,35,36
 99 26 99 26 116 43 c 0,37,38
 143 68 143 68 185 137 c 2,39,-1
 462 584 l 2,40,41
 469 596 469 596 469 604 c 0,42,43
 469 616 469 616 453 622.5 c 128,-1,44
 437 629 437 629 424 629 c 0,45,46
 420 629 420 629 420 643 c 0,47,48
 420 654 420 654 424 658 c 1,49,50
 473 656 473 656 540 656 c 0,51,52
 584 656 584 656 695 660 c 128,-1,53
 806 664 806 664 863 664 c 1,54,55
 867 635 867 635 878.5 587.5 c 128,-1,56
 890 540 890 540 892 528 c 1,57,58
 887 523 887 523 874 523 c 128,-1,59
 861 523 861 523 860 530 c 0,60,61
 845 585 845 585 818 600.5 c 128,-1,62
 791 616 791 616 744 616 c 2,63,-1
 677 616 l 2,64,65
 591 616 591 616 589 603 c 0,66,67
 584 579 584 579 584 519 c 2,68,-1
 584 359 l 2,69,70
 584 353 584 353 627 353 c 2,71,-1
 680 353 l 2,72,73
 733 353 733 353 747 357 c 128,-1,74
 761 361 761 361 765 362 c 128,-1,75
 769 363 769 363 775.5 375 c 128,-1,76
 782 387 782 387 783 392.5 c 128,-1,77
 784 398 784 398 790 421 c 0,78,79
 791 428 791 428 805 428 c 0,80,81
 817 428 817 428 822 423 c 1,82,-1
 822 234 l 1,83,84
 818 230 818 230 806 230 c 0,85,86
 793 230 793 230 790 238 c 0,87,88
 783 265 783 265 778 278.5 c 128,-1,89
 773 292 773 292 770.5 294.5 c 128,-1,90
 768 297 768 297 762 301 c 0,91,92
 749 309 749 309 656 309 c 0,93,94
 584 309 584 309 584 300 c 2,95,-1
 584 145 l 2,96,97
 584 80 584 80 593 54 c 0,98,99
 596 44 596 44 661 44 c 2,100,-1
 709 44 l 2,101,102
 802 44 802 44 835 61 c 0,103,104
 850 69 850 69 868.5 96.5 c 128,-1,105
 887 124 887 124 898 162 c 0,106,107
 900 168 900 168 912 168 c 0,108,109
 931 168 931 168 937 162 c 1,110,111
 932 149 932 149 921.5 120.5 c 128,-1,112
 911 92 911 92 905 74.5 c 128,-1,113
 899 57 899 57 892 34 c 128,-1,114
 885 11 885 11 883 -4 c 1,115,116
 826 -4 826 -4 705.5 -1 c 128,-1,117
 585 2 585 2 542 2 c 1,118,-1
 424 -3 l 1,119,120
 420 1 420 1 420 12 c 0,121,122
 420 26 420 26 424 26 c 0,123,124
 436 26 436 26 461.5 33.5 c 128,-1,125
 487 41 487 41 490 49 c 0,126,127
 497 76 497 76 497 135 c 2,128,-1
 497 233 l 2,129,130
 497 241 497 241 484 244 c 1,131,132
 463 247 463 247 408 247 c 0,14,15
EndSplineSet
Validated: 1
EndChar

StartChar: Eth
Encoding: 208 208 145
Width: 731
VWidth: 0
GlyphClass: 2
Flags: W
LayerCount: 2
Fore
SplineSet
71 348 m 1,0,-1
 416 348 l 2,1,2
 422 348 422 348 422 338 c 0,3,4
 422 322 422 322 416 308 c 1,5,-1
 70 308 l 2,6,7
 65 308 65 308 65 321 c 0,8,9
 65 339 65 339 71 348 c 1,0,-1
174 656 m 0,10,11
 210 656 210 656 269.5 657 c 128,-1,12
 329 658 329 658 348 658 c 0,13,14
 511 658 511 658 602 562 c 128,-1,15
 693 466 693 466 693 336 c 0,16,17
 693 191 693 191 601 94 c 128,-1,18
 509 -3 509 -3 347 -3 c 0,19,20
 335 -3 335 -3 274.5 -1 c 128,-1,21
 214 1 214 1 176 0 c 2,22,-1
 55 -3 l 1,23,24
 52 0 52 0 52 12 c 0,25,26
 52 26 52 26 55 26 c 0,27,28
 68 26 68 26 93.5 33 c 128,-1,29
 119 40 119 40 124 49 c 0,30,31
 131 61 131 61 131 143 c 2,32,-1
 131 521 l 2,33,34
 131 580 131 580 124 607 c 0,35,36
 121 615 121 615 94.5 622 c 128,-1,37
 68 629 68 629 55 629 c 0,38,39
 51 629 51 629 51 641 c 0,40,41
 51 654 51 654 55 658 c 1,42,43
 107 656 107 656 174 656 c 0,10,11
218 535 m 2,44,-1
 218 139 l 2,45,46
 218 97 218 97 233 63 c 0,47,48
 237 53 237 53 286.5 48 c 128,-1,49
 336 43 336 43 363 43 c 0,50,51
 478 43 478 43 537.5 118.5 c 128,-1,52
 597 194 597 194 597 340 c 0,53,54
 597 453 597 453 534.5 533.5 c 128,-1,55
 472 614 472 614 356 614 c 2,56,-1
 351 614 l 2,57,58
 243 614 243 614 231 598 c 0,59,60
 218 580 218 580 218 535 c 2,44,-1
EndSplineSet
Validated: 37
EndChar

StartChar: multiply
Encoding: 215 215 152
Width: 414
VWidth: 0
GlyphClass: 2
Flags: W
LayerCount: 2
Fore
SplineSet
56 60 m 0,0,1
 51 60 51 60 39 80 c 128,-1,2
 27 100 27 100 27 108 c 1,3,-1
 165 243 l 2,4,5
 166 244 166 244 166 246 c 0,6,7
 166 249 166 249 164 251 c 2,8,-1
 27 388 l 1,9,10
 27 398 27 398 40 416.5 c 128,-1,11
 53 435 53 435 58 435 c 0,12,13
 59 435 59 435 63 431 c 2,14,-1
 205 290 l 2,15,16
 207 288 207 288 209 288 c 2,17,-1
 211 289 l 1,18,-1
 352 430 l 2,19,20
 355 433 355 433 357 433 c 0,21,22
 362 433 362 433 374 412.5 c 128,-1,23
 386 392 386 392 386 384 c 1,24,-1
 251 249 l 2,25,26
 250 248 250 248 250 246 c 2,27,-1
 250 244 l 1,28,-1
 386 108 l 1,29,30
 386 97 386 97 376 78.5 c 128,-1,31
 366 60 366 60 360 60 c 0,32,33
 355 60 355 60 352 63 c 2,34,-1
 212 203 l 2,35,36
 210 205 210 205 208 205 c 128,-1,37
 206 205 206 205 204 203 c 2,38,-1
 61 63 l 2,39,40
 58 60 58 60 56 60 c 0,0,1
EndSplineSet
Validated: 1
EndChar

StartChar: Oslash
Encoding: 216 216 153
Width: 696
VWidth: 0
GlyphClass: 2
Flags: W
LayerCount: 2
Fore
SplineSet
332 625 m 0,0,1
 237 625 237 625 182 542 c 128,-1,2
 127 459 127 459 127 350 c 0,3,4
 127 270 127 270 153 199 c 128,-1,5
 179 128 179 128 234 80.5 c 128,-1,6
 289 33 289 33 363 33 c 0,7,8
 427 33 427 33 475 74.5 c 128,-1,9
 523 116 523 116 545.5 177.5 c 128,-1,10
 568 239 568 239 568 309 c 0,11,12
 568 389 568 389 542 459.5 c 128,-1,13
 516 530 516 530 461 577.5 c 128,-1,14
 406 625 406 625 332 625 c 0,0,1
540 667 m 1,15,16
 548 665 548 665 560 657 c 128,-1,17
 572 649 572 649 569 645 c 2,18,-1
 151 -13 l 1,19,20
 142 -10 142 -10 130.5 -2 c 128,-1,21
 119 6 119 6 122 10 c 2,22,-1
 540 667 l 1,15,16
573 567.5 m 128,-1,24
 667 468 667 468 667 328 c 128,-1,25
 667 188 667 188 573 89 c 128,-1,26
 479 -10 479 -10 347 -10 c 128,-1,27
 215 -10 215 -10 121.5 89 c 128,-1,28
 28 188 28 188 28 328 c 128,-1,29
 28 468 28 468 121.5 567.5 c 128,-1,30
 215 667 215 667 347 667 c 128,-1,23
 479 667 479 667 573 567.5 c 128,-1,24
EndSplineSet
Validated: 5
EndChar

StartChar: Thorn
Encoding: 222 222 159
Width: 556
VWidth: 0
GlyphClass: 2
Flags: W
LayerCount: 2
Fore
SplineSet
174 657 m 0,0,1
 190 657 190 657 290 662 c 1,2,3
 292 656 292 656 292 647 c 0,4,5
 292 633 292 633 288 633 c 0,6,7
 278 633 278 633 252 626 c 128,-1,8
 226 619 226 619 224 612 c 0,9,10
 215 578 215 578 215 524 c 2,11,-1
 215 504 l 2,12,13
 215 497 215 497 219 497 c 0,14,15
 220 497 220 497 232 500.5 c 128,-1,16
 244 504 244 504 265.5 507.5 c 128,-1,17
 287 511 287 511 313 511 c 0,18,19
 346 511 346 511 379.5 501 c 128,-1,20
 413 491 413 491 444.5 471 c 128,-1,21
 476 451 476 451 496 414 c 128,-1,22
 516 377 516 377 516 328 c 0,23,24
 516 299 516 299 503.5 265.5 c 128,-1,25
 491 232 491 232 467 200.5 c 128,-1,26
 443 169 443 169 402.5 148.5 c 128,-1,27
 362 128 362 128 312 128 c 0,28,29
 256 128 256 128 235 156 c 0,30,31
 229 163 229 163 232 179 c 0,32,33
 233 183 233 183 235 182 c 0,34,35
 265 171 265 171 302 171 c 0,36,37
 352 171 352 171 388 213 c 128,-1,38
 424 255 424 255 424 313 c 0,39,40
 424 384 424 384 393 425.5 c 128,-1,41
 362 467 362 467 297 467 c 0,42,43
 247 467 247 467 227 460 c 0,44,45
 215 456 215 456 215 423 c 2,46,-1
 215 139 l 2,47,48
 215 81 215 81 224 46 c 0,49,50
 226 39 226 39 252 32.5 c 128,-1,51
 278 26 278 26 288 26 c 0,52,53
 292 26 292 26 292 11 c 0,54,55
 292 3 292 3 290 -3 c 1,56,57
 190 2 190 2 174 2 c 0,58,59
 169 2 169 2 54 -3 c 1,60,61
 50 1 50 1 50 12 c 0,62,63
 50 26 50 26 54 26 c 0,64,65
 67 26 67 26 92.5 32 c 128,-1,66
 118 38 118 38 121 46 c 0,67,68
 128 73 128 73 128 135 c 2,69,-1
 128 523 l 2,70,71
 128 585 128 585 121 612 c 0,72,73
 118 620 118 620 92.5 626.5 c 128,-1,74
 67 633 67 633 54 633 c 0,75,76
 50 633 50 633 50 646 c 0,77,78
 50 658 50 658 54 662 c 1,79,80
 169 657 169 657 174 657 c 0,0,1
EndSplineSet
Validated: 1
EndChar

StartChar: germandbls
Encoding: 223 223 160
Width: 578
VWidth: 0
GlyphClass: 2
Flags: W
LayerCount: 2
Fore
SplineSet
463 561 m 0,0,1
 463 523 463 523 441.5 490 c 128,-1,2
 420 457 420 457 394 438 c 128,-1,3
 368 419 368 419 346.5 397.5 c 128,-1,4
 325 376 325 376 325 359 c 0,5,6
 325 332 325 332 350.5 311 c 128,-1,7
 376 290 376 290 423 265 c 0,8,9
 446 253 446 253 460.5 243.5 c 128,-1,10
 475 234 475 234 493.5 218 c 128,-1,11
 512 202 512 202 521.5 181.5 c 128,-1,12
 531 161 531 161 531 137 c 0,13,14
 531 77 531 77 493 33.5 c 128,-1,15
 455 -10 455 -10 399 -10 c 0,16,17
 357 -10 357 -10 323.5 4 c 128,-1,18
 290 18 290 18 281 33 c 1,19,20
 281 91 281 91 315 91 c 0,21,22
 326 91 326 91 335 80.5 c 128,-1,23
 344 70 344 70 350.5 57 c 128,-1,24
 357 44 357 44 370 33.5 c 128,-1,25
 383 23 383 23 400 23 c 0,26,27
 428 23 428 23 445.5 44 c 128,-1,28
 463 65 463 65 463 102 c 0,29,30
 463 129 463 129 443 150 c 128,-1,31
 423 171 423 171 394 185.5 c 128,-1,32
 365 200 365 200 336 216.5 c 128,-1,33
 307 233 307 233 287 260.5 c 128,-1,34
 267 288 267 288 267 325 c 0,35,36
 267 351 267 351 279.5 371.5 c 128,-1,37
 292 392 292 392 310 407.5 c 128,-1,38
 328 423 328 423 345.5 440.5 c 128,-1,39
 363 458 363 458 375.5 485.5 c 128,-1,40
 388 513 388 513 388 549 c 0,41,42
 388 599 388 599 362.5 629.5 c 128,-1,43
 337 660 337 660 290 660 c 0,44,45
 258 660 258 660 237.5 643.5 c 128,-1,46
 217 627 217 627 208 597 c 128,-1,47
 199 567 199 567 196 539.5 c 128,-1,48
 193 512 193 512 193 475 c 2,49,-1
 194 135 l 2,50,51
 194 73 194 73 201 46 c 0,52,53
 203 39 203 39 224 32.5 c 128,-1,54
 245 26 245 26 254 26 c 0,55,56
 257 26 257 26 258 14 c 128,-1,57
 259 2 259 2 257 -3 c 1,58,59
 157 2 157 2 155 2 c 0,60,61
 154 2 154 2 51 -3 c 1,62,63
 47 1 47 1 47 12 c 0,64,65
 47 26 47 26 51 26 c 0,66,67
 63 26 63 26 83.5 32.5 c 128,-1,68
 104 39 104 39 106 46 c 0,69,70
 115 81 115 81 115 135 c 0,71,72
 116 273 116 273 116 361 c 0,73,74
 116 369 116 369 111 369 c 2,75,-1
 58 369 l 2,76,77
 55 369 55 369 55 375 c 0,78,79
 55 385 55 385 60.5 400.5 c 128,-1,80
 66 416 66 416 70 416 c 2,81,-1
 111 416 l 2,82,83
 116 416 116 416 116 422 c 2,84,-1
 116 438 l 2,85,86
 116 563 116 563 162 628 c 128,-1,87
 208 693 208 693 287 693 c 0,88,89
 367 693 367 693 415 660.5 c 128,-1,90
 463 628 463 628 463 561 c 0,0,1
EndSplineSet
Validated: 1
EndChar

StartChar: ae
Encoding: 230 230 167
Width: 675
VWidth: 0
GlyphClass: 2
Flags: W
LayerCount: 2
Fore
SplineSet
272 100 m 2,0,-1
 272 203 l 1,1,2
 134 177 134 177 134 106 c 0,3,4
 134 79 134 79 151 64.5 c 128,-1,5
 168 50 168 50 195 50 c 128,-1,6
 222 50 222 50 247 66.5 c 128,-1,7
 272 83 272 83 272 100 c 2,0,-1
464 399 m 0,8,9
 415 399 415 399 385.5 354 c 128,-1,10
 356 309 356 309 356 267 c 0,11,12
 356 261 356 261 362 261 c 0,13,14
 403 263 403 263 473 269.5 c 128,-1,15
 543 276 543 276 549 278 c 0,16,17
 554 279 554 279 554 287 c 0,18,19
 554 314 554 314 527 356.5 c 128,-1,20
 500 399 500 399 464 399 c 0,8,9
245 436 m 0,21,22
 278 436 278 436 305 421.5 c 128,-1,23
 332 407 332 407 341 382 c 1,24,25
 395 436 395 436 468 436 c 0,26,27
 514 436 514 436 548 419.5 c 128,-1,28
 582 403 582 403 599 375.5 c 128,-1,29
 616 348 616 348 623.5 321 c 128,-1,30
 631 294 631 294 631 265 c 0,31,32
 631 260 631 260 630.5 256.5 c 128,-1,33
 630 253 630 253 629 250 c 128,-1,34
 628 247 628 247 627.5 245 c 128,-1,35
 627 243 627 243 624.5 241.5 c 128,-1,36
 622 240 622 240 621.5 239.5 c 128,-1,37
 621 239 621 239 617 238.5 c 128,-1,38
 613 238 613 238 612.5 237.5 c 2,39,-1
 602 237 l 1,40,41
 501 229 501 229 363 222 c 0,42,43
 355 222 355 222 355 214 c 0,44,45
 355 150 355 150 398.5 104 c 128,-1,46
 442 58 442 58 504 58 c 0,47,48
 527 58 527 58 549.5 63.5 c 128,-1,49
 572 69 572 69 584 75 c 128,-1,50
 596 81 596 81 609 89.5 c 128,-1,51
 622 98 622 98 623 98 c 0,52,53
 629 98 629 98 629 85 c 128,-1,54
 629 72 629 72 622 65 c 0,55,56
 562 -6 562 -6 480 -6 c 0,57,58
 375 -6 375 -6 318 78 c 1,59,60
 294 49 294 49 249.5 21 c 128,-1,61
 205 -7 205 -7 156 -7 c 0,62,63
 110 -7 110 -7 80 17.5 c 128,-1,64
 50 42 50 42 50 91 c 0,65,66
 50 124 50 124 71.5 151.5 c 128,-1,67
 93 179 93 179 127.5 196.5 c 128,-1,68
 162 214 162 214 195.5 224.5 c 128,-1,69
 229 235 229 235 263 241 c 0,70,71
 272 242 272 242 272 256 c 2,72,-1
 272 340 l 2,73,74
 272 365 272 365 251.5 381.5 c 128,-1,75
 231 398 231 398 204 398 c 0,76,77
 174 398 174 398 154 377.5 c 128,-1,78
 134 357 134 357 134 324 c 0,79,80
 134 289 134 289 93 289 c 0,81,82
 65 289 65 289 54 308 c 1,83,84
 54 351 54 351 117 393.5 c 128,-1,85
 180 436 180 436 245 436 c 0,21,22
EndSplineSet
Validated: 1
EndChar

StartChar: eth
Encoding: 240 240 177
Width: 514
VWidth: 0
GlyphClass: 2
Flags: W
LayerCount: 2
Fore
SplineSet
356 705 m 1,0,1
 378 678 378 678 374 674 c 1,2,-1
 119 509 l 1,3,4
 96 535 96 535 102 541 c 1,5,-1
 356 705 l 1,0,1
243 438 m 0,6,7
 272 438 272 438 302.5 429 c 128,-1,8
 333 420 333 420 344 408 c 1,9,10
 330 477 330 477 265.5 544 c 128,-1,11
 201 611 201 611 72 664 c 1,12,13
 72 670 72 670 76.5 679 c 128,-1,14
 81 688 81 688 86 688 c 1,15,16
 139 676 139 676 190 652.5 c 128,-1,17
 241 629 241 629 289 591 c 128,-1,18
 337 553 337 553 373 506 c 128,-1,19
 409 459 409 459 430.5 395 c 128,-1,20
 452 331 452 331 452 260 c 0,21,22
 452 148 452 148 396 70.5 c 128,-1,23
 340 -7 340 -7 255 -7 c 0,24,25
 155 -7 155 -7 91.5 60.5 c 128,-1,26
 28 128 28 128 28 215 c 0,27,28
 28 299 28 299 91 368.5 c 128,-1,29
 154 438 154 438 243 438 c 0,6,7
230 398 m 0,30,31
 179 398 179 398 146.5 346 c 128,-1,32
 114 294 114 294 114 222 c 0,33,34
 114 147 114 147 153 89.5 c 128,-1,35
 192 32 192 32 246 32 c 0,36,37
 302 32 302 32 333.5 86 c 128,-1,38
 365 140 365 140 365 218 c 0,39,40
 365 313 365 313 346 338 c 0,41,42
 300 398 300 398 230 398 c 0,30,31
EndSplineSet
Validated: 37
EndChar

StartChar: divide
Encoding: 247 247 184
Width: 528
VWidth: 0
GlyphClass: 2
Flags: W
LayerCount: 2
Fore
SplineSet
262 390 m 0,0,1
 242 390 242 390 228.5 402.5 c 128,-1,2
 215 415 215 415 213 435 c 1,3,-1
 213 439 l 2,4,5
 213 458 213 458 228 472.5 c 128,-1,6
 243 487 243 487 262 487 c 0,7,8
 282 487 282 487 295.5 475 c 128,-1,9
 309 463 309 463 311 443 c 1,10,-1
 311 438 l 2,11,12
 311 420 311 420 296 405 c 128,-1,13
 281 390 281 390 262 390 c 0,0,1
262 5 m 0,14,15
 242 5 242 5 228.5 18 c 128,-1,16
 215 31 215 31 213 52 c 1,17,-1
 213 56 l 2,18,19
 213 75 213 75 228 90 c 128,-1,20
 243 105 243 105 262 105 c 0,21,22
 282 105 282 105 295.5 91.5 c 128,-1,23
 309 78 309 78 311 57 c 1,24,-1
 311 55 l 2,25,26
 311 37 311 37 296 21 c 128,-1,27
 281 5 281 5 262 5 c 0,14,15
28 224 m 0,28,29
 28 234 28 234 31.5 256 c 128,-1,30
 35 278 35 278 42 278 c 2,31,-1
 491 278 l 1,32,33
 498 277 498 277 498 268 c 0,34,35
 498 254 498 254 490 222 c 0,36,37
 489 219 489 219 487 217.5 c 128,-1,38
 485 216 485 216 484 216 c 2,39,-1
 482 215 l 1,40,-1
 34 215 l 1,41,-1
 30 217 l 1,42,43
 28 220 28 220 28 224 c 0,28,29
EndSplineSet
Validated: 1
EndChar

StartChar: oslash
Encoding: 248 248 185
Width: 533
VWidth: 0
GlyphClass: 2
Flags: W
LayerCount: 2
Fore
SplineSet
128 -8 m 1,0,1
 98 7 98 7 101 13 c 2,2,-1
 371 437 l 1,3,4
 401 424 401 424 398 417 c 1,5,-1
 128 -8 l 1,0,1
256 32 m 0,6,7
 309 32 309 32 343 82 c 128,-1,8
 377 132 377 132 377 202 c 0,9,10
 377 283 377 283 334 340.5 c 128,-1,11
 291 398 291 398 234 398 c 0,12,13
 181 398 181 398 147.5 349.5 c 128,-1,14
 114 301 114 301 114 231 c 0,15,16
 114 149 114 149 156.5 90.5 c 128,-1,17
 199 32 199 32 256 32 c 0,6,7
245 437 m 0,18,19
 335 437 335 437 399 372 c 128,-1,20
 463 307 463 307 463 216 c 0,21,22
 463 124 463 124 400.5 58.5 c 128,-1,23
 338 -7 338 -7 247 -7 c 128,-1,24
 156 -7 156 -7 92 58.5 c 128,-1,25
 28 124 28 124 28 216 c 0,26,27
 28 309 28 309 90 373 c 128,-1,28
 152 437 152 437 245 437 c 0,18,19
EndSplineSet
Validated: 37
EndChar

StartChar: thorn
Encoding: 254 254 191
Width: 513
VWidth: 0
GlyphClass: 2
Flags: W
LayerCount: 2
Fore
SplineSet
294 436 m 0,0,1
 390 436 390 436 444 371.5 c 128,-1,2
 498 307 498 307 498 234 c 0,3,4
 498 138 498 138 431 65 c 128,-1,5
 364 -8 364 -8 279 -8 c 0,6,7
 264 -8 264 -8 252.5 -7 c 128,-1,8
 241 -6 241 -6 232 -3.5 c 128,-1,9
 223 -1 223 -1 218 1 c 128,-1,10
 213 3 213 3 205 6.5 c 128,-1,11
 197 10 197 10 195 11 c 1,12,13
 191 6 191 6 191 -2 c 2,14,-1
 191 -88 l 2,15,16
 191 -146 191 -146 199 -177 c 0,17,18
 201 -184 201 -184 225 -190.5 c 128,-1,19
 249 -197 249 -197 259 -197 c 0,20,21
 262 -197 262 -197 263 -209.5 c 128,-1,22
 264 -222 264 -222 262 -226 c 1,23,24
 162 -221 162 -221 155 -221 c 128,-1,25
 148 -221 148 -221 46 -226 c 1,26,27
 42 -222 42 -222 42 -209.5 c 128,-1,28
 42 -197 42 -197 46 -197 c 0,29,30
 58 -197 58 -197 81.5 -190.5 c 128,-1,31
 105 -184 105 -184 107 -177 c 0,32,33
 114 -148 114 -148 114 -107 c 2,34,-1
 114 548 l 2,35,36
 114 583 114 583 108 613 c 1,37,38
 103 629 103 629 57 629 c 2,39,-1
 48 629 l 2,40,41
 42 629 42 629 42 640 c 0,42,43
 42 656 42 656 48 656 c 0,44,45
 78 659 78 659 103.5 664 c 128,-1,46
 129 669 129 669 143.5 674 c 128,-1,47
 158 679 158 679 168 683.5 c 128,-1,48
 178 688 178 688 182 691 c 2,49,-1
 187 694 l 1,50,-1
 189 694 l 2,51,52
 193 694 193 694 197 688.5 c 128,-1,53
 201 683 201 683 202 678 c 1,54,55
 191 646 191 646 191 591 c 2,56,-1
 191 407 l 2,57,58
 191 402 191 402 194 402 c 1,59,60
 208 412 208 412 239.5 424 c 128,-1,61
 271 436 271 436 294 436 c 0,0,1
262 387 m 0,62,63
 231 387 231 387 211 370.5 c 128,-1,64
 191 354 191 354 191 323 c 2,65,-1
 191 98 l 2,66,67
 191 71 191 71 220 52.5 c 128,-1,68
 249 34 249 34 283 34 c 0,69,70
 342 34 342 34 377 87 c 128,-1,71
 412 140 412 140 412 206 c 0,72,73
 412 290 412 290 367.5 338.5 c 128,-1,74
 323 387 323 387 262 387 c 0,62,63
EndSplineSet
Validated: 1
EndChar

StartChar: Aogonek
Encoding: 260 260 197
Width: 746
VWidth: 0
GlyphClass: 2
Flags: W
LayerCount: 2
Fore
SplineSet
328 586 m 2,0,1
 330 591 330 591 333.5 602 c 128,-1,2
 337 613 337 613 339 618.5 c 128,-1,3
 341 624 341 624 345 632.5 c 128,-1,4
 349 641 349 641 352 645 c 128,-1,5
 355 649 355 649 359.5 654 c 128,-1,6
 364 659 364 659 369.5 661 c 128,-1,7
 375 663 375 663 382 663 c 1,8,-1
 391 660 l 1,9,-1
 591 132 l 2,10,11
 609 85 609 85 620 60 c 0,12,13
 626 45 626 45 651 35.5 c 128,-1,14
 676 26 676 26 688 26 c 0,15,16
 692 26 692 26 692 7 c 0,17,18
 692 3 692 3 690 -3 c 1,19,20
 627 1 627 1 591 2 c 1,21,22
 552 -21 552 -21 519.5 -56 c 128,-1,23
 487 -91 487 -91 487 -121 c 0,24,25
 487 -137 487 -137 496 -150.5 c 128,-1,26
 505 -164 505 -164 528 -164 c 0,27,28
 550 -164 550 -164 569 -154.5 c 128,-1,29
 588 -145 588 -145 598 -135.5 c 128,-1,30
 608 -126 608 -126 609 -126 c 0,31,32
 614 -126 614 -126 614 -139 c 0,33,34
 614 -150 614 -150 609 -157 c 0,35,36
 559 -223 559 -223 504 -223 c 0,37,38
 467 -223 467 -223 450 -198 c 128,-1,39
 433 -173 433 -173 433 -146 c 0,40,41
 433 -108 433 -108 466.5 -67.5 c 128,-1,42
 500 -27 500 -27 545 2 c 1,43,44
 529 1 529 1 505.5 -0.5 c 128,-1,45
 482 -2 482 -2 464 -3 c 1,46,47
 460 1 460 1 460.5 13.5 c 128,-1,48
 461 26 461 26 465 26 c 0,49,50
 477 26 477 26 495 31 c 128,-1,51
 513 36 513 36 516 44 c 0,52,53
 518 52 518 52 518 60 c 0,54,55
 518 73 518 73 514.5 90.5 c 128,-1,56
 511 108 511 108 508 118 c 2,57,-1
 504 129 l 1,58,-1
 463 242 l 1,59,60
 460 246 460 246 457 246 c 0,61,62
 418 249 418 249 381 249 c 0,63,64
 329 249 329 249 254 244 c 1,65,-1
 249 241 l 1,66,-1
 206 131 l 1,67,68
 189 81 189 81 189 62 c 0,69,70
 189 48 189 48 197 42 c 0,71,72
 206 35 206 35 226 30.5 c 128,-1,73
 246 26 246 26 255 26 c 0,74,75
 258 26 258 26 258.5 14 c 128,-1,76
 259 2 259 2 257 -3 c 1,77,78
 157 2 157 2 154 2 c 0,79,80
 134 2 134 2 119 1 c 128,-1,81
 104 0 104 0 85.5 -1 c 128,-1,82
 67 -2 67 -2 50 -3 c 1,83,84
 46 1 46 1 46 12 c 0,85,86
 46 26 46 26 50 26 c 0,87,88
 62 26 62 26 81 31 c 128,-1,89
 100 36 100 36 107 45 c 0,90,91
 128 72 128 72 154 139 c 2,92,-1
 328 586 l 2,0,1
359 526 m 1,93,-1
 273 303 l 1,94,95
 273 299 273 299 275 299 c 0,96,97
 327 297 327 297 346 297 c 0,98,99
 390 297 390 297 437 300 c 1,100,-1
 440 305 l 1,101,-1
 359 526 l 1,93,-1
EndSplineSet
Validated: 1
EndChar

StartChar: aogonek
Encoding: 261 261 198
Width: 418
VWidth: 0
GlyphClass: 2
Flags: W
LayerCount: 2
Fore
SplineSet
272 100 m 2,0,-1
 272 203 l 1,1,2
 264 199 264 199 233 189 c 128,-1,3
 202 179 202 179 184.5 171.5 c 128,-1,4
 167 164 167 164 150.5 146.5 c 128,-1,5
 134 129 134 129 134 106 c 0,6,7
 134 79 134 79 151 64.5 c 128,-1,8
 168 50 168 50 195 50 c 128,-1,9
 222 50 222 50 247 66.5 c 128,-1,10
 272 83 272 83 272 100 c 2,0,-1
348 93 m 2,11,12
 348 72 348 72 359 57 c 128,-1,13
 370 42 370 42 389 42 c 0,14,15
 397 42 397 42 405 45.5 c 128,-1,16
 413 49 413 49 418 52.5 c 128,-1,17
 423 56 423 56 424 56 c 0,18,19
 429 56 429 56 429 51 c 0,20,21
 429 40 429 40 423 26 c 1,22,-1
 390 3 l 2,23,24
 387 1 387 1 369 -11.5 c 128,-1,25
 351 -24 351 -24 343.5 -29.5 c 128,-1,26
 336 -35 336 -35 320.5 -48.5 c 128,-1,27
 305 -62 305 -62 298 -71.5 c 128,-1,28
 291 -81 291 -81 284.5 -94.5 c 128,-1,29
 278 -108 278 -108 278 -121 c 0,30,31
 278 -137 278 -137 287 -150.5 c 128,-1,32
 296 -164 296 -164 319 -164 c 128,-1,33
 342 -164 342 -164 360.5 -154.5 c 128,-1,34
 379 -145 379 -145 389 -135.5 c 128,-1,35
 399 -126 399 -126 400 -126 c 0,36,37
 405 -126 405 -126 405 -139 c 0,38,39
 405 -150 405 -150 400 -157 c 0,40,41
 350 -223 350 -223 295 -223 c 0,42,43
 258 -223 258 -223 241 -198 c 128,-1,44
 224 -173 224 -173 224 -146 c 0,45,46
 224 -115 224 -115 255 -74.5 c 128,-1,47
 286 -34 286 -34 326 -2 c 1,48,49
 293 16 293 16 280 53 c 0,50,51
 279 53 279 53 272.5 46.5 c 128,-1,52
 266 40 266 40 255 31.5 c 128,-1,53
 244 23 244 23 229.5 14 c 128,-1,54
 215 5 215 5 195.5 -1 c 128,-1,55
 176 -7 176 -7 156 -7 c 0,56,57
 110 -7 110 -7 80 17.5 c 128,-1,58
 50 42 50 42 50 91 c 0,59,60
 50 113 50 113 61 132.5 c 128,-1,61
 72 152 72 152 87 164.5 c 128,-1,62
 102 177 102 177 128 190 c 128,-1,63
 154 203 154 203 172.5 209.5 c 128,-1,64
 191 216 191 216 221 226 c 128,-1,65
 251 236 251 236 263 241 c 0,66,67
 272 244 272 244 272 256 c 2,68,-1
 272 331 l 2,69,70
 272 363 272 363 252 380.5 c 128,-1,71
 232 398 232 398 204 398 c 0,72,73
 174 398 174 398 154 377.5 c 128,-1,74
 134 357 134 357 134 324 c 0,75,76
 134 289 134 289 93 289 c 0,77,78
 65 289 65 289 54 308 c 1,79,80
 54 351 54 351 117 393.5 c 128,-1,81
 180 436 180 436 245 436 c 0,82,83
 300 436 300 436 324 409.5 c 128,-1,84
 348 383 348 383 348 324 c 2,85,-1
 348 93 l 2,11,12
EndSplineSet
Validated: 1
EndChar

StartChar: dcroat
Encoding: 273 273 210
Width: 491
VWidth: 0
GlyphClass: 2
Flags: W
LayerCount: 2
Fore
SplineSet
254 440 m 0,0,1
 297 440 297 440 329 423 c 1,2,3
 336 423 336 423 336 441 c 2,4,-1
 336 549 l 2,5,6
 336 583 336 583 330 613 c 1,7,8
 325 629 325 629 279 629 c 2,9,-1
 270 629 l 2,10,11
 264 629 264 629 264 640 c 0,12,13
 264 656 264 656 270 656 c 0,14,15
 300 659 300 659 325.5 664 c 128,-1,16
 351 669 351 669 365.5 674 c 128,-1,17
 380 679 380 679 390 683.5 c 128,-1,18
 400 688 400 688 404 691 c 2,19,-1
 409 694 l 1,20,-1
 411 694 l 2,21,22
 415 694 415 694 419 688.5 c 128,-1,23
 423 683 423 683 424 678 c 1,24,25
 413 646 413 646 413 591 c 2,26,-1
 413 141 l 2,27,28
 413 93 413 93 419 65 c 0,29,30
 421 58 421 58 430 54 c 128,-1,31
 439 50 439 50 448.5 49 c 128,-1,32
 458 48 458 48 467 48 c 2,33,-1
 476 47 l 2,34,35
 479 46 479 46 479 35 c 0,36,37
 479 20 479 20 473 20 c 0,38,39
 458 19 458 19 439.5 16 c 128,-1,40
 421 13 421 13 404.5 9.5 c 128,-1,41
 388 6 388 6 374 2.5 c 128,-1,42
 360 -1 360 -1 351 -4 c 2,43,-1
 342 -6 l 1,44,45
 336 -6 336 -6 336 11 c 2,46,-1
 336 23 l 2,47,48
 336 29 336 29 332 27 c 0,49,50
 276 -4 276 -4 226 -4 c 0,51,52
 143 -4 143 -4 87 55 c 128,-1,53
 31 114 31 114 31 196 c 0,54,55
 31 293 31 293 99.5 366.5 c 128,-1,56
 168 440 168 440 254 440 c 0,0,1
241 398 m 0,57,58
 183 398 183 398 150 346 c 128,-1,59
 117 294 117 294 117 225 c 0,60,61
 117 152 117 152 156 98.5 c 128,-1,62
 195 45 195 45 264 45 c 0,63,64
 298 45 298 45 317 60.5 c 128,-1,65
 336 76 336 76 336 102 c 2,66,-1
 336 340 l 2,67,68
 336 361 336 361 313.5 379.5 c 128,-1,69
 291 398 291 398 241 398 c 0,57,58
212 569 m 1,70,-1
 477 569 l 2,71,72
 483 569 483 569 483 559 c 0,73,74
 483 542 483 542 477 529 c 1,75,-1
 211 529 l 2,76,77
 206 529 206 529 206 542 c 0,78,79
 206 560 206 560 212 569 c 1,70,-1
EndSplineSet
Validated: 5
EndChar

StartChar: Eogonek
Encoding: 280 280 217
Width: 612
VWidth: 0
GlyphClass: 2
Flags: W
LayerCount: 2
Fore
SplineSet
171 656 m 0,0,1
 216 656 216 656 327 658 c 128,-1,2
 438 660 438 660 494 660 c 1,3,4
 498 631 498 631 509.5 583.5 c 128,-1,5
 521 536 521 536 523 524 c 1,6,7
 518 519 518 519 505 519 c 128,-1,8
 492 519 492 519 491 526 c 0,9,10
 476 581 476 581 449 596.5 c 128,-1,11
 422 612 422 612 375 612 c 2,12,-1
 308 612 l 2,13,14
 222 612 222 612 220 599 c 0,15,16
 215 575 215 575 215 515 c 2,17,-1
 215 355 l 2,18,19
 215 349 215 349 258 349 c 2,20,-1
 311 349 l 2,21,22
 364 349 364 349 378 353 c 128,-1,23
 392 357 392 357 396 358 c 128,-1,24
 400 359 400 359 406.5 371 c 128,-1,25
 413 383 413 383 414 388.5 c 128,-1,26
 415 394 415 394 421 417 c 0,27,28
 422 424 422 424 436 424 c 0,29,30
 448 424 448 424 453 419 c 1,31,-1
 453 230 l 1,32,33
 449 226 449 226 437 226 c 0,34,35
 424 226 424 226 421 234 c 0,36,37
 414 261 414 261 409 274.5 c 128,-1,38
 404 288 404 288 401.5 290.5 c 128,-1,39
 399 293 399 293 393 297 c 0,40,41
 380 305 380 305 287 305 c 0,42,43
 215 305 215 305 215 296 c 2,44,-1
 215 141 l 2,45,46
 215 76 215 76 224 50 c 0,47,48
 227 40 227 40 292 40 c 2,49,-1
 340 40 l 2,50,51
 433 40 433 40 466 57 c 0,52,53
 481 65 481 65 499.5 92.5 c 128,-1,54
 518 120 518 120 529 158 c 0,55,56
 530 164 530 164 543 164 c 0,57,58
 562 164 562 164 568 158 c 1,59,60
 564 147 564 147 548.5 106 c 128,-1,61
 533 65 533 65 525 39.5 c 128,-1,62
 517 14 517 14 514 -6 c 1,63,64
 472 -6 472 -6 429.5 -47 c 128,-1,65
 387 -88 387 -88 387 -122 c 0,66,67
 387 -138 387 -138 396 -151.5 c 128,-1,68
 405 -165 405 -165 428 -165 c 0,69,70
 450 -165 450 -165 469 -155.5 c 128,-1,71
 488 -146 488 -146 498 -136.5 c 128,-1,72
 508 -127 508 -127 509 -127 c 0,73,74
 513 -127 513 -127 513 -140 c 128,-1,75
 513 -153 513 -153 509 -158 c 0,76,77
 459 -224 459 -224 404 -224 c 0,78,79
 367 -224 367 -224 350 -199 c 128,-1,80
 333 -174 333 -174 333 -147 c 0,81,82
 333 -111 333 -111 363.5 -73 c 128,-1,83
 394 -35 394 -35 437 -5 c 1,84,85
 204 0 204 0 173 0 c 2,86,-1
 52 -3 l 1,87,88
 49 0 49 0 49 13 c 128,-1,89
 49 26 49 26 52 26 c 0,90,91
 65 26 65 26 90.5 33 c 128,-1,92
 116 40 116 40 121 49 c 0,93,94
 128 61 128 61 128 143 c 2,95,-1
 128 521 l 2,96,97
 128 580 128 580 121 607 c 0,98,99
 118 615 118 615 91.5 622 c 128,-1,100
 65 629 65 629 52 629 c 0,101,102
 48 629 48 629 48 641 c 0,103,104
 48 654 48 654 52 658 c 1,105,106
 104 656 104 656 171 656 c 0,0,1
EndSplineSet
Validated: 1
EndChar

StartChar: eogonek
Encoding: 281 281 218
Width: 411
VWidth: 0
GlyphClass: 2
Flags: W
LayerCount: 2
Fore
SplineSet
212 399 m 0,0,1
 160 399 160 399 132.5 354.5 c 128,-1,2
 105 310 105 310 105 281 c 0,3,4
 105 274 105 274 111 274 c 2,5,-1
 306 274 l 2,6,7
 311 274 311 274 311 284 c 0,8,9
 311 316 311 316 284 357.5 c 128,-1,10
 257 399 257 399 212 399 c 0,0,1
226 -6 m 2,11,12
 143 -6 143 -6 83.5 56.5 c 128,-1,13
 24 119 24 119 24 209 c 0,14,15
 24 314 24 314 80.5 375 c 128,-1,16
 137 436 137 436 222 436 c 0,17,18
 268 436 268 436 303 418.5 c 128,-1,19
 338 401 338 401 356.5 373.5 c 128,-1,20
 375 346 375 346 383.5 317.5 c 128,-1,21
 392 289 392 289 392 261 c 0,22,23
 392 241 392 241 386 236.5 c 128,-1,24
 380 232 380 232 363 232 c 2,25,-1
 111 232 l 2,26,27
 103 232 103 232 103 227 c 0,28,29
 103 164 103 164 141 111 c 128,-1,30
 179 58 179 58 251 58 c 0,31,32
 272 58 272 58 291 62 c 128,-1,33
 310 66 310 66 323.5 71.5 c 128,-1,34
 337 77 337 77 346.5 82.5 c 128,-1,35
 356 88 356 88 363 93 c 2,36,-1
 370 98 l 1,37,38
 376 98 376 98 376 85 c 0,39,40
 376 77 376 77 370 67 c 0,41,42
 355 45 355 45 327 26 c 1,43,44
 274 -13 274 -13 248.5 -46.5 c 128,-1,45
 223 -80 223 -80 223 -122 c 0,46,47
 223 -138 223 -138 232 -151.5 c 128,-1,48
 241 -165 241 -165 264 -165 c 0,49,50
 286 -165 286 -165 305 -155.5 c 128,-1,51
 324 -146 324 -146 334 -136.5 c 128,-1,52
 344 -127 344 -127 345 -127 c 0,53,54
 349 -127 349 -127 349 -140 c 128,-1,55
 349 -153 349 -153 345 -158 c 0,56,57
 295 -224 295 -224 240 -224 c 0,58,59
 203 -224 203 -224 186 -199 c 128,-1,60
 169 -174 169 -174 169 -147 c 0,61,62
 169 -118 169 -118 192.5 -77.5 c 128,-1,63
 216 -37 216 -37 248 -5 c 1,64,-1
 244 -6 l 1,65,-1
 226 -6 l 2,11,12
EndSplineSet
Validated: 1
EndChar

StartChar: Hbar
Encoding: 294 294 231
Width: 738
VWidth: 0
GlyphClass: 2
Flags: W
LayerCount: 2
Fore
SplineSet
174 656 m 0,0,1
 194 656 194 656 213 657 c 128,-1,2
 232 658 232 658 254 659.5 c 128,-1,3
 276 661 276 661 290 662 c 1,4,5
 292 658 292 658 291.5 645.5 c 128,-1,6
 291 633 291 633 288 633 c 0,7,8
 278 633 278 633 252 626 c 128,-1,9
 226 619 226 619 224 612 c 0,10,11
 215 577 215 577 215 508 c 1,12,13
 227 507 227 507 369 507 c 0,14,15
 479 507 479 507 519 508 c 1,16,17
 519 585 519 585 512 612 c 0,18,19
 509 620 509 620 483.5 626.5 c 128,-1,20
 458 633 458 633 445 633 c 0,21,22
 441 633 441 633 441 645.5 c 128,-1,23
 441 658 441 658 445 662 c 1,24,25
 457 661 457 661 498 658.5 c 128,-1,26
 539 656 539 656 566 656 c 0,27,28
 585 656 585 656 604 657 c 128,-1,29
 623 658 623 658 644.5 659.5 c 128,-1,30
 666 661 666 661 680 662 c 1,31,32
 682 656 682 656 682 647 c 0,33,34
 682 633 682 633 678 633 c 0,35,36
 668 633 668 633 642 626 c 128,-1,37
 616 619 616 619 614 612 c 0,38,39
 606 581 606 581 606 508 c 1,40,-1
 647 508 l 2,41,42
 652 508 652 508 652 495 c 0,43,44
 652 479 652 479 646 470 c 1,45,-1
 606 470 l 1,46,-1
 606 139 l 2,47,48
 606 77 606 77 614 46 c 0,49,50
 616 39 616 39 642 32.5 c 128,-1,51
 668 26 668 26 678 26 c 0,52,53
 682 26 682 26 682 11 c 0,54,55
 682 3 682 3 680 -3 c 1,56,57
 580 2 580 2 566 2 c 0,58,59
 560 2 560 2 445 -3 c 1,60,61
 441 1 441 1 441 13.5 c 128,-1,62
 441 26 441 26 445 26 c 0,63,64
 458 26 458 26 483.5 32 c 128,-1,65
 509 38 509 38 512 46 c 0,66,67
 519 73 519 73 519 135 c 2,68,-1
 519 293 l 1,69,-1
 517 297 l 1,70,71
 423 299 423 299 369 299 c 0,72,73
 215 299 215 299 215 294 c 2,74,-1
 215 139 l 2,75,76
 215 81 215 81 224 46 c 0,77,78
 226 39 226 39 252 32.5 c 128,-1,79
 278 26 278 26 288 26 c 0,80,81
 291 26 291 26 291.5 14 c 128,-1,82
 292 2 292 2 290 -3 c 1,83,84
 190 2 190 2 174 2 c 0,85,86
 169 2 169 2 54 -3 c 1,87,88
 50 1 50 1 50 12 c 0,89,90
 50 26 50 26 54 26 c 0,91,92
 67 26 67 26 92.5 32 c 128,-1,93
 118 38 118 38 121 46 c 0,94,95
 128 73 128 73 128 135 c 2,96,-1
 128 470 l 1,97,-1
 94 470 l 2,98,99
 89 470 89 470 89 483 c 0,100,101
 89 499 89 499 95 508 c 1,102,-1
 128 508 l 1,103,104
 128 585 128 585 121 612 c 0,105,106
 118 620 118 620 92.5 626.5 c 128,-1,107
 67 633 67 633 54 633 c 0,108,109
 50 633 50 633 50 646 c 0,110,111
 50 658 50 658 54 662 c 1,112,113
 67 661 67 661 107 658.5 c 128,-1,114
 147 656 147 656 174 656 c 0,0,1
215 470 m 1,115,-1
 215 352 l 2,116,117
 215 349 215 349 217 349 c 0,118,119
 315 347 315 347 369 347 c 0,120,121
 427 347 427 347 517 349 c 1,122,123
 519 351 519 351 519 353 c 2,124,-1
 519 470 l 1,125,126
 478 471 478 471 369 471 c 128,-1,127
 260 471 260 471 215 470 c 1,115,-1
EndSplineSet
Validated: 1
EndChar

